TW-Kai-98_1.sfdir
StartChar: exclam
Encoding: 33 33 4
Width: 511
Flags: W
LayerCount: 2
Back
Fore
SplineSet
264 42 m 1,0,-1
 244 42 l 1,1,2
 240 112 240 112 236 160 c 0,3,4
 234 208 234 208 230 268 c 0,5,6
 224 329 224 329 222 372 c 2,7,-1
 204 560 l 2,8,9
 200 590 200 590 200 617 c 256,10,11
 200 644 200 644 210 659 c 0,12,13
 218 670 218 670 231 676 c 0,14,15
 241 681 241 681 252 681 c 0,16,17
 256 681 256 681 260 680 c 0,18,19
 274 679 274 679 285 671 c 256,20,21
 296 663 296 663 302 647 c 0,22,23
 308 632 308 632 308 604 c 0,24,25
 308 586 308 586 303 527 c 256,26,27
 298 468 298 468 296 448 c 256,28,29
 294 428 294 428 286 308 c 0,30,31
 276 189 276 189 270 116 c 2,32,-1
 264 42 l 1,0,-1
258 -46 m 0,33,34
 270 -47 270 -47 282 -53 c 256,35,36
 294 -59 294 -59 302 -73 c 0,37,38
 310 -86 310 -86 310 -102 c 0,39,40
 310 -117 310 -117 304 -129 c 0,41,42
 296 -142 296 -142 284 -148 c 0,43,44
 270 -156 270 -156 256 -156 c 0,45,46
 240 -156 240 -156 228 -149 c 256,47,48
 216 -142 216 -142 210 -130 c 0,49,50
 202 -118 202 -118 202 -103 c 0,51,52
 202 -89 202 -89 206 -78 c 0,53,54
 208 -71 208 -71 216 -63 c 0,55,56
 222 -56 222 -56 232 -51 c 0,57,58
 244 -46 244 -46 258 -46 c 0,33,34
EndSplineSet
EndChar
StartChar: quotedbl
Encoding: 34 34 5
Width: 512
Flags: W
LayerCount: 2
Back
Fore
SplineSet
169 381 m 2,0,-1
 167 399 l 1,1,-1
 165 442 l 1,2,-1
 157 533 l 1,3,-1
 154 600 l 1,4,-1
 149 662 l 2,5,6
 146 714 146 714 145 725 c 0,7,8
 145 736 145 736 147 743 c 0,9,10
 149 752 149 752 158 759 c 0,11,12
 165 764 165 764 175 764 c 2,13,-1
 181 764 l 2,14,15
 193 763 193 763 201 754 c 0,16,17
 208 745 208 745 208 725 c 2,18,-1
 208 720 l 1,19,-1
 205 674 l 2,20,21
 203 644 203 644 201 628 c 0,22,23
 201 612 201 612 198 566 c 256,24,25
 195 520 195 520 193 474 c 0,26,27
 190 428 190 428 189 416 c 2,28,-1
 188 389 l 2,29,30
 187 379 187 379 183 374 c 0,31,32
 181 370 181 370 177 370 c 2,33,-1
 175 370 l 2,34,35
 172 370 172 370 171 373 c 0,36,37
 169 376 169 376 169 381 c 2,0,-1
321 390 m 2,38,-1
 319 418 l 2,39,40
 317 448 317 448 317 475 c 2,41,-1
 313 562 l 2,42,43
 310 606 310 606 308 643 c 0,44,45
 306 679 306 679 304 698 c 0,46,47
 303 710 303 710 303 717 c 2,48,-1
 303 724 l 2,49,50
 303 744 303 744 311 754 c 256,51,52
 319 764 319 764 335 765 c 2,53,-1
 337 765 l 2,54,55
 350 765 350 765 359 754 c 0,56,57
 367 744 367 744 367 721 c 2,58,-1
 367 716 l 2,59,60
 365 704 365 704 362 662 c 2,61,-1
 357 594 l 1,62,-1
 351 535 l 1,63,-1
 345 444 l 1,64,-1
 341 400 l 1,65,-1
 340 382 l 2,66,67
 339 378 339 378 338 375 c 256,68,69
 337 372 337 372 333 371 c 2,70,-1
 332 371 l 2,71,72
 328 371 328 371 325 376 c 0,73,74
 321 382 321 382 321 390 c 2,38,-1
EndSplineSet
EndChar
StartChar: numbersign
Encoding: 35 35 6
Width: 1024
Flags: W
LayerCount: 2
Back
Fore
SplineSet
312 168 m 1,0,-1
 347 434 l 1,1,-1
 162 434 l 2,2,3
 151 434 151 434 143 442 c 0,4,5
 136 449 136 449 136 458 c 2,6,-1
 136 463 l 2,7,8
 137 472 137 472 144 479 c 0,9,10
 152 486 152 486 164 486 c 2,11,-1
 354 487 l 1,12,-1
 384 681 l 2,13,14
 386 694 386 694 392 704 c 0,15,16
 396 711 396 711 406 711 c 2,17,-1
 408 711 l 2,18,19
 419 710 419 710 423 700 c 0,20,21
 427 693 427 693 427 685 c 0,22,23
 427 681 427 681 426 678 c 2,24,-1
 398 486 l 1,25,-1
 664 486 l 1,26,-1
 688 680 l 2,27,28
 689 696 689 696 694 704 c 0,29,30
 699 711 699 711 710 711 c 2,31,-1
 713 711 l 2,32,33
 726 710 726 710 730 702 c 0,34,35
 733 696 733 696 733 687 c 0,36,37
 733 682 733 682 732 676 c 2,38,-1
 709 487 l 1,39,-1
 853 486 l 2,40,41
 872 486 872 486 882 481 c 256,42,43
 892 476 892 476 892 460 c 0,44,45
 892 442 892 442 882 438 c 0,46,47
 871 434 871 434 852 434 c 2,48,-1
 699 434 l 1,49,-1
 662 168 l 1,50,-1
 854 168 l 2,51,52
 868 168 868 168 878 163 c 0,53,54
 889 158 889 158 892 143 c 0,55,56
 893 139 893 139 893 136 c 0,57,58
 893 125 893 125 883 120 c 0,59,60
 872 114 872 114 858 114 c 2,61,-1
 654 114 l 1,62,-1
 626 -82 l 2,63,64
 624 -94 624 -94 618 -104 c 256,65,66
 612 -114 612 -114 601 -114 c 256,67,68
 590 -114 590 -114 586 -106 c 0,69,70
 583 -101 583 -101 583 -92 c 0,71,72
 583 -87 583 -87 584 -82 c 2,73,-1
 610 114 l 1,74,-1
 344 114 l 1,75,-1
 316 -78 l 2,76,77
 314 -98 314 -98 306 -109 c 0,78,79
 302 -117 302 -117 293 -117 c 0,80,81
 290 -117 290 -117 287 -116 c 0,82,83
 274 -112 274 -112 274 -102 c 0,84,85
 274 -91 274 -91 276 -76 c 2,86,-1
 304 114 l 1,87,-1
 170 114 l 2,88,89
 155 114 155 114 147 122 c 0,90,91
 141 129 141 129 141 139 c 0,92,93
 141 143 141 143 142 148 c 0,94,95
 146 160 146 160 154 164 c 256,96,97
 162 168 162 168 174 168 c 2,98,-1
 312 168 l 1,0,-1
352 168 m 1,99,-1
 620 168 l 1,100,-1
 658 434 l 1,101,-1
 389 434 l 1,102,-1
 352 168 l 1,99,-1
EndSplineSet
EndChar
StartChar: dollar
Encoding: 36 36 7
Width: 499
Flags: W
LayerCount: 2
Back
Fore
SplineSet
233 -11 m 1,0,1
 225 -10 225 -10 219 -8 c 0,2,3
 213 -7 213 -7 191 1 c 0,4,5
 171 8 171 8 149 26 c 256,6,7
 127 44 127 44 111 63 c 0,8,9
 95 83 95 83 89 95 c 0,10,11
 83 106 83 106 77 120 c 0,12,13
 74 131 74 131 74 140 c 2,14,-1
 74 144 l 2,15,16
 75 154 75 154 83 156 c 2,17,-1
 86 156 l 2,18,19
 93 156 93 156 100 150 c 0,20,21
 105 146 105 146 116 127 c 256,22,23
 127 108 127 108 151 87 c 256,24,25
 175 66 175 66 191 58 c 256,26,27
 207 50 207 50 219 46 c 2,28,-1
 233 42 l 1,29,-1
 233 300 l 1,30,31
 229 301 229 301 203 312 c 0,32,33
 176 322 176 322 152 336 c 0,34,35
 128 349 128 349 108 370 c 256,36,37
 88 391 88 391 77 424 c 0,38,39
 72 439 72 439 72 455 c 0,40,41
 72 475 72 475 80 498 c 0,42,43
 93 538 93 538 119 564 c 0,44,45
 144 590 144 590 170 599 c 256,46,47
 196 608 196 608 219 610 c 2,48,-1
 233 610 l 1,49,-1
 233 662 l 2,50,51
 233 677 233 677 239 684 c 0,52,53
 245 690 245 690 254 690 c 256,54,55
 263 690 263 690 271 684 c 0,56,57
 278 678 278 678 278 662 c 2,58,-1
 278 608 l 1,59,60
 285 606 285 606 296 604 c 0,61,62
 307 601 307 601 327 592 c 0,63,64
 347 584 347 584 361 570 c 0,65,66
 373 560 373 560 378 560 c 2,67,-1
 379 560 l 2,68,69
 383 562 383 562 386 570 c 2,70,-1
 393 591 l 2,71,72
 400 603 400 603 410 603 c 2,73,-1
 411 603 l 2,74,75
 421 602 421 602 427 586 c 0,76,77
 430 579 430 579 430 568 c 0,78,79
 430 563 430 563 429 556 c 2,80,-1
 429 504 l 2,81,82
 430 494 430 494 430 485 c 0,83,84
 430 468 430 468 427 456 c 0,85,86
 423 438 423 438 416 436 c 0,87,88
 415 435 415 435 413 435 c 0,89,90
 407 435 407 435 397 446 c 0,91,92
 393 450 393 450 378 482 c 0,93,94
 363 516 363 516 335 534 c 256,95,96
 307 552 307 552 287 558 c 2,97,-1
 278 562 l 1,98,-1
 278 338 l 2,99,100
 281 336 281 336 287 334 c 0,101,102
 294 331 294 331 323 316 c 0,103,104
 353 302 353 302 382 280 c 256,105,106
 411 258 411 258 425 231 c 256,107,108
 439 204 439 204 442 165 c 2,109,-1
 442 151 l 2,110,111
 442 121 442 121 435 95 c 0,112,113
 425 62 425 62 407 38 c 0,114,115
 387 14 387 14 357 0 c 0,116,117
 325 -14 325 -14 289 -15 c 2,118,-1
 278 -16 l 1,119,-1
 278 -56 l 2,120,121
 278 -68 278 -68 272 -76 c 0,122,123
 267 -84 267 -84 255 -85 c 2,124,-1
 253 -85 l 2,125,126
 243 -85 243 -85 238 -78 c 256,127,128
 233 -71 233 -71 233 -56 c 2,129,-1
 233 -11 l 1,0,1
233 358 m 1,130,-1
 233 565 l 1,131,-1
 215 562 l 2,132,133
 204 560 204 560 182 548 c 0,134,135
 160 538 160 538 143 507 c 0,136,137
 132 485 132 485 132 464 c 0,138,139
 132 455 132 455 134 446 c 0,140,141
 141 416 141 416 160 400 c 256,142,143
 179 384 179 384 223 362 c 1,144,-1
 233 358 l 1,130,-1
278 281 m 1,145,-1
 278 35 l 1,146,147
 285 36 285 36 308 38 c 256,148,149
 331 40 331 40 353 64 c 256,150,151
 375 88 375 88 381 127 c 0,152,153
 384 143 384 143 384 157 c 0,154,155
 384 176 384 176 379 191 c 0,156,157
 370 218 370 218 346 240 c 0,158,159
 321 262 321 262 285 278 c 2,160,-1
 278 281 l 1,145,-1
EndSplineSet
EndChar
StartChar: percent
Encoding: 37 37 8
Width: 754
Flags: W
LayerCount: 2
Back
Fore
SplineSet
156 348 m 256,0,1
 167 348 167 348 178 354 c 0,2,3
 188 360 188 360 198 375 c 256,4,5
 208 390 208 390 212 413 c 256,6,7
 216 436 216 436 216 475 c 0,8,9
 216 527 216 527 212 569 c 0,10,11
 208 612 208 612 198 628 c 256,12,13
 188 644 188 644 178 649 c 256,14,15
 168 654 168 654 156 655 c 0,16,17
 142 655 142 655 130 648 c 0,18,19
 118 642 118 642 108 626 c 256,20,21
 98 610 98 610 94 585 c 256,22,23
 90 560 90 560 90 520 c 256,24,25
 90 480 90 480 92 454 c 0,26,27
 94 432 94 432 98 408 c 0,28,29
 104 386 104 386 112 372 c 256,30,31
 120 358 120 358 132 353 c 0,32,33
 145 348 145 348 156 348 c 256,0,1
482 114 m 2,34,-1
 482 130 l 2,35,36
 482 154 482 154 486 179 c 0,37,38
 494 212 494 212 508 240 c 0,39,40
 524 267 524 267 546 283 c 0,41,42
 568 298 568 298 600 298 c 0,43,44
 628 298 628 298 654 281 c 0,45,46
 678 264 678 264 692 235 c 0,47,48
 704 206 704 206 712 176 c 0,49,50
 718 147 718 147 718 115 c 0,51,52
 718 82 718 82 712 50 c 0,53,54
 706 22 706 22 692 -6 c 256,55,56
 678 -34 678 -34 651 -52 c 256,57,58
 624 -70 624 -70 596 -70 c 2,59,-1
 592 -70 l 2,60,61
 571 -70 571 -70 554 -60 c 0,62,63
 536 -50 536 -50 520 -30 c 0,64,65
 506 -10 506 -10 494 26 c 256,66,67
 482 62 482 62 482 114 c 2,34,-1
156 695 m 0,68,69
 172 694 172 694 194 686 c 0,70,71
 218 676 218 676 232 658 c 256,72,73
 246 640 246 640 254 616 c 256,74,75
 262 592 262 592 267 568 c 256,76,77
 272 544 272 544 272 507 c 2,78,-1
 272 495 l 2,79,80
 272 463 272 463 264 427 c 0,81,82
 260 399 260 399 252 383 c 0,83,84
 244 366 244 366 232 351 c 256,85,86
 220 336 220 336 199 322 c 256,87,88
 178 308 178 308 152 308 c 0,89,90
 128 308 128 308 108 319 c 0,91,92
 90 330 90 330 78 346 c 256,93,94
 66 362 66 362 57 384 c 256,95,96
 48 406 48 406 42 433 c 256,97,98
 36 460 36 460 36 506 c 256,99,100
 36 552 36 552 44 585 c 0,101,102
 48 608 48 608 64 636 c 0,103,104
 78 665 78 665 100 680 c 0,105,106
 124 695 124 695 156 695 c 0,68,69
596 695 m 2,107,-1
 196 -70 l 2,108,109
 186 -87 186 -87 175 -93 c 0,110,111
 170 -96 170 -96 166 -96 c 256,112,113
 162 -96 162 -96 159 -93 c 0,114,115
 154 -87 154 -87 154 -82 c 0,116,117
 154 -76 154 -76 158 -70 c 2,118,-1
 560 695 l 2,119,120
 568 708 568 708 574 715 c 0,121,122
 578 719 578 719 583 719 c 0,123,124
 586 719 586 719 589 718 c 0,125,126
 598 714 598 714 598 707 c 0,127,128
 599 705 599 705 599 703 c 0,129,130
 599 698 599 698 596 695 c 2,107,-1
596 -35 m 2,131,-1
 599 -35 l 2,132,133
 610 -35 610 -35 622 -28 c 0,134,135
 638 -21 638 -21 648 0 c 0,136,137
 658 22 658 22 660 50 c 0,138,139
 660 78 660 78 662 126 c 0,140,141
 662 174 662 174 656 208 c 0,142,143
 652 228 652 228 645 239 c 256,144,145
 638 250 638 250 626 258 c 0,146,147
 614 265 614 265 602 266 c 0,148,149
 590 266 590 266 577 259 c 256,150,151
 564 252 564 252 554 237 c 256,152,153
 544 222 544 222 540 193 c 0,154,155
 534 164 534 164 534 138 c 0,156,157
 533 130 533 130 533 121 c 0,158,159
 533 102 533 102 536 80 c 0,160,161
 538 42 538 42 542 21 c 256,162,163
 546 0 546 0 554 -13 c 0,164,165
 564 -26 564 -26 574 -30 c 0,166,167
 586 -35 586 -35 596 -35 c 2,131,-1
EndSplineSet
EndChar
StartChar: ampersand
Encoding: 38 38 9
Width: 777
Flags: W
LayerCount: 2
Back
Fore
SplineSet
380 118 m 1,0,-1
 330 188 l 2,1,2
 306 222 306 222 291 251 c 2,3,-1
 260 308 l 1,4,5
 214 283 214 283 190 266 c 0,6,7
 166 250 166 250 149 232 c 0,8,9
 132 213 132 213 122 192 c 0,10,11
 112 170 112 170 112 135 c 2,12,-1
 112 131 l 2,13,14
 112 99 112 99 128 76 c 0,15,16
 144 52 144 52 181 42 c 0,17,18
 200 37 200 37 220 37 c 256,19,20
 240 37 240 37 262 42 c 0,21,22
 306 54 306 54 330 76 c 2,23,-1
 380 118 l 1,0,-1
236 360 m 1,24,25
 216 410 216 410 207 444 c 256,26,27
 198 478 198 478 198 514 c 0,28,29
 198 566 198 566 220 605 c 0,30,31
 242 643 242 643 281 666 c 0,32,33
 320 688 320 688 365 688 c 0,34,35
 403 688 403 688 432 672 c 0,36,37
 461 655 461 655 476 627 c 0,38,39
 492 600 492 600 493 558 c 2,40,-1
 493 554 l 2,41,42
 493 514 493 514 476 476 c 0,43,44
 454 424 454 424 435 414 c 2,45,-1
 326 334 l 1,46,47
 346 299 346 299 364 267 c 0,48,49
 383 234 383 234 392 223 c 2,50,-1
 432 172 l 1,51,52
 455 198 455 198 466 212 c 0,53,54
 478 226 478 226 502 260 c 256,55,56
 526 294 526 294 538 316 c 0,57,58
 548 334 548 334 548 350 c 2,59,-1
 548 356 l 1,60,-1
 541 400 l 1,61,62
 545 410 545 410 560 417 c 0,63,64
 574 424 574 424 593 424 c 2,65,-1
 636 424 l 2,66,67
 654 424 654 424 664 418 c 0,68,69
 675 413 675 413 676 406 c 2,70,-1
 676 405 l 2,71,72
 676 397 676 397 656 386 c 0,73,74
 627 370 627 370 618 362 c 0,75,76
 610 355 610 355 602 342 c 0,77,78
 595 330 595 330 579 296 c 256,79,80
 563 262 563 262 540 220 c 0,81,82
 516 178 516 178 512 171 c 2,83,-1
 477 119 l 1,84,85
 513 83 513 83 536 66 c 0,86,87
 558 50 558 50 582 42 c 256,88,89
 606 34 606 34 632 34 c 2,90,-1
 637 34 l 2,91,92
 649 34 649 34 662 38 c 0,93,94
 680 44 680 44 696 64 c 0,95,96
 712 86 712 86 718 97 c 256,97,98
 724 108 724 108 731 112 c 0,99,100
 735 115 735 115 738 115 c 0,101,102
 739 115 739 115 740 114 c 0,103,104
 742 113 742 113 742 107 c 2,105,-1
 742 102 l 2,106,107
 739 84 739 84 726 57 c 0,108,109
 712 30 712 30 699 12 c 0,110,111
 685 -6 685 -6 659 -19 c 0,112,113
 632 -32 632 -32 597 -32 c 2,114,-1
 592 -32 l 2,115,116
 570 -32 570 -32 543 -24 c 0,117,118
 514 -14 514 -14 495 4 c 2,119,-1
 426 62 l 1,120,121
 390 36 390 36 358 16 c 0,122,123
 326 -5 326 -5 286 -20 c 0,124,125
 251 -32 251 -32 209 -32 c 2,126,-1
 197 -32 l 2,127,128
 150 -31 150 -31 114 -12 c 0,129,130
 78 8 78 8 58 43 c 256,131,132
 38 78 38 78 37 118 c 2,133,-1
 37 123 l 2,134,135
 37 160 37 160 50 194 c 0,136,137
 64 228 64 228 93 259 c 256,138,139
 122 290 122 290 148 304 c 2,140,-1
 236 360 l 1,24,25
304 392 m 1,141,142
 319 400 319 400 340 411 c 256,143,144
 361 422 361 422 381 444 c 256,145,146
 401 466 401 466 413 495 c 0,147,148
 426 524 426 524 426 560 c 0,149,150
 425 589 425 589 416 603 c 0,151,152
 406 618 406 618 393 625 c 0,153,154
 379 632 379 632 362 633 c 2,155,-1
 358 633 l 2,156,157
 338 633 338 633 321 624 c 0,158,159
 302 616 302 616 288 595 c 0,160,161
 274 575 274 575 268 546 c 0,162,163
 265 532 265 532 265 517 c 0,164,165
 265 500 265 500 269 482 c 0,166,167
 275 448 275 448 290 420 c 2,168,-1
 304 392 l 1,141,142
EndSplineSet
EndChar
StartChar: parenleft
Encoding: 40 40 11
Width: 292
Flags: W
LayerCount: 2
Back
Fore
SplineSet
211 -132 m 2,0,-1
 193 -110 l 2,1,2
 171 -83 171 -83 143 -41 c 256,3,4
 115 1 115 1 98 34 c 0,5,6
 81 68 81 68 67 110 c 256,7,8
 53 152 53 152 43 202 c 0,9,10
 35 252 35 252 35 318 c 0,11,12
 35 370 35 370 43 416 c 0,13,14
 51 460 51 460 75 520 c 256,15,16
 99 580 99 580 127 624 c 0,17,18
 155 666 155 666 178 696 c 2,19,-1
 211 738 l 1,20,-1
 227 758 l 2,21,22
 231 764 231 764 238 768 c 0,23,24
 243 772 243 772 247 772 c 2,25,-1
 249 772 l 2,26,27
 255 772 255 772 257 767 c 0,28,29
 258 766 258 766 258 764 c 0,30,31
 258 760 258 760 253 754 c 2,32,-1
 237 726 l 1,33,-1
 188 644 l 2,34,35
 173 618 173 618 157 582 c 256,36,37
 141 546 141 546 129 510 c 256,38,39
 117 474 117 474 109 430 c 256,40,41
 101 386 101 386 100 336 c 2,42,-1
 100 305 l 2,43,44
 100 275 100 275 101 250 c 0,45,46
 105 202 105 202 113 163 c 256,47,48
 121 124 121 124 137 81 c 0,49,50
 153 37 153 37 177 -11 c 0,51,52
 201 -60 201 -60 223 -96 c 2,53,-1
 242 -126 l 2,54,55
 255 -148 255 -148 255 -154 c 0,56,57
 255 -162 255 -162 251 -164 c 0,58,59
 249 -165 249 -165 247 -165 c 0,60,61
 243 -165 243 -165 239 -163 c 0,62,63
 233 -159 233 -159 211 -132 c 2,0,-1
EndSplineSet
EndChar
StartChar: parenright
Encoding: 41 41 12
Width: 292
Flags: W
LayerCount: 2
Back
Fore
SplineSet
53 -124 m 2,0,-1
 72 -94 l 2,1,2
 95 -55 95 -55 117 -10 c 0,3,4
 139 34 139 34 156 82 c 0,5,6
 174 128 174 128 182 165 c 256,7,8
 190 202 190 202 192 246 c 0,9,10
 194 279 194 279 194 309 c 2,11,-1
 194 328 l 2,12,13
 193 388 193 388 185 432 c 0,14,15
 177 474 177 474 166 512 c 0,16,17
 154 550 154 550 139 583 c 256,18,19
 124 616 124 616 100 658 c 0,20,21
 77 700 77 700 58 728 c 2,22,-1
 42 752 l 2,23,24
 37 760 37 760 37 765 c 2,25,-1
 37 768 l 2,26,27
 39 774 39 774 45 775 c 2,28,-1
 47 775 l 2,29,30
 53 775 53 775 58 770 c 2,31,-1
 66 762 l 1,32,-1
 84 740 l 2,33,34
 107 712 107 712 123 691 c 256,35,36
 139 670 139 670 171 617 c 0,37,38
 204 563 204 563 223 514 c 0,39,40
 242 466 242 466 251 418 c 256,41,42
 260 370 260 370 260 313 c 2,43,-1
 260 303 l 2,44,45
 260 251 260 251 250 198 c 0,46,47
 242 152 242 152 228 111 c 256,48,49
 214 70 214 70 197 36 c 0,50,51
 180 4 180 4 152 -39 c 256,52,53
 124 -82 124 -82 102 -108 c 2,54,-1
 83 -131 l 2,55,56
 60 -158 60 -158 55 -162 c 0,57,58
 52 -163 52 -163 49 -163 c 0,59,60
 47 -163 47 -163 44 -162 c 0,61,62
 39 -160 39 -160 39 -153 c 0,63,64
 40 -146 40 -146 53 -124 c 2,0,-1
EndSplineSet
EndChar
StartChar: asterisk
Encoding: 42 42 13
Width: 512
Flags: W
LayerCount: 2
Back
Fore
SplineSet
238 308 m 1,0,1
 183 326 183 326 147 333 c 256,2,3
 111 340 111 340 99 349 c 0,4,5
 86 358 86 358 80 369 c 0,6,7
 75 380 75 380 75 391 c 256,8,9
 75 402 75 402 79 410 c 256,10,11
 83 418 83 418 92 421 c 0,12,13
 101 425 101 425 111 425 c 0,14,15
 123 424 123 424 135 418 c 256,16,17
 147 412 147 412 165 396 c 2,18,-1
 203 360 l 1,19,-1
 248 320 l 1,20,21
 245 350 245 350 243 362 c 0,22,23
 240 375 240 375 228 412 c 0,24,25
 216 447 216 447 216 471 c 2,26,-1
 216 474 l 2,27,28
 216 492 216 492 222 503 c 256,29,30
 228 514 228 514 236 519 c 0,31,32
 245 524 245 524 257 524 c 0,33,34
 267 523 267 523 275 518 c 0,35,36
 283 514 283 514 290 502 c 256,37,38
 297 490 297 490 297 470 c 0,39,40
 297 456 297 456 286 418 c 256,41,42
 275 380 275 380 273 369 c 2,43,-1
 265 318 l 1,44,45
 304 353 304 353 323 372 c 2,46,-1
 353 402 l 2,47,48
 367 417 367 417 378 422 c 0,49,50
 388 426 388 426 399 426 c 0,51,52
 411 426 411 426 420 420 c 0,53,54
 430 414 430 414 435 406 c 0,55,56
 441 398 441 398 441 388 c 256,57,58
 441 378 441 378 433 367 c 256,59,60
 425 356 425 356 402 345 c 256,61,62
 379 334 379 334 348 326 c 2,63,-1
 270 305 l 1,64,65
 295 296 295 296 308 292 c 256,66,67
 321 288 321 288 351 279 c 0,68,69
 379 270 379 270 393 265 c 256,70,71
 407 260 407 260 417 252 c 0,72,73
 427 246 427 246 432 234 c 0,74,75
 435 228 435 228 435 221 c 0,76,77
 435 216 435 216 433 210 c 0,78,79
 429 196 429 196 417 189 c 0,80,81
 409 185 409 185 399 185 c 0,82,83
 394 185 394 185 387 186 c 0,84,85
 371 189 371 189 359 198 c 0,86,87
 349 207 349 207 333 224 c 0,88,89
 319 242 319 242 316 245 c 2,90,-1
 267 292 l 1,91,92
 271 247 271 247 277 225 c 2,93,-1
 287 182 l 2,94,95
 292 161 292 161 293 142 c 0,96,97
 293 123 293 123 290 112 c 0,98,99
 286 102 286 102 277 94 c 0,100,101
 269 87 269 87 258 86 c 0,102,103
 247 86 247 86 237 92 c 0,104,105
 226 98 226 98 221 107 c 0,106,107
 215 116 215 116 214 133 c 2,108,-1
 214 140 l 2,109,110
 214 153 214 153 217 165 c 0,111,112
 218 170 218 170 227 199 c 0,113,114
 237 227 237 227 241 250 c 2,115,-1
 251 297 l 1,116,117
 225 273 225 273 213 261 c 2,118,-1
 182 229 l 2,119,120
 166 213 166 213 154 204 c 0,121,122
 141 194 141 194 131 189 c 256,123,124
 121 184 121 184 110 184 c 256,125,126
 99 184 99 184 89 192 c 256,127,128
 79 200 79 200 76 217 c 0,129,130
 75 221 75 221 75 225 c 0,131,132
 75 237 75 237 83 246 c 0,133,134
 94 258 94 258 100 261 c 0,135,136
 106 265 106 265 154 282 c 2,137,-1
 238 308 l 1,0,1
EndSplineSet
EndChar
StartChar: plus
Encoding: 43 43 14
Width: 720
Flags: W
LayerCount: 2
Back
Fore
SplineSet
338 326 m 1,0,-1
 338 611 l 1,1,-1
 381 611 l 1,2,-1
 381 326 l 1,3,-1
 667 326 l 1,4,-1
 667 283 l 1,5,-1
 381 283 l 1,6,-1
 381 -2 l 1,7,-1
 338 -2 l 1,8,-1
 338 283 l 1,9,-1
 53 283 l 1,10,-1
 53 326 l 1,11,-1
 338 326 l 1,0,-1
EndSplineSet
EndChar
StartChar: comma
Encoding: 44 44 15
Width: 512
Flags: W
LayerCount: 2
Back
Fore
SplineSet
209 -158 m 1,0,-1
 209 -138 l 1,1,2
 217 -132 217 -132 228 -126 c 0,3,4
 239 -118 239 -118 255 -104 c 0,5,6
 272 -89 272 -89 280 -73 c 0,7,8
 289 -57 289 -57 291 -40 c 0,9,10
 292 -36 292 -36 292 -32 c 0,11,12
 292 -21 292 -21 287 -14 c 2,13,-1
 280 -1 l 1,14,15
 265 -8 265 -8 257 -11 c 256,16,17
 249 -14 249 -14 233 -15 c 2,18,-1
 230 -15 l 2,19,20
 217 -15 217 -15 204 -6 c 0,21,22
 195 0 195 0 189 12 c 0,23,24
 184 23 184 23 184 38 c 2,25,-1
 184 43 l 2,26,27
 185 57 185 57 191 70 c 0,28,29
 198 82 198 82 211 90 c 0,30,31
 223 97 223 97 239 98 c 2,32,-1
 247 98 l 2,33,34
 262 98 262 98 276 92 c 0,35,36
 293 84 293 84 305 69 c 256,37,38
 317 54 317 54 324 34 c 0,39,40
 331 15 331 15 331 -10 c 0,41,42
 331 -38 331 -38 322 -60 c 256,43,44
 313 -82 313 -82 296 -100 c 256,45,46
 279 -118 279 -118 265 -128 c 256,47,48
 251 -138 251 -138 235 -145 c 2,49,-1
 209 -158 l 1,0,-1
EndSplineSet
EndChar
StartChar: period
Encoding: 46 46 17
Width: 512
Flags: W
LayerCount: 2
Back
Fore
SplineSet
256 88 m 0,0,1
 270 88 270 88 284 80 c 0,2,3
 298 73 298 73 306 60 c 0,4,5
 312 46 312 46 312 30 c 0,6,7
 312 15 312 15 306 2 c 0,8,9
 298 -11 298 -11 284 -18 c 0,10,11
 271 -26 271 -26 256 -26 c 0,12,13
 240 -26 240 -26 226 -19 c 0,14,15
 214 -11 214 -11 206 2 c 0,16,17
 200 14 200 14 200 31 c 0,18,19
 200 47 200 47 206 60 c 0,20,21
 213 73 213 73 228 81 c 0,22,23
 241 88 241 88 256 88 c 0,0,1
EndSplineSet
EndChar
StartChar: slash
Encoding: 47 47 18
Width: 645
Flags: W
LayerCount: 2
Back
Fore
SplineSet
58 -68 m 1,0,-1
 566 695 l 2,1,2
 576 709 576 709 584 714 c 0,3,4
 588 716 588 716 593 716 c 256,5,6
 598 716 598 716 604 714 c 0,7,8
 612 711 612 711 612 707 c 0,9,10
 612 705 612 705 610 702 c 2,11,-1
 602 682 l 1,12,-1
 87 -89 l 2,13,14
 79 -99 79 -99 70 -103 c 0,15,16
 67 -105 67 -105 64 -105 c 0,17,18
 57 -105 57 -105 52 -98 c 0,19,20
 47 -93 47 -93 47 -88 c 0,21,22
 47 -84 47 -84 50 -80 c 2,23,-1
 58 -68 l 1,0,-1
EndSplineSet
EndChar
StartChar: zero
Encoding: 48 48 19
Width: 512
Flags: W
LayerCount: 2
Back
Fore
SplineSet
256 673 m 0,0,1
 295 673 295 673 342 634 c 0,2,3
 388 595 388 595 413 512 c 256,4,5
 438 429 438 429 438 347 c 256,6,7
 438 265 438 265 414 186 c 0,8,9
 390 108 390 108 346 66 c 0,10,11
 303 24 303 24 258 24 c 2,12,-1
 256 24 l 2,13,14
 210 24 210 24 166 66 c 256,15,16
 122 108 122 108 98 186 c 256,17,18
 74 264 74 264 74 348 c 0,19,20
 74 430 74 430 98 512 c 0,21,22
 123 594 123 594 170 634 c 0,23,24
 217 672 217 672 256 673 c 0,0,1
255 630 m 0,25,26
 231 629 231 629 198 596 c 0,27,28
 164 564 164 564 148 489 c 256,29,30
 132 414 132 414 131 348 c 0,31,32
 131 281 131 281 148 210 c 0,33,34
 163 142 163 142 194 106 c 0,35,36
 224 70 224 70 255 69 c 0,37,38
 285 69 285 69 316 107 c 0,39,40
 346 142 346 142 362 212 c 256,41,42
 378 282 378 282 378 350 c 0,43,44
 378 413 378 413 361 488 c 0,45,46
 345 564 345 564 312 597 c 0,47,48
 278 630 278 630 255 630 c 0,25,26
EndSplineSet
EndChar
StartChar: one
Encoding: 49 49 20
Width: 512
Flags: W
LayerCount: 2
Back
Fore
SplineSet
303 14 m 2,0,-1
 302 14 l 2,1,2
 298 14 298 14 287 26 c 0,3,4
 275 40 275 40 268 54 c 0,5,6
 260 68 260 68 259 76 c 0,7,8
 258 80 258 80 258 84 c 0,9,10
 258 89 258 89 259 95 c 2,11,-1
 269 138 l 2,12,13
 272 154 272 154 273 192 c 0,14,15
 275 230 275 230 275 251 c 256,16,17
 275 272 275 272 277 338 c 0,18,19
 277 410 277 410 276 457 c 2,20,-1
 276 487 l 2,21,22
 276 515 276 515 277 536 c 2,23,-1
 277 548 l 2,24,25
 277 569 277 569 271 571 c 0,26,27
 268 572 268 572 263 572 c 0,28,29
 257 572 257 572 248 570 c 2,30,-1
 217 558 l 2,31,32
 202 553 202 553 195 553 c 0,33,34
 190 553 190 553 189 556 c 0,35,36
 188 557 188 557 188 559 c 0,37,38
 188 565 188 565 196 577 c 0,39,40
 207 592 207 592 242 626 c 2,41,-1
 283 664 l 2,42,43
 291 670 291 670 303 678 c 0,44,45
 311 682 311 682 316 682 c 0,46,47
 319 682 319 682 321 681 c 0,48,49
 325 678 325 678 327 670 c 256,50,51
 329 662 329 662 329 633 c 2,52,-1
 329 592 l 1,53,-1
 327 526 l 1,54,-1
 327 482 l 1,55,-1
 326 333 l 1,56,-1
 327 272 l 1,57,-1
 327 176 l 2,58,59
 328 154 328 154 328 139 c 256,60,61
 328 124 328 124 327 116 c 0,62,63
 327 109 327 109 323 76 c 256,64,65
 319 43 319 43 313 29 c 0,66,67
 307 14 307 14 303 14 c 2,0,-1
EndSplineSet
EndChar
StartChar: two
Encoding: 50 50 21
Width: 512
Flags: W
LayerCount: 2
Back
Fore
SplineSet
139 90 m 0,0,1
 143 88 143 88 164 83 c 0,2,3
 173 81 173 81 188 81 c 0,4,5
 209 81 209 81 243 85 c 0,6,7
 301 92 301 92 337 98 c 0,8,9
 373 105 373 105 381 105 c 0,10,11
 399 104 399 104 415 98 c 0,12,13
 430 92 430 92 445 77 c 0,14,15
 459 64 459 64 459 56 c 2,16,-1
 459 54 l 2,17,18
 456 47 456 47 432 44 c 0,19,20
 425 43 425 43 412 43 c 0,21,22
 400 43 400 43 383 44 c 0,23,24
 372 45 372 45 357 45 c 0,25,26
 329 45 329 45 289 42 c 0,27,28
 229 38 229 38 191 37 c 256,29,30
 153 36 153 36 128 28 c 0,31,32
 109 24 109 24 98 24 c 2,33,-1
 91 24 l 2,34,35
 79 26 79 26 66 44 c 0,36,37
 53 64 53 64 53 74 c 0,38,39
 53 79 53 79 57 86 c 2,40,-1
 75 108 l 2,41,42
 79 116 79 116 83 153 c 0,43,44
 86 190 86 190 97 219 c 0,45,46
 107 248 107 248 121 268 c 256,47,48
 135 288 135 288 153 303 c 256,49,50
 171 318 171 318 206 334 c 2,51,-1
 267 364 l 2,52,53
 309 386 309 386 327 408 c 0,54,55
 345 431 345 431 353 467 c 0,56,57
 360 495 360 495 360 521 c 0,58,59
 360 530 360 530 359 538 c 0,60,61
 353 580 353 580 333 604 c 256,62,63
 313 628 313 628 286 638 c 0,64,65
 270 643 270 643 253 643 c 0,66,67
 242 643 242 643 230 641 c 0,68,69
 188 632 188 632 169 608 c 0,70,71
 151 584 151 584 145 561 c 256,72,73
 139 538 139 538 139 520 c 2,74,-1
 145 462 l 2,75,76
 144 443 144 443 138 440 c 2,77,-1
 136 440 l 2,78,79
 130 440 130 440 118 450 c 256,80,81
 106 460 106 460 101 474 c 0,82,83
 96 486 96 486 93 513 c 0,84,85
 91 524 91 524 91 535 c 0,86,87
 91 551 91 551 95 568 c 0,88,89
 101 600 101 600 121 626 c 0,90,91
 139 652 139 652 168 670 c 0,92,93
 196 686 196 686 230 692 c 0,94,95
 241 693 241 693 252 693 c 0,96,97
 274 693 274 693 298 688 c 0,98,99
 333 680 333 680 358 660 c 0,100,101
 382 639 382 639 401 605 c 0,102,103
 419 570 419 570 421 529 c 2,104,-1
 421 522 l 2,105,106
 421 485 421 485 412 451 c 0,107,108
 399 407 399 407 379 382 c 256,109,110
 359 357 359 357 331 340 c 0,111,112
 303 324 303 324 269 309 c 256,113,114
 235 294 235 294 217 285 c 256,115,116
 199 276 199 276 179 252 c 0,117,118
 158 229 158 229 149 207 c 0,119,120
 141 186 141 186 133 153 c 0,121,122
 128 133 128 133 128 120 c 0,123,124
 128 112 128 112 130 107 c 0,125,126
 135 94 135 94 139 90 c 0,0,1
EndSplineSet
EndChar
StartChar: three
Encoding: 51 51 22
Width: 512
Flags: W
LayerCount: 2
Back
Fore
SplineSet
333 626 m 1,0,-1
 293 620 l 1,1,-1
 242 613 l 2,2,3
 204 608 204 608 179 599 c 0,4,5
 159 592 159 592 150 592 c 2,6,-1
 147 592 l 2,7,8
 137 592 137 592 119 603 c 0,9,10
 101 613 101 613 91 624 c 0,11,12
 83 634 83 634 83 640 c 2,13,-1
 83 642 l 2,14,15
 84 648 84 648 114 649 c 0,16,17
 143 649 143 649 169 652 c 2,18,-1
 256 662 l 2,19,20
 305 664 305 664 329 678 c 0,21,22
 355 690 355 690 360 690 c 0,23,24
 369 690 369 690 380 682 c 256,25,26
 391 674 391 674 406 656 c 256,27,28
 421 638 421 638 421 631 c 2,29,-1
 421 630 l 2,30,31
 419 625 419 625 398 614 c 0,32,33
 377 602 377 602 364 584 c 2,34,-1
 324 522 l 1,35,-1
 273 442 l 1,36,37
 311 438 311 438 333 430 c 0,38,39
 354 423 354 423 375 404 c 0,40,41
 397 385 397 385 408 365 c 256,42,43
 419 345 419 345 425 317 c 256,44,45
 431 289 431 289 433 257 c 2,46,-1
 433 251 l 2,47,48
 433 221 433 221 425 188 c 0,49,50
 419 158 419 158 404 128 c 0,51,52
 389 97 389 97 367 75 c 256,53,54
 345 53 345 53 319 42 c 0,55,56
 295 31 295 31 262 31 c 2,57,-1
 256 31 l 2,58,59
 224 31 224 31 195 41 c 0,60,61
 167 51 167 51 147 70 c 0,62,63
 127 88 127 88 115 112 c 256,64,65
 103 136 103 136 100 156 c 256,66,67
 97 176 97 176 97 210 c 256,68,69
 97 244 97 244 104 260 c 0,70,71
 111 274 111 274 119 275 c 0,72,73
 127 275 127 275 133 260 c 0,74,75
 136 254 136 254 136 240 c 0,76,77
 136 233 136 233 135 224 c 2,78,-1
 135 215 l 2,79,80
 135 191 135 191 143 166 c 0,81,82
 153 130 153 130 175 112 c 0,83,84
 196 94 196 94 229 87 c 0,85,86
 246 84 246 84 260 84 c 0,87,88
 280 84 280 84 295 90 c 0,89,90
 323 102 323 102 341 128 c 256,91,92
 359 154 359 154 367 181 c 256,93,94
 375 208 375 208 375 256 c 0,95,96
 373 300 373 300 363 327 c 256,97,98
 353 354 353 354 329 373 c 0,99,100
 306 392 306 392 285 396 c 0,101,102
 278 397 278 397 272 397 c 0,103,104
 259 397 259 397 249 391 c 2,105,-1
 229 379 l 1,106,-1
 225 379 l 2,107,108
 214 379 214 379 201 392 c 0,109,110
 187 408 187 408 183 427 c 0,111,112
 180 440 180 440 180 447 c 0,113,114
 180 450 180 450 181 452 c 0,115,116
 183 453 183 453 205 459 c 0,117,118
 227 466 227 466 244 490 c 2,119,-1
 333 626 l 1,0,-1
EndSplineSet
EndChar
StartChar: four
Encoding: 52 52 23
Width: 512
Flags: W
LayerCount: 2
Back
Fore
SplineSet
293 200 m 1,0,1
 281 199 281 199 271 199 c 0,2,3
 261 200 261 200 258 200 c 0,4,5
 250 199 250 199 196 191 c 2,6,-1
 146 184 l 2,7,8
 129 181 129 181 103 175 c 0,9,10
 88 171 88 171 78 171 c 0,11,12
 71 171 71 171 66 173 c 0,13,14
 55 178 55 178 51 202 c 0,15,16
 48 221 48 221 48 230 c 2,17,-1
 48 234 l 2,18,19
 48 239 48 239 50 242 c 0,20,21
 52 246 52 246 68 258 c 0,22,23
 84 271 84 271 93 291 c 0,24,25
 103 312 103 312 140 382 c 2,26,-1
 176 455 l 1,27,-1
 230 562 l 1,28,-1
 268 636 l 2,29,30
 278 656 278 656 293 670 c 0,31,32
 306 684 306 684 316 684 c 2,33,-1
 317 684 l 2,34,35
 329 682 329 682 334 671 c 0,36,37
 340 659 340 659 340 648 c 0,38,39
 340 636 340 636 342 592 c 0,40,41
 343 580 343 580 343 549 c 256,42,43
 343 518 343 518 342 469 c 2,44,-1
 343 316 l 1,45,-1
 343 252 l 1,46,47
 367 257 367 257 383 262 c 0,48,49
 397 266 397 266 405 266 c 2,50,-1
 408 266 l 2,51,52
 416 264 416 264 431 254 c 256,53,54
 446 244 446 244 457 227 c 0,55,56
 466 212 466 212 466 207 c 2,57,-1
 466 206 l 2,58,59
 464 200 464 200 448 200 c 2,60,-1
 440 200 l 2,61,62
 425 201 425 201 406 201 c 2,63,-1
 386 201 l 1,64,-1
 344 200 l 1,65,66
 343 176 343 176 343 150 c 0,67,68
 344 124 344 124 344 114 c 0,69,70
 343 94 343 94 341 68 c 256,71,72
 339 42 339 42 334 26 c 0,73,74
 329 8 329 8 323 7 c 2,75,-1
 322 7 l 2,76,77
 315 7 315 7 304 26 c 0,78,79
 292 40 292 40 290 47 c 0,80,81
 286 54 286 54 282 68 c 0,82,83
 276 82 276 82 276 87 c 2,84,-1
 276 88 l 2,85,86
 276 96 276 96 286 126 c 0,87,88
 289 138 289 138 292 191 c 2,89,-1
 293 200 l 1,0,1
293 246 m 1,90,91
 292 286 292 286 292 314 c 2,92,-1
 292 338 l 1,93,-1
 294 476 l 1,94,-1
 294 491 l 2,95,96
 294 521 294 521 297 551 c 0,97,98
 300 572 300 572 300 580 c 0,99,100
 300 587 300 587 298 587 c 0,101,102
 294 586 294 586 280 561 c 256,103,104
 266 536 266 536 240 476 c 0,105,106
 214 415 214 415 179 354 c 0,107,108
 144 294 144 294 135 275 c 256,109,110
 126 256 126 256 120 247 c 0,111,112
 117 241 117 241 117 237 c 0,113,114
 117 235 117 235 118 233 c 0,115,116
 122 229 122 229 131 228 c 0,117,118
 135 227 135 227 140 227 c 0,119,120
 150 227 150 227 167 230 c 0,121,122
 192 234 192 234 242 240 c 2,123,-1
 293 246 l 1,90,91
EndSplineSet
EndChar
StartChar: five
Encoding: 53 53 24
Width: 512
Flags: W
LayerCount: 2
Back
Fore
SplineSet
163 416 m 1,0,1
 192 430 192 430 212 438 c 256,2,3
 232 446 232 446 259 450 c 0,4,5
 273 452 273 452 286 452 c 256,6,7
 299 452 299 452 312 450 c 0,8,9
 348 443 348 443 374 423 c 256,10,11
 400 403 400 403 414 380 c 256,12,13
 428 357 428 357 436 321 c 256,14,15
 444 285 444 285 446 244 c 2,16,-1
 446 233 l 2,17,18
 446 197 446 197 434 159 c 0,19,20
 422 120 422 120 399 90 c 256,21,22
 376 60 376 60 348 48 c 0,23,24
 319 34 319 34 288 31 c 0,25,26
 273 29 273 29 257 29 c 0,27,28
 233 29 233 29 209 34 c 0,29,30
 170 41 170 41 145 58 c 256,31,32
 120 75 120 75 103 99 c 256,33,34
 86 123 86 123 81 141 c 0,35,36
 76 160 76 160 73 188 c 0,37,38
 72 199 72 199 72 207 c 0,39,40
 72 221 72 221 75 228 c 0,41,42
 80 240 80 240 89 241 c 2,43,-1
 90 241 l 2,44,45
 98 241 98 241 106 227 c 0,46,47
 110 220 110 220 116 190 c 0,48,49
 123 160 123 160 136 139 c 0,50,51
 150 118 150 118 166 106 c 0,52,53
 184 94 184 94 212 87 c 0,54,55
 234 82 234 82 256 82 c 2,56,-1
 269 82 l 2,57,58
 304 84 304 84 329 100 c 256,59,60
 354 116 354 116 372 154 c 256,61,62
 390 192 390 192 392 238 c 2,63,-1
 392 249 l 2,64,65
 392 289 392 289 380 324 c 0,66,67
 366 364 366 364 342 381 c 256,68,69
 318 398 318 398 276 398 c 2,70,-1
 268 398 l 2,71,72
 228 398 228 398 208 388 c 2,73,-1
 160 367 l 2,74,75
 155 362 155 362 148 354 c 0,76,77
 142 346 142 346 135 345 c 2,78,-1
 133 345 l 2,79,80
 127 345 127 345 116 352 c 0,81,82
 108 358 108 358 98 369 c 256,83,84
 88 380 88 380 87 386 c 0,85,86
 87 392 87 392 95 403 c 0,87,88
 104 416 104 416 108 424 c 0,89,90
 112 433 112 433 114 456 c 0,91,92
 116 480 116 480 119 520 c 0,93,94
 122 561 122 561 123 584 c 0,95,96
 124 606 124 606 124 621 c 0,97,98
 122 638 122 638 120 644 c 256,99,100
 118 650 118 650 110 669 c 0,101,102
 105 680 105 680 105 686 c 0,103,104
 105 690 105 690 108 692 c 0,105,106
 112 696 112 696 120 696 c 0,107,108
 126 696 126 696 138 690 c 0,109,110
 149 684 149 684 164 674 c 0,111,112
 178 666 178 666 179 662 c 2,113,-1
 186 635 l 1,114,115
 206 636 206 636 217 638 c 2,116,-1
 265 646 l 2,117,118
 300 652 300 652 312 656 c 2,119,-1
 362 678 l 1,120,-1
 365 678 l 2,121,122
 374 678 374 678 387 673 c 0,123,124
 402 667 402 667 407 658 c 0,125,126
 412 648 412 648 412 643 c 0,127,128
 410 633 410 633 388 627 c 0,129,130
 367 620 367 620 334 612 c 2,131,-1
 282 599 l 2,132,133
 262 593 262 593 247 590 c 0,134,135
 239 588 239 588 231 588 c 0,136,137
 225 588 225 588 220 589 c 0,138,139
 208 590 208 590 200 596 c 2,140,-1
 178 613 l 2,141,142
 174 612 174 612 174 593 c 256,143,144
 174 574 174 574 170 546 c 0,145,146
 167 517 167 517 164 429 c 2,147,-1
 163 416 l 1,0,1
EndSplineSet
EndChar
StartChar: six
Encoding: 54 54 25
Width: 512
Flags: W
LayerCount: 2
Back
Fore
SplineSet
133 349 m 1,0,1
 155 377 155 377 172 396 c 0,2,3
 189 414 189 414 215 426 c 0,4,5
 235 436 235 436 262 436 c 0,6,7
 271 436 271 436 280 435 c 0,8,9
 310 432 310 432 338 419 c 0,10,11
 367 405 367 405 389 381 c 256,12,13
 411 357 411 357 424 322 c 256,14,15
 437 287 437 287 439 252 c 2,16,-1
 439 243 l 2,17,18
 439 212 439 212 433 180 c 0,19,20
 425 142 425 142 413 115 c 0,21,22
 400 87 400 87 376 66 c 0,23,24
 351 44 351 44 313 33 c 0,25,26
 295 28 295 28 276 28 c 0,27,28
 256 28 256 28 235 34 c 0,29,30
 204 42 204 42 180 61 c 0,31,32
 156 81 156 81 140 104 c 256,33,34
 124 127 124 127 110 166 c 0,35,36
 97 205 97 205 90 260 c 0,37,38
 86 295 86 295 86 337 c 0,39,40
 86 361 86 361 87 387 c 0,41,42
 91 448 91 448 102 497 c 256,43,44
 113 546 113 546 131 583 c 0,45,46
 149 621 149 621 173 641 c 0,47,48
 199 661 199 661 227 670 c 0,49,50
 249 676 249 676 270 676 c 0,51,52
 278 676 278 676 286 675 c 0,53,54
 315 671 315 671 340 656 c 256,55,56
 365 641 365 641 382 617 c 256,57,58
 399 593 399 593 401 563 c 0,59,60
 402 556 402 556 402 549 c 0,61,62
 402 528 402 528 397 511 c 0,63,64
 393 497 393 497 382 487 c 0,65,66
 374 481 374 481 368 481 c 2,67,-1
 365 481 l 2,68,69
 361 483 361 483 361 501 c 2,70,-1
 361 509 l 2,71,72
 361 535 361 535 356 554 c 0,73,74
 349 576 349 576 335 594 c 0,75,76
 321 613 321 613 295 621 c 0,77,78
 284 625 284 625 272 625 c 0,79,80
 255 625 255 625 237 618 c 0,81,82
 208 607 208 607 188 579 c 256,83,84
 168 551 168 551 155 506 c 0,85,86
 142 460 142 460 139 406 c 256,87,88
 136 352 136 352 133 349 c 1,0,1
159 239 m 2,89,90
 159 204 159 204 168 171 c 0,91,92
 176 137 176 137 194 113 c 0,93,94
 211 90 211 90 242 78 c 0,95,96
 259 72 259 72 275 72 c 0,97,98
 289 72 289 72 301 76 c 0,99,100
 334 86 334 86 349 110 c 0,101,102
 364 135 364 135 372 168 c 256,103,104
 380 201 380 201 380 235 c 2,105,-1
 380 242 l 2,106,107
 380 272 380 272 373 294 c 0,108,109
 365 325 365 325 344 350 c 0,110,111
 323 374 323 374 297 384 c 0,112,113
 285 389 285 389 272 389 c 0,114,115
 257 389 257 389 241 383 c 0,116,117
 219 376 219 376 199 356 c 0,118,119
 177 336 177 336 167 308 c 0,120,121
 159 285 159 285 159 252 c 2,122,-1
 159 239 l 2,89,90
EndSplineSet
EndChar
StartChar: seven
Encoding: 55 55 26
Width: 512
Flags: W
LayerCount: 2
Back
Fore
SplineSet
448 618 m 1,0,-1
 427 596 l 2,1,2
 409 576 409 576 393 554 c 256,3,4
 377 532 377 532 361 505 c 256,5,6
 345 478 345 478 326 442 c 256,7,8
 307 406 307 406 291 372 c 0,9,10
 276 338 276 338 264 299 c 0,11,12
 252 261 252 261 246 226 c 0,13,14
 241 190 241 190 238 152 c 0,15,16
 235 115 235 115 235 86 c 0,17,18
 235 58 235 58 231 43 c 256,19,20
 227 28 227 28 221 26 c 2,21,-1
 220 26 l 2,22,23
 213 26 213 26 200 41 c 0,24,25
 181 64 181 64 172 89 c 256,26,27
 163 114 163 114 163 126 c 0,28,29
 163 135 163 135 173 158 c 0,30,31
 182 180 182 180 185 191 c 256,32,33
 188 202 188 202 197 249 c 0,34,35
 205 296 205 296 216 328 c 0,36,37
 227 362 227 362 245 402 c 256,38,39
 263 442 263 442 278 471 c 256,40,41
 293 500 293 500 311 527 c 0,42,43
 329 555 329 555 339 572 c 0,44,45
 346 583 346 583 346 590 c 0,46,47
 346 594 346 594 344 596 c 0,48,49
 340 602 340 602 321 602 c 2,50,-1
 311 602 l 2,51,52
 294 600 294 600 262 594 c 0,53,54
 229 588 229 588 198 585 c 0,55,56
 166 582 166 582 144 577 c 0,57,58
 126 572 126 572 118 572 c 2,59,-1
 115 572 l 2,60,61
 103 574 103 574 93 584 c 256,62,63
 83 594 83 594 73 608 c 256,64,65
 63 622 63 622 63 630 c 0,66,67
 63 636 63 636 64 638 c 0,68,69
 66 640 66 640 69 642 c 0,70,71
 73 642 73 642 83 640 c 0,72,73
 92 638 92 638 113 638 c 2,74,-1
 147 635 l 1,75,-1
 155 635 l 2,76,77
 172 635 172 635 195 638 c 2,78,-1
 277 647 l 2,79,80
 321 650 321 650 348 664 c 0,81,82
 376 678 376 678 381 678 c 0,83,84
 390 678 390 678 409 664 c 0,85,86
 427 650 427 650 438 637 c 0,87,88
 448 624 448 624 448 619 c 2,89,-1
 448 618 l 1,0,-1
EndSplineSet
EndChar
StartChar: eight
Encoding: 56 56 27
Width: 512
Flags: W
LayerCount: 2
Back
Fore
SplineSet
327 394 m 1,0,1
 333 391 333 391 338 388 c 0,2,3
 343 386 343 386 366 372 c 0,4,5
 390 358 390 358 415 312 c 0,6,7
 440 267 440 267 440 216 c 2,8,-1
 440 212 l 2,9,10
 440 163 440 163 415 120 c 0,11,12
 391 76 391 76 347 50 c 0,13,14
 305 24 305 24 255 24 c 0,15,16
 206 24 206 24 163 50 c 256,17,18
 120 76 120 76 95 120 c 0,19,20
 71 164 71 164 71 216 c 256,21,22
 71 268 71 268 97 315 c 256,23,24
 123 362 123 362 163 383 c 2,25,-1
 180 392 l 1,26,27
 173 396 173 396 157 406 c 256,28,29
 141 416 141 416 121 450 c 0,30,31
 103 482 103 482 103 521 c 2,32,-1
 103 525 l 2,33,34
 103 565 103 565 123 600 c 0,35,36
 143 636 143 636 177 656 c 256,37,38
 211 676 211 676 252 676 c 256,39,40
 293 676 293 676 327 656 c 256,41,42
 361 636 361 636 381 600 c 0,43,44
 401 565 401 565 401 525 c 0,45,46
 401 484 401 484 381 449 c 0,47,48
 362 414 362 414 335 399 c 2,49,-1
 327 394 l 1,0,1
252 624 m 0,50,51
 229 624 229 624 207 612 c 0,52,53
 183 599 183 599 171 576 c 0,54,55
 158 554 158 554 158 529 c 2,56,-1
 158 526 l 2,57,58
 158 500 158 500 171 477 c 0,59,60
 183 454 183 454 205 441 c 256,61,62
 227 428 227 428 252 428 c 256,63,64
 277 428 277 428 299 441 c 256,65,66
 321 454 321 454 333 477 c 256,67,68
 345 500 345 500 346 526 c 0,69,70
 346 552 346 552 333 576 c 0,71,72
 320 599 320 599 297 612 c 0,73,74
 274 624 274 624 252 624 c 0,50,51
257 366 m 256,75,76
 226 366 226 366 195 348 c 0,77,78
 163 330 163 330 146 296 c 256,79,80
 129 262 129 262 129 224 c 256,81,82
 129 186 129 186 146 151 c 256,83,84
 163 116 163 116 193 96 c 0,85,86
 223 77 223 77 257 77 c 2,87,-1
 260 77 l 2,88,89
 292 77 292 77 321 96 c 0,90,91
 349 116 349 116 367 151 c 256,92,93
 385 186 385 186 385 225 c 0,94,95
 385 262 385 262 367 296 c 256,96,97
 349 330 349 330 319 348 c 0,98,99
 288 366 288 366 257 366 c 256,75,76
EndSplineSet
EndChar
StartChar: nine
Encoding: 57 57 28
Width: 512
Flags: W
LayerCount: 2
Back
Fore
SplineSet
439 384 m 1,0,1
 438 330 438 330 437 296 c 0,2,3
 436 263 436 263 430 234 c 0,4,5
 425 204 425 204 414 170 c 0,6,7
 404 136 404 136 389 112 c 256,8,9
 374 88 374 88 350 66 c 0,10,11
 325 44 325 44 297 34 c 0,12,13
 270 24 270 24 248 24 c 0,14,15
 224 24 224 24 198 33 c 256,16,17
 172 42 172 42 152 59 c 256,18,19
 132 76 132 76 123 94 c 256,20,21
 114 112 114 112 106 141 c 0,22,23
 101 160 101 160 101 176 c 0,24,25
 101 183 101 183 102 190 c 0,26,27
 108 209 108 209 118 209 c 2,28,-1
 119 209 l 2,29,30
 125 208 125 208 132 198 c 0,31,32
 140 187 140 187 148 158 c 0,33,34
 157 128 157 128 171 113 c 0,35,36
 186 97 186 97 208 88 c 0,37,38
 228 81 228 81 246 81 c 2,39,-1
 254 81 l 2,40,41
 283 83 283 83 308 102 c 0,42,43
 333 120 333 120 347 147 c 0,44,45
 360 173 360 173 369 215 c 0,46,47
 378 258 378 258 379 279 c 2,48,-1
 382 322 l 1,49,50
 346 280 346 280 321 266 c 0,51,52
 297 254 297 254 260 251 c 0,53,54
 251 250 251 250 242 250 c 0,55,56
 227 250 227 250 213 252 c 0,57,58
 190 256 190 256 164 269 c 0,59,60
 140 282 140 282 120 308 c 0,61,62
 101 334 101 334 92 360 c 256,63,64
 83 386 83 386 81 420 c 0,65,66
 80 438 80 438 80 454 c 256,67,68
 80 470 80 470 81 485 c 0,69,70
 86 544 86 544 109 588 c 256,71,72
 132 632 132 632 164 653 c 256,73,74
 196 674 196 674 236 678 c 1,75,-1
 245 678 l 2,76,77
 286 678 286 678 317 662 c 0,78,79
 352 644 352 644 374 618 c 0,80,81
 396 590 396 590 410 554 c 0,82,83
 423 518 423 518 428 480 c 0,84,85
 434 442 434 442 439 384 c 1,0,1
140 396 m 0,86,87
 148 358 148 358 169 336 c 0,88,89
 190 313 190 313 231 304 c 0,90,91
 243 301 243 301 254 301 c 0,92,93
 282 301 282 301 308 317 c 0,94,95
 331 330 331 330 348 358 c 0,96,97
 364 386 364 386 370 422 c 0,98,99
 372 433 372 433 372 447 c 0,100,101
 372 475 372 475 363 512 c 0,102,103
 351 558 351 558 332 582 c 0,104,105
 312 607 312 607 283 620 c 0,106,107
 263 629 263 629 243 629 c 0,108,109
 234 629 234 629 225 627 c 0,110,111
 200 621 200 621 179 600 c 0,112,113
 159 580 159 580 147 542 c 0,114,115
 136 504 136 504 136 460 c 256,116,117
 136 416 136 416 140 396 c 0,86,87
EndSplineSet
EndChar
StartChar: colon
Encoding: 58 58 29
Width: 511
Flags: W
LayerCount: 2
Back
Fore
SplineSet
254 44 m 0,0,1
 268 44 268 44 282 36 c 0,2,3
 296 29 296 29 304 15 c 256,4,5
 312 1 312 1 312 -14 c 0,6,7
 312 -28 312 -28 304 -42 c 0,8,9
 296 -54 296 -54 284 -62 c 256,10,11
 272 -70 272 -70 256 -70 c 0,12,13
 239 -70 239 -70 226 -62 c 256,14,15
 213 -54 213 -54 206 -41 c 0,16,17
 198 -28 198 -28 198 -15 c 256,18,19
 198 -2 198 -2 204 10 c 0,20,21
 208 20 208 20 214 28 c 0,22,23
 221 36 221 36 232 40 c 0,24,25
 244 44 244 44 254 44 c 0,0,1
254 304 m 0,26,27
 269 303 269 303 282 296 c 0,28,29
 296 288 296 288 304 274 c 256,30,31
 312 260 312 260 312 245 c 256,32,33
 312 230 312 230 306 217 c 0,34,35
 298 204 298 204 284 196 c 0,36,37
 274 190 274 190 260 190 c 2,38,-1
 256 190 l 2,39,40
 242 190 242 190 228 197 c 0,41,42
 215 204 215 204 208 217 c 0,43,44
 202 229 202 229 200 242 c 0,45,46
 200 254 200 254 204 262 c 0,47,48
 205 276 205 276 214 285 c 0,49,50
 222 294 222 294 232 299 c 0,51,52
 244 304 244 304 254 304 c 0,26,27
EndSplineSet
EndChar
StartChar: semicolon
Encoding: 59 59 30
Width: 512
Flags: W
LayerCount: 2
Back
Fore
SplineSet
213 -156 m 1,0,-1
 205 -139 l 1,1,2
 215 -134 215 -134 226 -127 c 0,3,4
 237 -121 237 -121 250 -109 c 0,5,6
 263 -98 263 -98 274 -76 c 0,7,8
 283 -57 283 -57 283 -47 c 2,9,-1
 283 -43 l 1,10,-1
 279 -11 l 1,11,12
 267 -18 267 -18 259 -21 c 0,13,14
 250 -24 250 -24 233 -24 c 0,15,16
 215 -24 215 -24 202 -8 c 0,17,18
 189 9 189 9 189 28 c 0,19,20
 189 46 189 46 197 60 c 0,21,22
 203 70 203 70 218 79 c 0,23,24
 232 87 232 87 247 87 c 2,25,-1
 250 87 l 2,26,27
 275 86 275 86 292 69 c 256,28,29
 309 52 309 52 316 32 c 0,30,31
 323 10 323 10 323 -16 c 0,32,33
 321 -44 321 -44 314 -65 c 0,34,35
 306 -87 306 -87 293 -102 c 0,36,37
 281 -116 281 -116 263 -129 c 0,38,39
 246 -142 246 -142 237 -146 c 2,40,-1
 213 -156 l 1,0,-1
250 304 m 0,41,42
 263 304 263 304 277 297 c 256,43,44
 291 290 291 290 299 276 c 256,45,46
 307 262 307 262 307 247 c 256,47,48
 307 232 307 232 299 218 c 256,49,50
 291 204 291 204 278 197 c 256,51,52
 265 190 265 190 250 190 c 2,53,-1
 246 190 l 2,54,55
 232 190 232 190 221 197 c 0,56,57
 207 204 207 204 201 218 c 0,58,59
 193 232 193 232 193 247 c 256,60,61
 193 262 193 262 201 276 c 0,62,63
 208 289 208 289 222 297 c 0,64,65
 235 304 235 304 250 304 c 0,41,42
EndSplineSet
EndChar
StartChar: less
Encoding: 60 60 31
Width: 781
Flags: W
LayerCount: 2
Back
Fore
SplineSet
53 330 m 1,0,-1
 728 643 l 1,1,-1
 728 592 l 1,2,-1
 107 305 l 1,3,-1
 728 18 l 1,4,-1
 728 -30 l 1,5,-1
 53 276 l 1,6,-1
 53 330 l 1,0,-1
EndSplineSet
EndChar
StartChar: equal
Encoding: 61 61 32
Width: 724
Flags: W
LayerCount: 2
Back
Fore
SplineSet
55 238 m 1,0,-1
 669 238 l 1,1,-1
 669 196 l 1,2,-1
 55 196 l 1,3,-1
 55 238 l 1,0,-1
55 419 m 1,4,-1
 669 419 l 1,5,-1
 669 376 l 1,6,-1
 55 376 l 1,7,-1
 55 419 l 1,4,-1
EndSplineSet
EndChar
StartChar: greater
Encoding: 62 62 33
Width: 789
Flags: W
LayerCount: 2
Back
Fore
SplineSet
732 330 m 1,0,-1
 732 276 l 1,1,-1
 57 -32 l 1,2,-1
 57 18 l 1,3,-1
 677 304 l 1,4,-1
 57 590 l 1,5,-1
 57 642 l 1,6,-1
 732 330 l 1,0,-1
EndSplineSet
EndChar
StartChar: question
Encoding: 63 63 34
Width: 512
Flags: W
LayerCount: 2
Back
Fore
SplineSet
254 36 m 2,0,1
 248 36 248 36 244 51 c 0,2,3
 240 60 240 60 240 74 c 0,4,5
 240 84 240 84 242 96 c 2,6,-1
 246 137 l 2,7,8
 248 152 248 152 256 175 c 256,9,10
 264 198 264 198 273 219 c 0,11,12
 282 239 282 239 294 260 c 2,13,-1
 322 303 l 2,14,15
 334 324 334 324 343 346 c 0,16,17
 353 370 353 370 360 396 c 0,18,19
 366 424 366 424 366 451 c 0,20,21
 364 478 364 478 355 501 c 256,22,23
 346 524 346 524 332 540 c 256,24,25
 318 556 318 556 294 563 c 0,26,27
 270 571 270 571 246 571 c 0,28,29
 235 570 235 570 216 568 c 0,30,31
 196 564 196 564 177 551 c 256,32,33
 158 538 158 538 150 510 c 0,34,35
 147 496 147 496 147 486 c 0,36,37
 147 474 147 474 151 466 c 0,38,39
 156 456 156 456 170 448 c 0,40,41
 184 442 184 442 186 436 c 2,42,-1
 186 435 l 2,43,44
 186 430 186 430 175 416 c 0,45,46
 162 400 162 400 143 394 c 0,47,48
 131 390 131 390 122 390 c 0,49,50
 116 390 116 390 111 392 c 0,51,52
 98 398 98 398 96 405 c 0,53,54
 94 407 94 407 94 428 c 2,55,-1
 86 471 l 2,56,57
 85 475 85 475 85 480 c 0,58,59
 85 490 85 490 88 503 c 0,60,61
 92 517 92 517 102 538 c 0,62,63
 112 560 112 560 140 581 c 256,64,65
 168 602 168 602 201 609 c 256,66,67
 234 616 234 616 262 617 c 0,68,69
 289 617 289 617 322 608 c 256,70,71
 355 599 355 599 380 573 c 0,72,73
 406 548 406 548 418 522 c 0,74,75
 430 498 430 498 430 462 c 2,76,-1
 430 456 l 2,77,78
 430 436 430 436 425 413 c 256,79,80
 420 390 420 390 411 367 c 256,81,82
 402 344 402 344 390 324 c 0,83,84
 379 306 379 306 355 274 c 0,85,86
 330 242 330 242 318 221 c 0,87,88
 305 200 305 200 294 175 c 0,89,90
 284 150 284 150 278 126 c 2,91,-1
 272 90 l 2,92,93
 268 68 268 68 268 60 c 0,94,95
 268 50 268 50 264 42 c 0,96,97
 261 36 261 36 256 36 c 2,98,-1
 254 36 l 2,0,1
258 -43 m 0,99,100
 273 -43 273 -43 286 -50 c 0,101,102
 298 -56 298 -56 306 -70 c 256,103,104
 314 -84 314 -84 314 -99 c 256,105,106
 314 -114 314 -114 306 -126 c 0,107,108
 299 -140 299 -140 286 -147 c 0,109,110
 274 -154 274 -154 258 -154 c 0,111,112
 244 -154 244 -154 230 -147 c 0,113,114
 217 -140 217 -140 210 -127 c 0,115,116
 202 -114 202 -114 202 -98 c 0,117,118
 202 -84 202 -84 210 -70 c 0,119,120
 218 -57 218 -57 230 -50 c 0,121,122
 244 -44 244 -44 258 -43 c 0,99,100
EndSplineSet
EndChar
StartChar: at
Encoding: 64 64 35
Width: 1000
Flags: W
LayerCount: 2
Back
Fore
SplineSet
683 528 m 1,0,-1
 702 562 l 1,1,-1
 766 562 l 1,2,-1
 742 487 l 2,3,4
 732 452 732 452 725 424 c 2,5,-1
 670 206 l 2,6,7
 657 158 657 158 657 140 c 0,8,9
 658 122 658 122 667 114 c 256,10,11
 676 106 676 106 695 106 c 2,12,-1
 700 106 l 2,13,14
 730 108 730 108 758 126 c 0,15,16
 785 144 785 144 812 180 c 0,17,18
 838 216 838 216 849 234 c 0,19,20
 860 253 860 253 872 285 c 0,21,22
 886 318 886 318 891 344 c 0,23,24
 896 371 896 371 896 417 c 2,25,-1
 896 422 l 2,26,27
 896 465 896 465 878 516 c 0,28,29
 862 556 862 556 825 602 c 256,30,31
 788 648 788 648 746 668 c 0,32,33
 702 688 702 688 676 696 c 0,34,35
 648 704 648 704 623 708 c 0,36,37
 597 712 597 712 564 713 c 2,38,-1
 541 713 l 2,39,40
 518 713 518 713 497 712 c 0,41,42
 466 710 466 710 436 704 c 256,43,44
 406 698 406 698 372 686 c 0,45,46
 338 673 338 673 302 649 c 256,47,48
 266 625 266 625 234 595 c 0,49,50
 202 566 202 566 174 523 c 256,51,52
 146 480 146 480 132 448 c 256,53,54
 118 416 118 416 110 378 c 256,55,56
 102 340 102 340 101 300 c 2,57,-1
 101 280 l 2,58,59
 101 250 101 250 105 223 c 0,60,61
 110 188 110 188 130 138 c 0,62,63
 148 90 148 90 186 46 c 0,64,65
 223 2 223 2 269 -26 c 0,66,67
 314 -54 314 -54 353 -69 c 256,68,69
 392 -84 392 -84 432 -89 c 0,70,71
 474 -94 474 -94 512 -94 c 0,72,73
 562 -94 562 -94 601 -87 c 0,74,75
 640 -81 640 -81 674 -71 c 256,76,77
 708 -61 708 -61 738 -44 c 0,78,79
 768 -28 768 -28 811 2 c 0,80,81
 854 33 854 33 866 46 c 2,82,-1
 891 76 l 1,83,-1
 949 76 l 1,84,85
 921 40 921 40 900 17 c 0,86,87
 878 -6 878 -6 838 -36 c 256,88,89
 798 -66 798 -66 760 -85 c 0,90,91
 720 -105 720 -105 660 -122 c 0,92,93
 599 -138 599 -138 530 -140 c 0,94,95
 493 -140 493 -140 438 -135 c 0,96,97
 384 -129 384 -129 348 -117 c 0,98,99
 311 -104 311 -104 280 -89 c 256,100,101
 249 -74 249 -74 224 -56 c 0,102,103
 200 -37 200 -37 170 -8 c 0,104,105
 139 20 139 20 120 52 c 0,106,107
 100 83 100 83 90 110 c 0,108,109
 78 136 78 136 69 172 c 256,110,111
 60 208 60 208 56 244 c 0,112,113
 54 271 54 271 54 295 c 2,114,-1
 54 310 l 2,115,116
 55 349 55 349 65 390 c 0,117,118
 74 431 74 431 98 481 c 256,119,120
 122 531 122 531 161 578 c 0,121,122
 199 626 199 626 237 656 c 0,123,124
 276 686 276 686 301 700 c 0,125,126
 326 712 326 712 354 723 c 256,127,128
 382 734 382 734 413 742 c 0,129,130
 444 749 444 749 483 753 c 0,131,132
 522 756 522 756 546 756 c 0,133,134
 586 756 586 756 632 747 c 256,135,136
 678 738 678 738 711 726 c 256,137,138
 744 714 744 714 782 690 c 0,139,140
 820 667 820 667 841 646 c 0,141,142
 862 624 862 624 884 594 c 256,143,144
 906 564 906 564 917 535 c 256,145,146
 928 506 928 506 934 473 c 0,147,148
 942 440 942 440 942 404 c 0,149,150
 941 370 941 370 932 323 c 0,151,152
 922 276 922 276 902 234 c 256,153,154
 882 192 882 192 857 161 c 0,155,156
 832 131 832 131 802 106 c 0,157,158
 772 80 772 80 741 66 c 0,159,160
 710 50 710 50 683 49 c 2,161,-1
 675 49 l 2,162,163
 654 49 654 49 636 57 c 0,164,165
 614 66 614 66 608 81 c 2,166,-1
 594 114 l 1,167,168
 569 93 569 93 536 71 c 0,169,170
 502 49 502 49 446 49 c 2,171,-1
 442 49 l 2,172,173
 407 49 407 49 370 65 c 0,174,175
 330 82 330 82 309 102 c 256,176,177
 288 122 288 122 272 150 c 256,178,179
 256 178 256 178 251 203 c 0,180,181
 246 227 246 227 246 256 c 0,182,183
 247 298 247 298 257 334 c 0,184,185
 266 370 266 370 277 395 c 0,186,187
 288 419 288 419 298 438 c 0,188,189
 308 456 308 456 337 490 c 0,190,191
 366 525 366 525 401 548 c 0,192,193
 437 570 437 570 474 582 c 0,194,195
 507 592 507 592 545 592 c 2,196,-1
 552 592 l 2,197,198
 581 592 581 592 600 585 c 0,199,200
 620 579 620 579 638 569 c 0,201,202
 656 560 656 560 661 554 c 2,203,-1
 683 528 l 1,0,-1
658 450 m 0,204,205
 656 470 656 470 645 494 c 256,206,207
 634 518 634 518 609 538 c 256,208,209
 584 558 584 558 541 560 c 0,210,211
 504 560 504 560 468 542 c 256,212,213
 432 524 432 524 403 496 c 256,214,215
 374 468 374 468 353 432 c 256,216,217
 332 396 332 396 321 356 c 256,218,219
 310 316 310 316 308 268 c 2,220,-1
 308 252 l 2,221,222
 308 213 308 213 316 186 c 0,223,224
 325 156 325 156 344 132 c 0,225,226
 364 108 364 108 394 94 c 0,227,228
 414 85 414 85 437 85 c 0,229,230
 450 85 450 85 464 88 c 0,231,232
 498 94 498 94 524 116 c 0,233,234
 551 138 551 138 569 164 c 0,235,236
 588 190 588 190 599 216 c 256,237,238
 610 242 610 242 616 263 c 2,239,-1
 637 338 l 2,240,241
 651 392 651 392 654 416 c 0,242,243
 658 440 658 440 658 450 c 0,204,205
683 528 m 1,244,-1
 702 562 l 1,245,-1
 766 562 l 1,246,247
 753 522 753 522 742 487 c 0,248,249
 732 452 732 452 725 424 c 2,250,-1
 670 206 l 2,251,252
 657 158 657 158 657 140 c 0,253,254
 658 122 658 122 667 114 c 256,255,256
 676 106 676 106 695 106 c 2,257,-1
 700 106 l 2,258,259
 730 108 730 108 758 126 c 0,260,261
 785 144 785 144 812 180 c 0,262,263
 838 216 838 216 849 234 c 0,264,265
 860 253 860 253 872 285 c 0,266,267
 886 318 886 318 891 344 c 0,268,269
 896 371 896 371 896 417 c 2,270,-1
 896 422 l 2,271,272
 896 465 896 465 878 516 c 0,273,274
 862 556 862 556 825 602 c 256,275,276
 788 648 788 648 746 668 c 0,277,278
 702 688 702 688 676 696 c 0,279,280
 648 704 648 704 623 708 c 0,281,282
 597 712 597 712 564 713 c 2,283,-1
 541 713 l 2,284,285
 518 713 518 713 497 712 c 0,286,287
 466 710 466 710 436 704 c 256,288,289
 406 698 406 698 372 686 c 0,290,291
 338 673 338 673 302 649 c 256,292,293
 266 625 266 625 234 595 c 0,294,295
 202 566 202 566 174 523 c 256,296,297
 146 480 146 480 132 448 c 256,298,299
 118 416 118 416 110 378 c 256,300,301
 102 340 102 340 101 300 c 2,302,-1
 101 280 l 2,303,304
 101 250 101 250 105 223 c 0,305,306
 110 188 110 188 130 138 c 0,307,308
 148 90 148 90 186 46 c 0,309,310
 223 2 223 2 269 -26 c 0,311,312
 314 -54 314 -54 353 -69 c 256,313,314
 392 -84 392 -84 432 -89 c 0,315,316
 474 -94 474 -94 512 -94 c 0,317,318
 562 -94 562 -94 601 -87 c 0,319,320
 640 -81 640 -81 674 -71 c 256,321,322
 708 -61 708 -61 738 -44 c 0,323,324
 768 -28 768 -28 811 2 c 0,325,326
 854 33 854 33 866 46 c 2,327,-1
 891 76 l 1,328,-1
 949 76 l 1,329,330
 921 40 921 40 900 17 c 0,331,332
 878 -6 878 -6 838 -36 c 256,333,334
 798 -66 798 -66 760 -85 c 0,335,336
 720 -105 720 -105 660 -122 c 0,337,338
 599 -138 599 -138 530 -140 c 0,339,340
 493 -140 493 -140 438 -135 c 0,341,342
 384 -129 384 -129 348 -117 c 0,343,344
 311 -104 311 -104 280 -89 c 256,345,346
 249 -74 249 -74 224 -56 c 0,347,348
 200 -37 200 -37 170 -8 c 0,349,350
 139 20 139 20 120 52 c 0,351,352
 100 83 100 83 90 110 c 0,353,354
 78 136 78 136 69 172 c 256,355,356
 60 208 60 208 56 244 c 0,357,358
 54 271 54 271 54 295 c 2,359,-1
 54 310 l 2,360,361
 55 349 55 349 65 390 c 0,362,363
 74 431 74 431 98 481 c 256,364,365
 122 531 122 531 161 578 c 0,366,367
 199 626 199 626 237 656 c 0,368,369
 276 686 276 686 301 700 c 0,370,371
 326 712 326 712 354 723 c 256,372,373
 382 734 382 734 413 742 c 0,374,375
 444 749 444 749 483 753 c 0,376,377
 522 756 522 756 546 756 c 0,378,379
 586 756 586 756 632 747 c 256,380,381
 678 738 678 738 711 726 c 256,382,383
 744 714 744 714 782 690 c 0,384,385
 820 667 820 667 841 646 c 0,386,387
 862 624 862 624 884 594 c 256,388,389
 906 564 906 564 917 535 c 256,390,391
 928 506 928 506 934 473 c 0,392,393
 942 440 942 440 942 404 c 0,394,395
 941 370 941 370 932 323 c 0,396,397
 922 276 922 276 902 234 c 256,398,399
 882 192 882 192 857 161 c 0,400,401
 832 131 832 131 802 106 c 0,402,403
 772 80 772 80 741 66 c 0,404,405
 710 50 710 50 683 49 c 2,406,-1
 675 49 l 2,407,408
 654 49 654 49 636 57 c 0,409,410
 614 66 614 66 608 81 c 2,411,-1
 594 114 l 1,412,413
 569 93 569 93 536 71 c 0,414,415
 502 49 502 49 446 49 c 2,416,-1
 442 49 l 2,417,418
 407 49 407 49 370 65 c 0,419,420
 330 82 330 82 309 102 c 256,421,422
 288 122 288 122 272 150 c 256,423,424
 256 178 256 178 251 203 c 0,425,426
 246 227 246 227 246 256 c 0,427,428
 247 298 247 298 257 334 c 0,429,430
 266 370 266 370 277 395 c 0,431,432
 288 419 288 419 298 438 c 0,433,434
 308 456 308 456 337 490 c 0,435,436
 366 525 366 525 401 548 c 0,437,438
 437 570 437 570 474 582 c 0,439,440
 507 592 507 592 545 592 c 2,441,-1
 552 592 l 2,442,443
 581 592 581 592 600 585 c 0,444,445
 620 579 620 579 638 569 c 0,446,447
 656 560 656 560 661 554 c 2,448,-1
 683 528 l 1,244,-1
658 450 m 0,449,450
 656 470 656 470 645 494 c 256,451,452
 634 518 634 518 609 538 c 256,453,454
 584 558 584 558 541 560 c 0,455,456
 504 560 504 560 468 542 c 256,457,458
 432 524 432 524 403 496 c 256,459,460
 374 468 374 468 353 432 c 256,461,462
 332 396 332 396 321 356 c 256,463,464
 310 316 310 316 308 268 c 2,465,-1
 308 252 l 2,466,467
 308 213 308 213 316 186 c 0,468,469
 325 156 325 156 344 132 c 0,470,471
 364 108 364 108 394 94 c 0,472,473
 414 85 414 85 437 85 c 0,474,475
 450 85 450 85 464 88 c 0,476,477
 498 94 498 94 524 116 c 0,478,479
 551 138 551 138 569 164 c 0,480,481
 588 190 588 190 599 216 c 256,482,483
 610 242 610 242 616 263 c 256,484,485
 622 284 622 284 637 338 c 0,486,487
 651 392 651 392 654 416 c 0,488,489
 658 440 658 440 658 450 c 0,449,450
EndSplineSet
EndChar
StartChar: A
Encoding: 65 65 36
Width: 546
Flags: W
LayerCount: 2
Back
Fore
SplineSet
353 328 m 1,0,1
 336 374 336 374 329 398 c 2,2,-1
 294 508 l 2,3,4
 284 538 284 538 278 553 c 2,5,-1
 266 590 l 2,6,7
 258 610 258 610 255 611 c 0,8,9
 252 611 252 611 246 592 c 0,10,11
 239 572 239 572 231 541 c 2,12,-1
 211 466 l 2,13,14
 188 383 188 383 188 380 c 2,15,-1
 171 324 l 1,16,17
 207 328 207 328 231 332 c 0,18,19
 255 337 255 337 277 346 c 256,20,21
 299 355 299 355 310 355 c 0,22,23
 320 354 320 354 332 346 c 2,24,-1
 353 328 l 1,0,1
358 314 m 1,25,26
 338 305 338 305 327 301 c 0,27,28
 315 298 315 298 278 293 c 256,29,30
 241 288 241 288 235 288 c 0,31,32
 221 287 221 287 208 287 c 0,33,34
 196 287 196 287 186 288 c 2,35,-1
 162 290 l 1,36,37
 149 245 149 245 132 184 c 0,38,39
 116 124 116 124 108 100 c 256,40,41
 100 76 100 76 89 50 c 256,42,43
 78 24 78 24 70 24 c 0,44,45
 64 24 64 24 55 36 c 0,46,47
 47 48 47 48 42 79 c 256,48,49
 37 110 37 110 37 123 c 2,50,-1
 37 127 l 2,51,52
 37 138 37 138 42 152 c 0,53,54
 44 156 44 156 60 178 c 0,55,56
 75 201 75 201 85 224 c 0,57,58
 96 248 96 248 122 333 c 256,59,60
 148 418 148 418 164 470 c 0,61,62
 180 523 180 523 186 543 c 0,63,64
 193 564 193 564 210 608 c 0,65,66
 226 654 226 654 237 667 c 0,67,68
 247 680 247 680 256 682 c 2,69,-1
 257 682 l 2,70,71
 265 682 265 682 280 664 c 0,72,73
 290 650 290 650 302 617 c 256,74,75
 314 584 314 584 330 541 c 2,76,-1
 376 416 l 2,77,78
 416 307 416 307 425 281 c 0,79,80
 435 255 435 255 450 221 c 0,81,82
 464 188 464 188 476 172 c 2,83,-1
 500 140 l 2,84,85
 508 128 508 128 510 117 c 0,86,87
 511 113 511 113 511 106 c 0,88,89
 511 96 511 96 508 80 c 0,90,91
 504 58 504 58 498 41 c 256,92,93
 492 24 492 24 487 21 c 2,94,-1
 485 21 l 2,95,96
 479 21 479 21 466 36 c 0,97,98
 454 50 454 50 445 77 c 2,99,-1
 423 138 l 1,100,-1
 392 227 l 1,101,-1
 358 314 l 1,25,26
EndSplineSet
EndChar
StartChar: B
Encoding: 66 66 37
Width: 521
Flags: W
LayerCount: 2
Back
Fore
SplineSet
129 78 m 1,0,1
 133 146 133 146 134 173 c 256,2,3
 135 200 135 200 136 250 c 0,4,5
 137 298 137 298 139 384 c 0,6,7
 140 441 140 441 140 468 c 2,8,-1
 140 486 l 1,9,-1
 137 588 l 1,10,11
 114 583 114 583 101 583 c 2,12,-1
 95 583 l 2,13,14
 83 585 83 585 63 594 c 0,15,16
 44 604 44 604 38 616 c 0,17,18
 34 625 34 625 34 630 c 0,19,20
 34 632 34 632 35 634 c 0,21,22
 37 640 37 640 59 640 c 2,23,-1
 149 647 l 1,24,-1
 233 652 l 1,25,-1
 305 656 l 1,26,-1
 315 656 l 2,27,28
 351 656 351 656 376 650 c 0,29,30
 405 644 405 644 423 630 c 0,31,32
 441 615 441 615 453 589 c 0,33,34
 465 562 465 562 467 525 c 0,35,36
 468 516 468 516 468 507 c 0,37,38
 468 481 468 481 463 460 c 0,39,40
 457 437 457 437 446 417 c 0,41,42
 435 396 435 396 427 390 c 2,43,-1
 407 372 l 1,44,45
 429 360 429 360 446 345 c 256,46,47
 463 330 463 330 475 302 c 256,48,49
 487 274 487 274 489 239 c 2,50,-1
 489 224 l 2,51,52
 489 197 489 197 484 174 c 0,53,54
 476 145 476 145 459 122 c 0,55,56
 441 98 441 98 413 81 c 0,57,58
 386 64 386 64 353 55 c 0,59,60
 319 46 319 46 264 40 c 256,61,62
 209 34 209 34 177 33 c 2,63,-1
 95 30 l 2,64,65
 86 29 86 29 79 29 c 0,66,67
 61 29 61 29 50 33 c 0,68,69
 35 38 35 38 34 48 c 2,70,-1
 34 49 l 2,71,72
 34 57 34 57 47 66 c 0,73,74
 51 70 51 70 83 74 c 2,75,-1
 129 78 l 1,0,1
192 383 m 1,76,77
 253 386 253 386 283 390 c 256,78,79
 313 394 313 394 337 401 c 256,80,81
 361 408 361 408 379 423 c 0,82,83
 396 438 396 438 406 470 c 0,84,85
 415 495 415 495 415 519 c 0,86,87
 415 526 415 526 414 532 c 0,88,89
 411 562 411 562 396 579 c 256,90,91
 381 596 381 596 359 601 c 0,92,93
 346 603 346 603 326 603 c 0,94,95
 311 603 311 603 293 602 c 2,96,-1
 223 598 l 1,97,-1
 192 593 l 1,98,99
 191 474 191 474 191 434 c 2,100,-1
 192 383 l 1,76,77
183 81 m 1,101,102
 219 82 219 82 242 84 c 256,103,104
 265 86 265 86 306 94 c 256,105,106
 347 102 347 102 375 116 c 256,107,108
 403 130 403 130 418 153 c 256,109,110
 433 176 433 176 437 212 c 0,111,112
 438 220 438 220 438 227 c 0,113,114
 438 254 438 254 427 279 c 0,115,116
 415 306 415 306 393 322 c 256,117,118
 371 338 371 338 353 341 c 0,119,120
 342 343 342 343 328 343 c 0,121,122
 318 343 318 343 308 342 c 0,123,124
 279 340 279 340 250 337 c 2,125,-1
 191 332 l 1,126,127
 192 282 192 282 192 268 c 0,128,129
 191 254 191 254 187 166 c 2,130,-1
 183 81 l 1,101,102
EndSplineSet
EndChar
StartChar: C
Encoding: 67 67 38
Width: 488
Flags: W
LayerCount: 2
Back
Fore
SplineSet
432 634 m 2,0,1
 437 639 437 639 442 639 c 2,2,-1
 445 639 l 2,3,4
 453 636 453 636 454 625 c 0,5,6
 455 621 455 621 455 614 c 0,7,8
 455 604 455 604 453 588 c 2,9,-1
 451 542 l 1,10,-1
 446 504 l 2,11,12
 444 482 444 482 439 470 c 0,13,14
 434 459 434 459 427 458 c 2,15,-1
 426 458 l 2,16,17
 419 458 419 458 408 486 c 0,18,19
 398 509 398 509 385 528 c 0,20,21
 372 548 372 548 354 569 c 0,22,23
 334 591 334 591 310 604 c 0,24,25
 286 616 286 616 255 618 c 2,26,-1
 250 618 l 2,27,28
 218 618 218 618 193 605 c 0,29,30
 166 590 166 590 148 563 c 0,31,32
 131 536 131 536 118 494 c 0,33,34
 104 452 104 452 100 410 c 0,35,36
 98 389 98 389 98 363 c 256,37,38
 98 337 98 337 100 306 c 0,39,40
 103 245 103 245 112 210 c 0,41,42
 120 175 120 175 134 150 c 0,43,44
 148 126 148 126 168 111 c 256,45,46
 188 96 188 96 218 88 c 0,47,48
 239 81 239 81 260 81 c 0,49,50
 268 81 268 81 276 82 c 0,51,52
 306 84 306 84 328 98 c 256,53,54
 350 112 350 112 364 130 c 256,55,56
 378 148 378 148 389 171 c 256,57,58
 400 194 400 194 408 219 c 256,59,60
 416 244 416 244 421 262 c 0,61,62
 425 280 425 280 434 286 c 0,63,64
 438 289 438 289 441 289 c 0,65,66
 446 289 446 289 450 285 c 0,67,68
 456 281 456 281 456 269 c 0,69,70
 456 262 456 262 454 253 c 2,71,-1
 444 204 l 2,72,73
 436 174 436 174 420 141 c 0,74,75
 405 108 405 108 387 88 c 0,76,77
 368 68 368 68 338 52 c 256,78,79
 308 36 308 36 280 33 c 0,80,81
 269 31 269 31 257 31 c 0,82,83
 231 31 231 31 203 39 c 0,84,85
 162 50 162 50 134 70 c 256,86,87
 106 90 106 90 87 120 c 256,88,89
 68 150 68 150 56 190 c 0,90,91
 45 228 45 228 40 282 c 0,92,93
 35 327 35 327 35 363 c 2,94,-1
 35 374 l 2,95,96
 36 412 36 412 42 455 c 0,97,98
 49 498 49 498 66 539 c 0,99,100
 84 580 84 580 117 615 c 0,101,102
 150 651 150 651 185 659 c 0,103,104
 220 666 220 666 242 666 c 0,105,106
 274 666 274 666 306 656 c 256,107,108
 338 646 338 646 361 630 c 2,109,-1
 393 606 l 2,110,111
 402 600 402 600 407 600 c 0,112,113
 414 601 414 601 422 615 c 2,114,-1
 432 634 l 2,0,1
EndSplineSet
EndChar
StartChar: D
Encoding: 68 68 39
Width: 512
Flags: W
LayerCount: 2
Back
Fore
SplineSet
98 574 m 1,0,1
 88 574 88 574 81 576 c 256,2,3
 74 578 74 578 60 588 c 0,4,5
 45 596 45 596 37 609 c 0,6,7
 32 617 32 617 32 624 c 0,8,9
 32 627 32 627 33 630 c 0,10,11
 35 634 35 634 55 634 c 256,12,13
 75 634 75 634 103 638 c 0,14,15
 131 643 131 643 187 649 c 256,16,17
 243 655 243 655 255 656 c 0,18,19
 264 657 264 657 272 657 c 0,20,21
 299 657 299 657 327 652 c 0,22,23
 367 647 367 647 397 629 c 0,24,25
 428 611 428 611 447 583 c 0,26,27
 465 554 465 554 475 511 c 256,28,29
 485 468 485 468 487 409 c 0,30,31
 488 380 488 380 488 356 c 256,32,33
 488 332 488 332 487 313 c 0,34,35
 485 257 485 257 475 210 c 0,36,37
 466 162 466 162 444 130 c 0,38,39
 423 97 423 97 400 80 c 0,40,41
 377 64 377 64 349 53 c 256,42,43
 321 42 321 42 290 38 c 0,44,45
 258 34 258 34 217 33 c 0,46,47
 197 32 197 32 181 32 c 0,48,49
 164 32 164 32 151 33 c 0,50,51
 121 35 121 35 97 41 c 0,52,53
 74 47 74 47 60 54 c 0,54,55
 45 60 45 60 42 70 c 0,56,57
 40 74 40 74 40 77 c 0,58,59
 40 82 40 82 43 86 c 0,60,61
 43 87 43 87 52 87 c 256,62,63
 61 87 61 87 79 86 c 2,64,-1
 101 84 l 1,65,66
 103 160 103 160 103 207 c 2,67,-1
 103 291 l 1,68,-1
 101 424 l 1,69,-1
 101 508 l 1,70,-1
 98 574 l 1,0,1
153 84 m 1,71,-1
 196 84 l 2,72,73
 215 84 215 84 255 89 c 256,74,75
 295 94 295 94 325 106 c 0,76,77
 357 118 357 118 378 142 c 0,78,79
 400 165 400 165 413 204 c 0,80,81
 425 244 425 244 429 275 c 256,82,83
 433 306 433 306 433 334 c 0,84,85
 432 374 432 374 427 435 c 0,86,87
 421 495 421 495 407 527 c 0,88,89
 393 560 393 560 369 576 c 256,90,91
 345 592 345 592 312 597 c 0,92,93
 288 601 288 601 265 601 c 0,94,95
 256 601 256 601 247 600 c 0,96,97
 215 598 215 598 187 590 c 2,98,-1
 151 581 l 1,99,100
 153 531 153 531 153 506 c 2,101,-1
 156 423 l 2,102,103
 159 342 159 342 159 313 c 2,104,-1
 156 215 l 1,105,-1
 153 84 l 1,71,-1
EndSplineSet
EndChar
StartChar: E
Encoding: 69 69 40
Width: 509
Flags: W
LayerCount: 2
Back
Fore
SplineSet
143 588 m 1,0,1
 142 509 142 509 142 494 c 2,2,-1
 140 396 l 1,3,4
 180 394 180 394 190 394 c 0,5,6
 201 395 201 395 258 398 c 0,7,8
 316 401 316 401 332 403 c 256,9,10
 348 405 348 405 368 410 c 0,11,12
 389 415 389 415 398 415 c 0,13,14
 414 414 414 414 421 410 c 256,15,16
 428 406 428 406 443 387 c 0,17,18
 458 370 458 370 458 363 c 2,19,-1
 458 362 l 2,20,21
 456 356 456 356 449 353 c 0,22,23
 445 351 445 351 440 351 c 0,24,25
 437 351 437 351 434 352 c 0,26,27
 429 352 429 352 404 354 c 0,28,29
 380 357 380 357 356 357 c 0,30,31
 355 356 355 356 288 352 c 2,32,-1
 226 349 l 1,33,-1
 200 348 l 1,34,-1
 170 345 l 1,35,-1
 158 345 l 1,36,-1
 140 354 l 1,37,38
 140 300 140 300 138 262 c 0,39,40
 138 223 138 223 136 177 c 0,41,42
 134 132 134 132 133 120 c 2,43,-1
 133 115 l 2,44,45
 133 107 133 107 136 101 c 0,46,47
 138 98 138 98 146 98 c 0,48,49
 157 98 157 98 182 104 c 0,50,51
 196 106 196 106 246 110 c 2,52,-1
 318 118 l 2,53,54
 366 122 366 122 384 125 c 256,55,56
 402 128 402 128 410 128 c 0,57,58
 422 126 422 126 432 120 c 0,59,60
 441 114 441 114 461 96 c 0,61,62
 479 81 479 81 479 73 c 0,63,64
 479 71 479 71 478 70 c 0,65,66
 476 66 476 66 471 63 c 256,67,68
 466 60 466 60 458 60 c 2,69,-1
 439 60 l 2,70,71
 436 60 436 60 420 61 c 256,72,73
 404 62 404 62 389 62 c 0,74,75
 367 62 367 62 326 60 c 256,76,77
 285 58 285 58 246 57 c 0,78,79
 208 56 208 56 189 54 c 256,80,81
 170 52 170 52 156 49 c 0,82,83
 143 45 143 45 126 38 c 0,84,85
 113 34 113 34 105 34 c 2,86,-1
 100 34 l 2,87,88
 90 36 90 36 77 49 c 256,89,90
 64 62 64 62 61 75 c 0,91,92
 60 82 60 82 60 87 c 0,93,94
 60 93 60 93 61 98 c 2,95,-1
 69 116 l 2,96,97
 78 133 78 133 80 162 c 2,98,-1
 82 253 l 1,99,-1
 88 350 l 1,100,-1
 90 505 l 2,101,102
 91 528 91 528 91 541 c 0,103,104
 91 555 91 555 90 560 c 2,105,-1
 88 579 l 1,106,107
 76 582 76 582 65 586 c 256,108,109
 54 590 54 590 44 605 c 0,110,111
 35 618 35 618 35 624 c 2,112,-1
 35 626 l 2,113,114
 36 632 36 632 56 634 c 0,115,116
 63 635 63 635 76 635 c 2,117,-1
 105 635 l 2,118,119
 129 635 129 635 168 637 c 0,120,121
 219 640 219 640 246 642 c 0,122,123
 274 644 274 644 314 648 c 0,124,125
 355 653 355 653 378 658 c 0,126,127
 400 664 400 664 408 664 c 0,128,129
 419 662 419 662 434 656 c 0,130,131
 450 648 450 648 463 637 c 256,132,133
 476 626 476 626 476 620 c 256,134,135
 476 614 476 614 470 610 c 0,136,137
 465 607 465 607 454 607 c 2,138,-1
 448 607 l 2,139,140
 433 608 433 608 408 608 c 2,141,-1
 337 605 l 2,142,143
 288 603 288 603 269 602 c 0,144,145
 250 600 250 600 189 594 c 2,146,-1
 143 588 l 1,0,1
EndSplineSet
EndChar
StartChar: F
Encoding: 70 70 41
Width: 497
Flags: W
LayerCount: 2
Back
Fore
SplineSet
159 404 m 1,0,1
 193 406 193 406 209 408 c 2,2,-1
 280 418 l 2,3,4
 309 421 309 421 329 429 c 256,5,6
 349 437 349 437 350 438 c 0,7,8
 361 438 361 438 378 430 c 256,9,10
 395 422 395 422 409 410 c 0,11,12
 423 396 423 396 423 392 c 0,13,14
 421 386 421 386 407 382 c 256,15,16
 393 378 393 378 341 374 c 2,17,-1
 280 367 l 1,18,-1
 210 362 l 1,19,-1
 160 356 l 1,20,-1
 160 226 l 2,21,22
 161 172 161 172 161 168 c 2,23,-1
 161 144 l 2,24,25
 161 114 161 114 160 99 c 256,26,27
 159 84 159 84 153 54 c 0,28,29
 146 24 146 24 139 24 c 2,30,-1
 138 24 l 2,31,32
 130 24 130 24 121 34 c 0,33,34
 111 42 111 42 102 59 c 256,35,36
 93 76 93 76 89 88 c 0,37,38
 88 94 88 94 88 103 c 256,39,40
 88 112 88 112 89 124 c 2,41,-1
 97 164 l 2,42,43
 101 192 101 192 103 235 c 2,44,-1
 106 374 l 2,45,46
 109 491 109 491 109 502 c 2,47,-1
 101 584 l 1,48,49
 89 577 89 577 82 577 c 2,50,-1
 80 577 l 2,51,52
 73 578 73 578 58 588 c 0,53,54
 43 599 43 599 38 610 c 0,55,56
 35 617 35 617 35 621 c 256,57,58
 35 625 35 625 37 628 c 0,59,60
 38 632 38 632 50 632 c 0,61,62
 55 632 55 632 61 631 c 0,63,64
 73 629 73 629 88 629 c 0,65,66
 98 629 98 629 109 630 c 0,67,68
 183 636 183 636 199 638 c 2,69,-1
 265 645 l 1,70,-1
 333 652 l 2,71,72
 363 656 363 656 383 662 c 0,73,74
 402 669 402 669 409 669 c 0,75,76
 422 668 422 668 436 659 c 0,77,78
 449 649 449 649 461 634 c 0,79,80
 469 622 469 622 469 615 c 0,81,82
 469 613 469 613 468 611 c 0,83,84
 465 604 465 604 441 604 c 2,85,-1
 389 609 l 1,86,-1
 383 609 l 2,87,88
 368 609 368 609 339 606 c 0,89,90
 302 602 302 602 257 600 c 2,91,-1
 197 596 l 1,92,-1
 162 592 l 1,93,94
 169 584 169 584 173 579 c 256,95,96
 177 574 177 574 179 566 c 0,97,98
 180 564 180 564 180 561 c 0,99,100
 180 553 180 553 175 538 c 0,101,102
 170 516 170 516 167 478 c 2,103,-1
 161 432 l 1,104,-1
 159 404 l 1,0,1
EndSplineSet
EndChar
StartChar: G
Encoding: 71 71 42
Width: 573
Flags: W
LayerCount: 2
Back
Fore
SplineSet
397 318 m 1,0,1
 379 314 379 314 359 306 c 0,2,3
 343 301 343 301 335 301 c 2,4,-1
 331 301 l 2,5,6
 323 302 323 302 311 312 c 0,7,8
 301 320 301 320 292 332 c 0,9,10
 286 339 286 339 286 344 c 0,11,12
 286 346 286 346 287 348 c 0,13,14
 289 352 289 352 304 353 c 2,15,-1
 331 353 l 2,16,17
 341 353 341 353 385 362 c 2,18,-1
 447 374 l 2,19,20
 474 380 474 380 488 380 c 2,21,-1
 494 380 l 2,22,23
 505 379 505 379 514 374 c 0,24,25
 523 370 523 370 534 356 c 0,26,27
 543 344 543 344 543 339 c 2,28,-1
 543 337 l 2,29,30
 541 332 541 332 521 332 c 2,31,-1
 489 332 l 1,32,-1
 452 326 l 1,33,34
 451 288 451 288 451 270 c 2,35,-1
 451 214 l 2,36,37
 451 175 451 175 455 159 c 2,38,-1
 467 106 l 2,39,40
 466 96 466 96 462 83 c 0,41,42
 459 70 459 70 451 48 c 0,43,44
 444 26 444 26 434 26 c 2,45,-1
 433 26 l 2,46,47
 424 26 424 26 415 43 c 0,48,49
 407 60 407 60 406 86 c 2,50,-1
 401 186 l 1,51,52
 391 141 391 141 379 113 c 0,53,54
 367 84 367 84 342 63 c 256,55,56
 317 42 317 42 281 36 c 0,57,58
 268 34 268 34 254 34 c 0,59,60
 231 34 231 34 208 40 c 0,61,62
 171 50 171 50 137 72 c 256,63,64
 103 94 103 94 81 126 c 256,65,66
 59 158 59 158 47 204 c 256,67,68
 35 250 35 250 33 288 c 0,69,70
 31 317 31 317 31 347 c 2,71,-1
 31 367 l 2,72,73
 31 417 31 417 37 458 c 0,74,75
 43 498 43 498 61 540 c 256,76,77
 79 582 79 582 112 617 c 256,78,79
 145 652 145 652 179 660 c 256,80,81
 213 668 213 668 237 668 c 0,82,83
 257 668 257 668 285 664 c 0,84,85
 312 660 312 660 335 640 c 0,86,87
 357 620 357 620 365 620 c 0,88,89
 371 620 371 620 377 622 c 2,90,-1
 391 637 l 2,91,92
 401 645 401 645 407 645 c 0,93,94
 410 645 410 645 412 644 c 0,95,96
 419 641 419 641 423 628 c 0,97,98
 424 624 424 624 424 617 c 0,99,100
 424 602 424 602 421 576 c 2,101,-1
 416 540 l 2,102,103
 414 532 414 532 409 516 c 256,104,105
 404 500 404 500 397 496 c 0,106,107
 393 492 393 492 389 492 c 0,108,109
 386 492 386 492 382 494 c 0,110,111
 375 497 375 497 369 518 c 256,112,113
 363 539 363 539 352 558 c 0,114,115
 340 577 340 577 325 590 c 0,116,117
 309 603 309 603 287 612 c 256,118,119
 265 621 265 621 248 622 c 2,120,-1
 241 622 l 2,121,122
 213 622 213 622 187 608 c 0,123,124
 159 592 159 592 141 565 c 256,125,126
 123 538 123 538 109 498 c 0,127,128
 96 458 96 458 91 415 c 0,129,130
 88 380 88 380 88 345 c 2,131,-1
 88 328 l 2,132,133
 89 276 89 276 99 237 c 256,134,135
 109 198 109 198 126 168 c 256,136,137
 143 138 143 138 168 119 c 0,138,139
 192 100 192 100 223 94 c 0,140,141
 238 91 238 91 252 91 c 256,142,143
 266 91 266 91 278 94 c 0,144,145
 307 100 307 100 324 118 c 256,146,147
 341 136 341 136 358 176 c 256,148,149
 375 216 375 216 382 250 c 2,150,-1
 397 318 l 1,0,1
EndSplineSet
EndChar
StartChar: H
Encoding: 72 72 43
Width: 494
Flags: W
LayerCount: 2
Back
Fore
SplineSet
375 361 m 1,0,1
 367 362 367 362 360 362 c 0,2,3
 354 362 354 362 346 363 c 2,4,-1
 331 363 l 2,5,6
 314 363 314 363 295 362 c 0,7,8
 267 360 267 360 240 358 c 0,9,10
 214 356 214 356 197 353 c 256,11,12
 180 350 180 350 162 344 c 0,13,14
 149 340 149 340 144 340 c 2,15,-1
 142 340 l 1,16,-1
 114 354 l 1,17,18
 112 312 112 312 112 261 c 2,19,-1
 112 96 l 2,20,21
 112 80 112 80 108 52 c 256,22,23
 104 24 104 24 97 21 c 0,24,25
 95 20 95 20 92 20 c 0,26,27
 87 20 87 20 80 24 c 0,28,29
 68 29 68 29 60 40 c 0,30,31
 52 52 52 52 44 66 c 0,32,33
 36 81 36 81 35 91 c 0,34,35
 35 100 35 100 45 130 c 0,36,37
 52 150 52 150 55 188 c 256,38,39
 58 226 58 226 59 316 c 0,40,41
 60 405 60 405 60 464 c 0,42,43
 61 493 61 493 61 515 c 0,44,45
 61 536 61 536 60 550 c 0,46,47
 58 582 58 582 54 604 c 256,48,49
 50 626 50 626 42 640 c 256,50,51
 34 654 34 654 34 661 c 256,52,53
 34 668 34 668 38 673 c 0,54,55
 41 676 41 676 49 676 c 0,56,57
 55 676 55 676 62 675 c 0,58,59
 80 672 80 672 94 667 c 256,60,61
 108 662 108 662 118 654 c 0,62,63
 128 644 128 644 130 637 c 2,64,-1
 130 636 l 2,65,66
 130 631 130 631 123 611 c 0,67,68
 116 593 116 593 116 565 c 2,69,-1
 116 552 l 1,70,-1
 114 472 l 1,71,-1
 114 394 l 1,72,73
 132 394 132 394 144 396 c 0,74,75
 156 396 156 396 209 403 c 256,76,77
 262 410 262 410 281 412 c 0,78,79
 300 415 300 415 324 421 c 0,80,81
 340 425 340 425 347 425 c 0,82,83
 351 425 351 425 352 424 c 2,84,-1
 377 412 l 1,85,-1
 377 591 l 2,86,87
 376 614 376 614 374 623 c 0,88,89
 370 632 370 632 362 646 c 0,90,91
 354 658 354 658 354 665 c 2,92,-1
 354 667 l 2,93,94
 356 674 356 674 366 677 c 0,95,96
 369 678 369 678 373 678 c 0,97,98
 381 678 381 678 394 673 c 0,99,100
 396 672 396 672 416 664 c 256,101,102
 436 656 436 656 447 646 c 0,103,104
 458 638 458 638 459 629 c 2,105,-1
 459 627 l 2,106,107
 459 618 459 618 450 600 c 0,108,109
 441 584 441 584 438 564 c 0,110,111
 434 544 434 544 431 502 c 0,112,113
 429 478 429 478 429 431 c 0,114,115
 429 400 429 400 430 359 c 0,116,117
 430 277 430 277 432 228 c 2,118,-1
 436 115 l 2,119,120
 438 60 438 60 438 40 c 0,121,122
 439 35 439 35 439 31 c 0,123,124
 439 18 439 18 434 16 c 2,125,-1
 431 16 l 2,126,127
 425 16 425 16 414 21 c 0,128,129
 392 32 392 32 378 54 c 0,130,131
 364 75 364 75 362 86 c 2,132,-1
 362 91 l 2,133,134
 362 104 362 104 368 134 c 0,135,136
 372 152 372 152 373 181 c 0,137,138
 374 211 374 211 375 296 c 2,139,-1
 375 361 l 1,0,1
EndSplineSet
EndChar
StartChar: I
Encoding: 73 73 44
Width: 188
Flags: W
LayerCount: 2
Back
Fore
SplineSet
42 665 m 1,0,-1
 54 676 l 1,1,-1
 84 670 l 1,2,-1
 110 660 l 1,3,-1
 138 640 l 1,4,-1
 146 625 l 1,5,-1
 136 599 l 1,6,-1
 128 558 l 1,7,-1
 126 514 l 2,8,9
 122 474 122 474 122 322 c 2,10,-1
 122 146 l 1,11,-1
 120 100 l 2,12,13
 120 66 120 66 114 41 c 0,14,15
 108 17 108 17 99 17 c 2,16,-1
 98 17 l 2,17,18
 90 17 90 17 72 50 c 0,19,20
 52 82 52 82 46 97 c 0,21,22
 42 111 42 111 42 124 c 0,23,24
 42 130 42 130 48 148 c 0,25,26
 54 167 54 167 60 208 c 0,27,28
 66 248 66 248 66 341 c 0,29,30
 67 363 67 363 67 388 c 0,31,32
 67 414 67 414 66 444 c 0,33,34
 66 503 66 503 68 526 c 2,35,-1
 68 582 l 1,36,-1
 60 622 l 1,37,-1
 48 644 l 1,38,-1
 42 665 l 1,0,-1
EndSplineSet
EndChar
StartChar: J
Encoding: 74 74 45
Width: 409
Flags: W
LayerCount: 2
Back
Fore
SplineSet
277 672 m 0,0,1
 278 677 278 677 289 681 c 0,2,3
 292 682 292 682 296 682 c 0,4,5
 305 682 305 682 319 677 c 0,6,7
 335 671 335 671 351 664 c 0,8,9
 368 657 368 657 375 650 c 0,10,11
 381 643 381 643 381 638 c 2,12,-1
 381 637 l 2,13,14
 381 631 381 631 373 607 c 0,15,16
 370 600 370 600 368 583 c 2,17,-1
 363 544 l 2,18,19
 361 526 361 526 361 476 c 2,20,-1
 358 302 l 2,21,22
 357 208 357 208 355 178 c 256,23,24
 353 148 353 148 342 119 c 256,25,26
 331 90 331 90 309 70 c 256,27,28
 287 50 287 50 245 38 c 0,29,30
 220 32 220 32 195 32 c 0,31,32
 178 32 178 32 160 35 c 0,33,34
 127 40 127 40 103 56 c 0,35,36
 79 71 79 71 65 93 c 0,37,38
 53 114 53 114 49 148 c 2,39,-1
 44 216 l 2,40,41
 40 241 40 241 40 258 c 0,42,43
 40 273 40 273 43 282 c 0,44,45
 48 300 48 300 57 300 c 2,46,-1
 59 300 l 2,47,48
 64 300 64 300 70 290 c 0,49,50
 77 282 77 282 78 260 c 2,51,-1
 83 206 l 2,52,53
 86 158 86 158 96 134 c 0,54,55
 105 110 105 110 131 96 c 0,56,57
 151 85 151 85 182 85 c 0,58,59
 191 85 191 85 201 86 c 0,60,61
 225 87 225 87 249 96 c 0,62,63
 273 106 273 106 287 134 c 0,64,65
 301 163 301 163 303 204 c 2,66,-1
 303 264 l 2,67,68
 302 308 302 308 302 352 c 0,69,70
 303 395 303 395 303 471 c 0,71,72
 304 509 304 509 304 535 c 0,73,74
 304 562 304 562 303 578 c 0,75,76
 301 609 301 609 297 620 c 0,77,78
 293 632 293 632 285 651 c 0,79,80
 277 671 277 671 277 672 c 0,0,1
EndSplineSet
EndChar
StartChar: K
Encoding: 75 75 46
Width: 553
Flags: W
LayerCount: 2
Back
Fore
SplineSet
110 390 m 1,0,1
 145 418 145 418 162 433 c 2,2,-1
 229 492 l 2,3,4
 267 524 267 524 279 538 c 0,5,6
 292 551 292 551 313 576 c 0,7,8
 333 600 333 600 342 613 c 256,9,10
 351 626 351 626 357 646 c 256,11,12
 363 666 363 666 366 669 c 256,13,14
 369 672 369 672 373 674 c 0,15,16
 374 675 374 675 375 675 c 0,17,18
 379 675 379 675 385 670 c 0,19,20
 391 666 391 666 398 655 c 0,21,22
 404 644 404 644 415 618 c 0,23,24
 423 599 423 599 423 587 c 0,25,26
 423 583 423 583 422 580 c 0,27,28
 419 568 419 568 413 563 c 256,29,30
 407 558 407 558 389 552 c 0,31,32
 371 544 371 544 349 525 c 2,33,-1
 305 488 l 2,34,35
 283 470 283 470 279 466 c 2,36,-1
 253 442 l 1,37,-1
 283 367 l 1,38,-1
 326 270 l 2,39,40
 358 200 358 200 376 167 c 256,41,42
 394 134 394 134 412 118 c 0,43,44
 429 102 429 102 452 92 c 256,45,46
 475 82 475 82 499 74 c 0,47,48
 524 66 524 66 525 60 c 0,49,50
 525 53 525 53 515 46 c 0,51,52
 509 41 509 41 496 41 c 2,53,-1
 491 41 l 2,54,55
 475 41 475 41 446 38 c 0,56,57
 427 35 427 35 411 35 c 0,58,59
 404 35 404 35 397 36 c 0,60,61
 372 38 372 38 359 48 c 0,62,63
 346 57 346 57 335 81 c 0,64,65
 323 105 323 105 308 156 c 256,66,67
 293 207 293 207 282 237 c 2,68,-1
 251 323 l 1,69,-1
 217 416 l 1,70,71
 177 387 177 387 171 382 c 2,72,-1
 109 340 l 1,73,-1
 109 280 l 1,74,-1
 107 156 l 1,75,-1
 108 128 l 2,76,77
 108 105 108 105 107 87 c 0,78,79
 105 79 105 79 102 52 c 0,80,81
 98 25 98 25 93 21 c 0,82,83
 87 18 87 18 82 16 c 0,84,85
 77 16 77 16 65 34 c 0,86,87
 47 60 47 60 41 72 c 256,88,89
 35 84 35 84 34 95 c 2,90,-1
 34 97 l 2,91,92
 34 108 34 108 43 133 c 0,93,94
 52 161 52 161 55 187 c 0,95,96
 57 212 57 212 57 268 c 2,97,-1
 57 386 l 2,98,99
 57 449 57 449 58 480 c 256,100,101
 59 511 59 511 59 524 c 2,102,-1
 56 565 l 1,103,-1
 55 594 l 2,104,105
 53 612 53 612 49 622 c 256,106,107
 45 632 45 632 37 645 c 0,108,109
 30 657 30 657 30 663 c 2,110,-1
 30 664 l 2,111,112
 32 670 32 670 43 674 c 1,113,-1
 47 674 l 2,114,115
 56 674 56 674 76 667 c 0,116,117
 100 658 100 658 107 654 c 0,118,119
 115 650 115 650 121 642 c 0,120,121
 129 634 129 634 130 628 c 2,122,-1
 130 627 l 2,123,124
 130 620 130 620 121 596 c 0,125,126
 113 579 113 579 113 552 c 2,127,-1
 113 509 l 1,128,-1
 111 461 l 1,129,-1
 111 414 l 1,130,-1
 110 390 l 1,0,1
110 390 m 1,131,132
 145 418 145 418 162 433 c 2,133,-1
 229 492 l 2,134,135
 267 524 267 524 279 538 c 0,136,137
 292 551 292 551 313 576 c 0,138,139
 333 600 333 600 342 613 c 256,140,141
 351 626 351 626 357 646 c 256,142,143
 363 666 363 666 366 669 c 256,144,145
 369 672 369 672 373 674 c 0,146,147
 374 675 374 675 375 675 c 0,148,149
 379 675 379 675 385 670 c 0,150,151
 391 666 391 666 398 655 c 0,152,153
 404 644 404 644 415 618 c 0,154,155
 423 599 423 599 423 587 c 0,156,157
 423 583 423 583 422 580 c 0,158,159
 419 568 419 568 413 563 c 256,160,161
 407 558 407 558 389 552 c 0,162,163
 371 544 371 544 349 525 c 256,164,165
 327 506 327 506 305 488 c 256,166,167
 283 470 283 470 279 466 c 2,168,-1
 253 442 l 1,169,170
 272 394 272 394 283 367 c 0,171,172
 294 341 294 341 326 270 c 0,173,174
 358 200 358 200 376 167 c 256,175,176
 394 134 394 134 412 118 c 0,177,178
 429 102 429 102 452 92 c 256,179,180
 475 82 475 82 499 74 c 0,181,182
 524 66 524 66 525 60 c 0,183,184
 525 53 525 53 515 46 c 0,185,186
 509 41 509 41 496 41 c 2,187,-1
 491 41 l 2,188,189
 475 41 475 41 446 38 c 0,190,191
 427 35 427 35 411 35 c 0,192,193
 404 35 404 35 397 36 c 0,194,195
 372 38 372 38 359 48 c 0,196,197
 346 57 346 57 335 81 c 0,198,199
 323 105 323 105 308 156 c 256,200,201
 293 207 293 207 282 237 c 0,202,203
 272 266 272 266 251 323 c 2,204,-1
 217 416 l 1,205,206
 177 387 177 387 171 382 c 2,207,-1
 109 340 l 1,208,-1
 109 280 l 1,209,-1
 107 156 l 1,210,-1
 108 128 l 2,211,212
 108 105 108 105 107 87 c 0,213,214
 105 79 105 79 102 52 c 0,215,216
 98 25 98 25 93 21 c 0,217,218
 87 18 87 18 82 16 c 0,219,220
 77 16 77 16 65 34 c 0,221,222
 47 60 47 60 41 72 c 256,223,224
 35 84 35 84 34 95 c 2,225,-1
 34 97 l 2,226,227
 34 108 34 108 43 133 c 0,228,229
 52 161 52 161 55 187 c 0,230,231
 57 212 57 212 57 268 c 2,232,-1
 57 386 l 2,233,234
 57 449 57 449 58 480 c 256,235,236
 59 511 59 511 59 524 c 2,237,-1
 56 565 l 1,238,-1
 55 594 l 2,239,240
 53 612 53 612 49 622 c 256,241,242
 45 632 45 632 37 645 c 0,243,244
 30 657 30 657 30 663 c 2,245,-1
 30 664 l 2,246,247
 32 670 32 670 43 674 c 1,248,-1
 47 674 l 2,249,250
 56 674 56 674 76 667 c 0,251,252
 100 658 100 658 107 654 c 0,253,254
 115 650 115 650 121 642 c 0,255,256
 129 634 129 634 130 628 c 2,257,-1
 130 627 l 2,258,259
 130 620 130 620 121 596 c 0,260,261
 113 579 113 579 113 552 c 2,262,-1
 113 509 l 1,263,-1
 111 461 l 1,264,-1
 111 414 l 1,265,-1
 110 390 l 1,131,132
EndSplineSet
EndChar
StartChar: L
Encoding: 76 76 47
Width: 471
Flags: W
LayerCount: 2
Back
Fore
SplineSet
37 665 m 0,0,1
 38 670 38 670 48 674 c 0,2,3
 51 675 51 675 56 675 c 0,4,5
 65 675 65 675 80 670 c 0,6,7
 106 660 106 660 116 655 c 0,8,9
 126 651 126 651 132 644 c 0,10,11
 138 636 138 636 139 629 c 2,12,-1
 139 627 l 2,13,14
 139 620 139 620 132 600 c 0,15,16
 122 579 122 579 118 547 c 0,17,18
 114 516 114 516 114 424 c 2,19,-1
 113 294 l 2,20,21
 112 200 112 200 110 167 c 0,22,23
 109 151 109 151 109 139 c 256,24,25
 109 127 109 127 110 120 c 0,26,27
 111 102 111 102 118 94 c 0,28,29
 124 88 124 88 146 88 c 2,30,-1
 152 88 l 2,31,32
 178 90 178 90 220 98 c 0,33,34
 264 108 264 108 284 111 c 256,35,36
 304 114 304 114 323 115 c 0,37,38
 333 116 333 116 342 116 c 0,39,40
 352 116 352 116 361 115 c 0,41,42
 382 114 382 114 392 110 c 0,43,44
 402 107 402 107 421 90 c 0,45,46
 440 74 440 74 440 66 c 2,47,-1
 440 65 l 2,48,49
 440 58 440 58 434 52 c 0,50,51
 430 49 430 49 421 49 c 0,52,53
 416 49 416 49 410 50 c 0,54,55
 388 52 388 52 350 54 c 0,56,57
 324 55 324 55 306 55 c 2,58,-1
 290 55 l 2,59,60
 276 54 276 54 205 46 c 256,61,62
 134 38 134 38 108 33 c 0,63,64
 92 30 92 30 79 30 c 0,65,66
 71 30 71 30 65 31 c 0,67,68
 48 34 48 34 41 45 c 0,69,70
 37 51 37 51 37 60 c 0,71,72
 37 68 37 68 40 79 c 2,73,-1
 50 113 l 2,74,75
 54 130 54 130 54 155 c 0,76,77
 55 180 55 180 57 245 c 0,78,79
 60 310 60 310 60 364 c 2,80,-1
 60 476 l 2,81,82
 61 515 61 515 61 540 c 256,83,84
 61 565 61 565 60 576 c 0,85,86
 58 605 58 605 55 616 c 0,87,88
 52 628 52 628 44 646 c 0,89,90
 37 664 37 664 37 665 c 0,0,1
EndSplineSet
EndChar
StartChar: M
Encoding: 77 77 48
Width: 614
Flags: W
LayerCount: 2
Back
Fore
SplineSet
131 566 m 1,0,1
 126 510 126 510 125 483 c 0,2,3
 123 456 123 456 121 393 c 256,4,5
 119 330 119 330 117 292 c 2,6,-1
 110 194 l 2,7,8
 107 154 107 154 105 114 c 256,9,10
 103 74 103 74 100 50 c 256,11,12
 97 26 97 26 89 22 c 0,13,14
 88 21 88 21 86 21 c 0,15,16
 77 21 77 21 59 42 c 0,17,18
 47 54 47 54 39 73 c 0,19,20
 31 90 31 90 31 104 c 2,21,-1
 31 107 l 2,22,23
 31 114 31 114 40 138 c 256,24,25
 49 162 49 162 54 190 c 256,26,27
 59 218 59 218 61 254 c 2,28,-1
 67 336 l 1,29,-1
 73 442 l 1,30,-1
 79 534 l 2,31,32
 84 604 84 604 84 626 c 2,33,-1
 84 630 l 2,34,35
 84 649 84 649 93 663 c 0,36,37
 102 675 102 675 115 675 c 2,38,-1
 119 675 l 2,39,40
 131 673 131 673 144 650 c 0,41,42
 156 626 156 626 171 582 c 2,43,-1
 201 500 l 1,44,-1
 235 407 l 1,45,-1
 264 324 l 2,46,47
 285 262 285 262 295 227 c 256,48,49
 305 192 305 192 313 192 c 0,50,51
 319 192 319 192 337 246 c 2,52,-1
 366 332 l 1,53,-1
 399 436 l 2,54,55
 418 498 418 498 429 530 c 2,56,-1
 459 609 l 2,57,58
 476 656 476 656 489 668 c 0,59,60
 500 677 500 677 510 677 c 2,61,-1
 513 677 l 2,62,63
 523 674 523 674 531 658 c 256,64,65
 539 642 539 642 540 622 c 2,66,-1
 546 504 l 1,67,-1
 549 424 l 2,68,69
 549 416 549 416 556 319 c 2,70,-1
 565 194 l 2,71,72
 568 165 568 165 577 140 c 0,73,74
 585 116 585 116 585 107 c 2,75,-1
 585 104 l 2,76,77
 585 95 585 95 581 83 c 0,78,79
 575 64 575 64 561 42 c 256,80,81
 547 20 547 20 541 20 c 0,82,83
 530 20 530 20 525 44 c 0,84,85
 519 68 519 68 518 111 c 2,86,-1
 509 200 l 1,87,-1
 503 310 l 2,88,89
 495 418 495 418 495 482 c 2,90,-1
 495 506 l 2,91,92
 496 534 496 534 496 550 c 0,93,94
 496 568 496 568 494 568 c 0,95,96
 490 565 490 565 479 532 c 2,97,-1
 450 440 l 1,98,-1
 418 342 l 2,99,100
 417 338 417 338 386 251 c 2,101,-1
 347 136 l 2,102,103
 339 108 339 108 330 87 c 256,104,105
 321 66 321 66 313 66 c 0,106,107
 304 66 304 66 295 84 c 0,108,109
 285 101 285 101 275 132 c 2,110,-1
 254 198 l 1,111,-1
 207 342 l 2,112,113
 171 453 171 453 151 508 c 0,114,115
 131 564 131 564 131 566 c 1,0,1
131 566 m 1,116,117
 126 510 126 510 125 483 c 0,118,119
 123 456 123 456 121 393 c 256,120,121
 119 330 119 330 117 292 c 2,122,-1
 110 194 l 2,123,124
 107 154 107 154 105 114 c 256,125,126
 103 74 103 74 100 50 c 256,127,128
 97 26 97 26 89 22 c 0,129,130
 88 21 88 21 86 21 c 0,131,132
 77 21 77 21 59 42 c 0,133,134
 47 54 47 54 39 73 c 0,135,136
 31 90 31 90 31 104 c 2,137,-1
 31 107 l 2,138,139
 31 114 31 114 40 138 c 256,140,141
 49 162 49 162 54 190 c 256,142,143
 59 218 59 218 61 254 c 2,144,-1
 67 336 l 1,145,-1
 73 442 l 1,146,-1
 79 534 l 2,147,148
 84 604 84 604 84 626 c 2,149,-1
 84 630 l 2,150,151
 84 649 84 649 93 663 c 0,152,153
 102 675 102 675 115 675 c 2,154,-1
 119 675 l 2,155,156
 131 673 131 673 144 650 c 0,157,158
 156 626 156 626 171 582 c 0,159,160
 187 538 187 538 201 500 c 2,161,-1
 235 407 l 2,162,163
 243 385 243 385 264 324 c 0,164,165
 285 262 285 262 295 227 c 256,166,167
 305 192 305 192 313 192 c 0,168,169
 319 192 319 192 337 246 c 256,170,171
 355 300 355 300 366 332 c 2,172,-1
 399 436 l 2,173,174
 418 498 418 498 429 530 c 0,175,176
 441 562 441 562 459 609 c 0,177,178
 476 656 476 656 489 668 c 0,179,180
 500 677 500 677 510 677 c 2,181,-1
 513 677 l 2,182,183
 523 674 523 674 531 658 c 256,184,185
 539 642 539 642 540 622 c 256,186,187
 541 602 541 602 546 504 c 2,188,-1
 549 424 l 2,189,190
 549 416 549 416 556 319 c 256,191,192
 563 222 563 222 565 194 c 0,193,194
 568 165 568 165 577 140 c 0,195,196
 585 116 585 116 585 107 c 2,197,-1
 585 104 l 2,198,199
 585 95 585 95 581 83 c 0,200,201
 575 64 575 64 561 42 c 256,202,203
 547 20 547 20 541 20 c 0,204,205
 530 20 530 20 525 44 c 0,206,207
 519 68 519 68 518 111 c 2,208,-1
 509 200 l 1,209,-1
 503 310 l 2,210,211
 495 418 495 418 495 482 c 2,212,-1
 495 506 l 2,213,214
 496 534 496 534 496 550 c 0,215,216
 496 568 496 568 494 568 c 0,217,218
 490 565 490 565 479 532 c 0,219,220
 469 499 469 499 450 440 c 2,221,-1
 418 342 l 2,222,223
 417 338 417 338 386 251 c 0,224,225
 356 163 356 163 347 136 c 0,226,227
 339 108 339 108 330 87 c 256,228,229
 321 66 321 66 313 66 c 0,230,231
 304 66 304 66 295 84 c 0,232,233
 285 101 285 101 275 132 c 0,234,235
 265 164 265 164 254 198 c 0,236,237
 243 231 243 231 207 342 c 256,238,239
 171 453 171 453 151 508 c 0,240,241
 131 564 131 564 131 566 c 1,116,117
EndSplineSet
EndChar
StartChar: N
Encoding: 78 78 49
Width: 509
Flags: W
LayerCount: 2
Back
Fore
SplineSet
117 568 m 1,0,1
 120 486 120 486 120 454 c 0,2,3
 119 422 119 422 117 351 c 2,4,-1
 113 209 l 2,5,6
 112 138 112 138 109 111 c 0,7,8
 107 83 107 83 103 62 c 0,9,10
 99 42 99 42 94 32 c 0,11,12
 89 21 89 21 85 18 c 2,13,-1
 84 18 l 2,14,15
 79 18 79 18 66 36 c 0,16,17
 47 62 47 62 40 92 c 0,18,19
 33 117 33 117 33 128 c 2,20,-1
 33 130 l 2,21,22
 33 136 33 136 43 158 c 256,23,24
 53 180 53 180 56 196 c 0,25,26
 58 207 58 207 58 231 c 2,27,-1
 58 248 l 2,28,29
 58 286 58 286 62 356 c 0,30,31
 64 398 64 398 64 466 c 0,32,33
 65 534 65 534 67 576 c 0,34,35
 70 620 70 620 70 636 c 0,36,37
 71 652 71 652 79 664 c 0,38,39
 87 674 87 674 100 674 c 2,40,-1
 102 674 l 2,41,42
 113 673 113 673 130 649 c 256,43,44
 147 625 147 625 181 560 c 2,45,-1
 239 449 l 2,46,47
 306 320 306 320 314 308 c 2,48,-1
 363 222 l 1,49,-1
 399 154 l 1,50,51
 397 253 397 253 396 329 c 0,52,53
 395 404 395 404 395 462 c 2,54,-1
 395 527 l 2,55,56
 394 565 394 565 391 594 c 0,57,58
 389 622 389 622 385 633 c 2,59,-1
 373 661 l 1,60,-1
 373 668 l 2,61,62
 374 670 374 670 379 674 c 0,63,64
 382 676 382 676 389 676 c 0,65,66
 394 676 394 676 401 675 c 0,67,68
 416 672 416 672 437 664 c 0,69,70
 457 656 457 656 466 646 c 256,71,72
 475 636 475 636 476 632 c 2,73,-1
 478 624 l 2,74,75
 478 620 478 620 477 614 c 0,76,77
 475 612 475 612 469 595 c 256,78,79
 463 578 463 578 459 558 c 256,80,81
 455 538 455 538 453 496 c 2,82,-1
 450 434 l 2,83,84
 449 414 449 414 449 331 c 0,85,86
 449 249 449 249 448 182 c 2,87,-1
 448 79 l 2,88,89
 448 54 448 54 440 38 c 0,90,91
 431 20 431 20 422 19 c 2,92,-1
 421 19 l 2,93,94
 412 19 412 19 396 49 c 2,95,-1
 368 100 l 2,96,97
 359 116 359 116 320 192 c 2,98,-1
 229 364 l 1,99,-1
 171 468 l 1,100,-1
 117 568 l 1,0,1
117 568 m 1,101,102
 120 486 120 486 120 454 c 0,103,104
 119 422 119 422 117 351 c 0,105,106
 115 279 115 279 113 209 c 0,107,108
 112 138 112 138 109 111 c 0,109,110
 107 83 107 83 103 62 c 0,111,112
 99 42 99 42 94 32 c 0,113,114
 89 21 89 21 85 18 c 2,115,-1
 84 18 l 2,116,117
 79 18 79 18 66 36 c 0,118,119
 47 62 47 62 40 92 c 0,120,121
 33 117 33 117 33 128 c 2,122,-1
 33 130 l 2,123,124
 33 136 33 136 43 158 c 256,125,126
 53 180 53 180 56 196 c 0,127,128
 58 207 58 207 58 231 c 2,129,-1
 58 248 l 2,130,131
 58 286 58 286 62 356 c 0,132,133
 64 398 64 398 64 466 c 0,134,135
 65 534 65 534 67 576 c 0,136,137
 70 620 70 620 70 636 c 0,138,139
 71 652 71 652 79 664 c 0,140,141
 87 674 87 674 100 674 c 2,142,-1
 102 674 l 2,143,144
 113 673 113 673 130 649 c 256,145,146
 147 625 147 625 181 560 c 2,147,-1
 239 449 l 2,148,149
 306 320 306 320 314 308 c 2,150,-1
 363 222 l 1,151,-1
 399 154 l 1,152,153
 397 253 397 253 396 329 c 0,154,155
 395 404 395 404 395 462 c 2,156,-1
 395 527 l 2,157,158
 394 565 394 565 391 594 c 0,159,160
 389 622 389 622 385 633 c 2,161,-1
 373 661 l 1,162,-1
 373 668 l 2,163,164
 374 670 374 670 379 674 c 0,165,166
 382 676 382 676 389 676 c 0,167,168
 394 676 394 676 401 675 c 0,169,170
 416 672 416 672 437 664 c 0,171,172
 457 656 457 656 466 646 c 256,173,174
 475 636 475 636 476 632 c 2,175,-1
 478 624 l 2,176,177
 478 620 478 620 477 614 c 0,178,179
 475 612 475 612 469 595 c 256,180,181
 463 578 463 578 459 558 c 256,182,183
 455 538 455 538 453 496 c 0,184,185
 451 455 451 455 450 434 c 0,186,187
 449 414 449 414 449 331 c 0,188,189
 449 249 449 249 448 182 c 2,190,-1
 448 79 l 2,191,192
 448 54 448 54 440 38 c 0,193,194
 431 20 431 20 422 19 c 2,195,-1
 421 19 l 2,196,197
 412 19 412 19 396 49 c 2,198,-1
 368 100 l 2,199,200
 359 116 359 116 320 192 c 0,201,202
 281 267 281 267 229 364 c 2,203,-1
 171 468 l 1,204,-1
 117 568 l 1,101,102
EndSplineSet
EndChar
StartChar: O
Encoding: 79 79 50
Width: 484
Flags: W
LayerCount: 2
Back
Fore
SplineSet
242 666 m 1,0,-1
 249 666 l 2,1,2
 290 666 290 666 323 645 c 0,3,4
 360 622 360 622 383 586 c 0,5,6
 407 550 407 550 428 491 c 256,7,8
 449 432 449 432 449 350 c 256,9,10
 449 268 449 268 422 193 c 0,11,12
 394 118 394 118 345 76 c 0,13,14
 297 36 297 36 245 36 c 2,15,-1
 242 36 l 2,16,17
 187 36 187 36 139 77 c 0,18,19
 89 118 89 118 62 192 c 0,20,21
 35 267 35 267 35 350 c 0,22,23
 35 432 35 432 63 510 c 0,24,25
 91 589 91 589 141 626 c 0,26,27
 191 662 191 662 242 666 c 1,0,-1
242 628 m 256,28,29
 211 628 211 628 173 595 c 256,30,31
 135 562 135 562 115 494 c 0,32,33
 95 425 95 425 94 355 c 0,34,35
 94 286 94 286 115 219 c 0,36,37
 127 175 127 175 149 142 c 0,38,39
 171 108 171 108 196 94 c 0,40,41
 222 80 222 80 251 80 c 0,42,43
 279 80 279 80 315 117 c 0,44,45
 350 152 350 152 370 218 c 0,46,47
 389 283 389 283 389 353 c 0,48,49
 389 420 389 420 369 491 c 256,50,51
 349 562 349 562 311 595 c 256,52,53
 273 628 273 628 242 628 c 256,28,29
EndSplineSet
EndChar
StartChar: P
Encoding: 80 80 51
Width: 464
Flags: W
LayerCount: 2
Back
Fore
SplineSet
149 296 m 1,0,1
 149 196 149 196 152 153 c 256,2,3
 155 110 155 110 155 98 c 2,4,-1
 150 45 l 2,5,6
 148 20 148 20 143 16 c 256,7,8
 138 12 138 12 131 10 c 2,9,-1
 130 10 l 2,10,11
 124 10 124 10 109 28 c 0,12,13
 91 49 91 49 85 62 c 0,14,15
 77 76 77 76 76 88 c 2,16,-1
 76 92 l 2,17,18
 76 104 76 104 81 130 c 0,19,20
 88 161 88 161 90 186 c 0,21,22
 91 212 91 212 91 356 c 2,23,-1
 91 429 l 1,24,-1
 88 520 l 1,25,-1
 87 583 l 1,26,27
 75 588 75 588 65 593 c 256,28,29
 55 598 55 598 43 614 c 0,30,31
 33 626 33 626 33 633 c 0,32,33
 33 635 33 635 34 636 c 0,34,35
 37 642 37 642 63 643 c 256,36,37
 89 644 89 644 139 648 c 256,38,39
 189 652 189 652 223 654 c 0,40,41
 258 654 258 654 293 652 c 0,42,43
 327 651 327 651 345 645 c 0,44,45
 363 640 363 640 382 624 c 0,46,47
 401 609 401 609 416 580 c 0,48,49
 431 552 431 552 435 520 c 0,50,51
 437 507 437 507 437 493 c 0,52,53
 437 472 437 472 433 448 c 0,54,55
 425 406 425 406 409 381 c 256,56,57
 393 356 393 356 367 336 c 0,58,59
 341 318 341 318 312 308 c 0,60,61
 283 300 283 300 243 296 c 0,62,63
 216 293 216 293 201 293 c 0,64,65
 194 293 194 293 189 294 c 2,66,-1
 149 296 l 1,0,1
148 342 m 1,67,-1
 203 342 l 2,68,69
 227 343 227 343 262 351 c 0,70,71
 297 358 297 358 321 378 c 256,72,73
 345 398 345 398 359 430 c 0,74,75
 371 455 371 455 371 487 c 0,76,77
 371 494 371 494 370 501 c 0,78,79
 368 525 368 525 358 548 c 0,80,81
 349 570 349 570 327 587 c 256,82,83
 305 604 305 604 264 608 c 1,84,-1
 249 608 l 2,85,86
 218 608 218 608 191 602 c 2,87,-1
 148 593 l 1,88,89
 147 540 147 540 147 514 c 2,90,-1
 149 436 l 1,91,-1
 148 342 l 1,67,-1
EndSplineSet
EndChar
StartChar: Q
Encoding: 81 81 52
Width: 512
Flags: W
LayerCount: 2
Back
Fore
SplineSet
299 50 m 1,0,1
 283 45 283 45 270 42 c 0,2,3
 257 38 257 38 223 38 c 2,4,-1
 221 38 l 2,5,6
 189 38 189 38 139 80 c 0,7,8
 91 120 91 120 63 189 c 256,9,10
 35 258 35 258 35 348 c 0,11,12
 35 434 35 434 63 510 c 0,13,14
 91 585 91 585 139 626 c 0,15,16
 188 666 188 666 245 669 c 2,17,-1
 249 669 l 2,18,19
 296 669 296 669 329 647 c 0,20,21
 363 624 363 624 385 591 c 256,22,23
 407 558 407 558 422 522 c 256,24,25
 437 486 437 486 444 440 c 256,26,27
 451 394 451 394 453 340 c 0,28,29
 453 287 453 287 443 238 c 0,30,31
 435 200 435 200 415 157 c 0,32,33
 396 114 396 114 379 97 c 2,34,-1
 349 66 l 1,35,36
 351 32 351 32 351 10 c 2,37,-1
 351 -4 l 2,38,39
 351 -17 351 -17 352 -26 c 0,40,41
 354 -40 354 -40 369 -53 c 0,42,43
 380 -63 380 -63 392 -63 c 0,44,45
 395 -63 395 -63 399 -62 c 0,46,47
 410 -60 410 -60 420 -46 c 0,48,49
 431 -32 431 -32 438 2 c 256,50,51
 445 36 445 36 455 36 c 0,52,53
 464 36 464 36 471 30 c 0,54,55
 477 24 477 24 477 4 c 0,56,57
 477 -26 477 -26 469 -47 c 256,58,59
 461 -68 461 -68 447 -81 c 0,60,61
 435 -94 435 -94 416 -102 c 0,62,63
 403 -107 403 -107 389 -107 c 0,64,65
 382 -107 382 -107 375 -106 c 0,66,67
 347 -103 347 -103 331 -86 c 256,68,69
 315 -69 315 -69 309 -47 c 0,70,71
 303 -24 303 -24 303 -14 c 2,72,-1
 299 50 l 1,0,1
157 128 m 1,73,74
 161 158 161 158 166 175 c 0,75,76
 171 191 171 191 179 203 c 256,77,78
 187 215 187 215 201 225 c 0,79,80
 215 236 215 236 229 239 c 0,81,82
 234 240 234 240 240 240 c 0,83,84
 258 240 258 240 283 229 c 0,85,86
 317 214 317 214 326 185 c 2,87,-1
 347 130 l 1,88,89
 365 177 365 177 378 220 c 0,90,91
 390 261 390 261 390 338 c 2,92,-1
 390 350 l 2,93,94
 389 432 389 432 371 492 c 0,95,96
 353 553 353 553 319 588 c 0,97,98
 285 624 285 624 248 625 c 2,99,-1
 246 625 l 2,100,101
 210 625 210 625 173 588 c 0,102,103
 136 553 136 553 116 490 c 0,104,105
 96 428 96 428 95 355 c 2,106,-1
 95 339 l 2,107,108
 95 251 95 251 115 215 c 2,109,-1
 157 128 l 1,73,74
189 102 m 1,110,111
 200 91 200 91 220 78 c 0,112,113
 230 72 230 72 241 72 c 0,114,115
 253 72 253 72 267 78 c 2,116,-1
 298 90 l 1,117,118
 297 104 297 104 289 148 c 0,119,120
 282 191 282 191 246 191 c 2,121,-1
 244 191 l 2,122,123
 207 190 207 190 204 160 c 1,124,-1
 189 102 l 1,110,111
EndSplineSet
EndChar
StartChar: R
Encoding: 82 82 53
Width: 570
Flags: W
LayerCount: 2
Back
Fore
SplineSet
325 352 m 1,0,1
 340 340 340 340 352 329 c 0,2,3
 365 318 365 318 373 298 c 0,4,5
 383 277 383 277 383 255 c 0,6,7
 383 232 383 232 381 204 c 0,8,9
 379 178 379 178 373 152 c 0,10,11
 369 135 369 135 369 123 c 0,12,13
 369 116 369 116 371 110 c 0,14,15
 375 96 375 96 388 88 c 0,16,17
 400 81 400 81 423 81 c 2,18,-1
 429 81 l 2,19,20
 460 82 460 82 475 93 c 0,21,22
 489 103 489 103 499 127 c 256,23,24
 509 151 509 151 511 182 c 0,25,26
 512 213 512 213 517 230 c 0,27,28
 523 246 523 246 529 246 c 0,29,30
 535 244 535 244 541 234 c 0,31,32
 546 226 546 226 546 207 c 0,33,34
 546 201 546 201 545 194 c 2,35,-1
 543 142 l 2,36,37
 540 110 540 110 530 87 c 0,38,39
 519 63 519 63 503 50 c 0,40,41
 486 38 486 38 464 33 c 0,42,43
 454 31 454 31 440 31 c 0,44,45
 427 31 427 31 410 33 c 0,46,47
 377 36 377 36 359 46 c 256,48,49
 341 56 341 56 333 70 c 256,50,51
 325 84 325 84 323 104 c 0,52,53
 322 110 322 110 322 117 c 0,54,55
 322 136 322 136 326 165 c 0,56,57
 331 206 331 206 333 235 c 0,58,59
 333 263 333 263 322 286 c 0,60,61
 309 311 309 311 293 318 c 2,62,-1
 253 337 l 1,63,64
 215 334 215 334 207 334 c 2,65,-1
 173 332 l 1,66,-1
 171 242 l 2,67,68
 170 211 170 211 170 185 c 2,69,-1
 170 160 l 2,70,71
 171 125 171 125 171 112 c 0,72,73
 171 100 171 100 169 82 c 0,74,75
 168 70 168 70 165 46 c 0,76,77
 161 22 161 22 155 18 c 0,78,79
 150 14 150 14 144 12 c 2,80,-1
 143 12 l 2,81,82
 137 12 137 12 123 32 c 0,83,84
 110 50 110 50 106 59 c 0,85,86
 102 69 102 69 102 77 c 2,87,-1
 102 79 l 2,88,89
 102 88 102 88 109 114 c 0,90,91
 112 132 112 132 113 172 c 0,92,93
 115 212 115 212 115 234 c 2,94,-1
 117 446 l 1,95,-1
 117 483 l 1,96,-1
 115 510 l 2,97,98
 114 558 114 558 113 562 c 2,99,-1
 109 590 l 1,100,101
 91 586 91 586 79 586 c 2,102,-1
 72 586 l 2,103,104
 59 588 59 588 48 598 c 256,105,106
 37 608 37 608 31 618 c 0,107,108
 26 627 26 627 26 631 c 2,109,-1
 26 632 l 2,110,111
 27 634 27 634 30 637 c 0,112,113
 32 639 32 639 43 639 c 2,114,-1
 61 639 l 2,115,116
 76 639 76 639 95 641 c 0,117,118
 121 644 121 644 155 646 c 2,119,-1
 241 652 l 2,120,121
 288 656 288 656 309 656 c 0,122,123
 349 656 349 656 378 648 c 256,124,125
 407 640 407 640 429 620 c 256,126,127
 451 600 451 600 460 566 c 0,128,129
 467 541 467 541 467 514 c 0,130,131
 467 505 467 505 466 496 c 0,132,133
 463 464 463 464 451 440 c 0,134,135
 439 417 439 417 414 395 c 0,136,137
 389 372 389 372 369 366 c 2,138,-1
 325 352 l 1,0,1
173 386 m 1,139,140
 205 386 205 386 229 388 c 0,141,142
 251 390 251 390 282 396 c 0,143,144
 312 402 312 402 337 413 c 0,145,146
 361 424 361 424 379 446 c 256,147,148
 397 468 397 468 402 500 c 0,149,150
 404 512 404 512 404 522 c 0,151,152
 404 541 404 541 398 556 c 0,153,154
 387 582 387 582 368 593 c 256,155,156
 349 604 349 604 307 604 c 0,157,158
 241 604 241 604 227 603 c 2,159,-1
 169 598 l 1,160,161
 175 572 175 572 176 558 c 2,162,-1
 176 547 l 2,163,164
 176 533 176 533 175 508 c 0,165,166
 173 470 173 470 173 428 c 2,167,-1
 173 386 l 1,139,140
EndSplineSet
EndChar
StartChar: S
Encoding: 83 83 54
Width: 436
Flags: W
LayerCount: 2
Back
Fore
SplineSet
258 87 m 0,0,1
 299 92 299 92 321 116 c 0,2,3
 343 138 343 138 349 177 c 0,4,5
 352 194 352 194 352 208 c 0,6,7
 352 227 352 227 347 242 c 0,8,9
 339 269 339 269 315 290 c 0,10,11
 292 312 292 312 265 324 c 2,12,-1
 193 354 l 2,13,14
 149 371 149 371 123 386 c 0,15,16
 96 401 96 401 76 422 c 0,17,18
 57 442 57 442 46 476 c 0,19,20
 42 489 42 489 42 505 c 0,21,22
 42 528 42 528 51 556 c 0,23,24
 62 590 62 590 87 615 c 0,25,26
 113 640 113 640 139 650 c 0,27,28
 166 660 166 660 197 662 c 0,29,30
 205 663 205 663 213 663 c 0,31,32
 235 663 235 663 253 658 c 0,33,34
 277 652 277 652 296 644 c 0,35,36
 315 635 315 635 329 622 c 0,37,38
 341 610 341 610 345 610 c 0,39,40
 346 610 346 610 347 611 c 0,41,42
 351 612 351 612 355 621 c 2,43,-1
 362 642 l 2,44,45
 369 654 369 654 378 654 c 2,46,-1
 380 654 l 2,47,48
 390 653 390 653 396 638 c 0,49,50
 398 630 398 630 398 616 c 2,51,-1
 398 544 l 2,52,53
 398 522 398 522 395 508 c 0,54,55
 391 490 391 490 385 487 c 0,56,57
 384 486 384 486 382 486 c 0,58,59
 376 486 376 486 365 498 c 0,60,61
 362 500 362 500 347 534 c 0,62,63
 332 566 332 566 298 589 c 0,64,65
 263 612 263 612 229 616 c 0,66,67
 221 617 221 617 214 617 c 0,68,69
 184 617 184 617 159 604 c 0,70,71
 128 588 128 588 111 558 c 0,72,73
 100 538 100 538 100 517 c 0,74,75
 100 506 100 506 103 495 c 0,76,77
 110 468 110 468 133 447 c 0,78,79
 157 427 157 427 206 406 c 0,80,81
 255 386 255 386 287 370 c 0,82,83
 319 355 319 355 349 332 c 0,84,85
 380 310 380 310 394 282 c 0,86,87
 408 255 408 255 410 217 c 0,88,89
 411 208 411 208 411 199 c 0,90,91
 411 170 411 170 403 145 c 0,92,93
 394 114 394 114 375 90 c 256,94,95
 356 66 356 66 326 52 c 0,96,97
 297 38 297 38 257 36 c 2,98,-1
 244 36 l 2,99,100
 205 36 205 36 175 46 c 0,101,102
 139 60 139 60 117 77 c 0,103,104
 95 95 95 95 79 115 c 0,105,106
 63 134 63 134 57 146 c 256,107,108
 51 158 51 158 46 172 c 0,109,110
 42 182 42 182 42 190 c 0,111,112
 42 193 42 193 43 196 c 0,113,114
 44 206 44 206 51 208 c 2,115,-1
 54 208 l 2,116,117
 61 208 61 208 69 202 c 0,118,119
 73 198 73 198 85 178 c 0,120,121
 96 158 96 158 119 138 c 0,122,123
 142 120 142 120 165 106 c 0,124,125
 189 94 189 94 215 89 c 0,126,127
 232 86 232 86 244 86 c 0,128,129
 252 86 252 86 258 87 c 0,0,1
258 87 m 0,130,131
 299 92 299 92 321 116 c 0,132,133
 343 138 343 138 349 177 c 0,134,135
 352 194 352 194 352 208 c 0,136,137
 352 227 352 227 347 242 c 0,138,139
 339 269 339 269 315 290 c 0,140,141
 292 312 292 312 265 324 c 0,142,143
 237 336 237 336 193 354 c 0,144,145
 149 371 149 371 123 386 c 0,146,147
 96 401 96 401 76 422 c 0,148,149
 57 442 57 442 46 476 c 0,150,151
 42 489 42 489 42 505 c 0,152,153
 42 528 42 528 51 556 c 0,154,155
 62 590 62 590 87 615 c 0,156,157
 113 640 113 640 139 650 c 0,158,159
 166 660 166 660 197 662 c 0,160,161
 205 663 205 663 213 663 c 0,162,163
 235 663 235 663 253 658 c 0,164,165
 277 652 277 652 296 644 c 0,166,167
 315 635 315 635 329 622 c 0,168,169
 341 610 341 610 345 610 c 0,170,171
 346 610 346 610 347 611 c 0,172,173
 351 612 351 612 355 621 c 2,174,-1
 362 642 l 2,175,176
 369 654 369 654 378 654 c 2,177,-1
 380 654 l 2,178,179
 390 653 390 653 396 638 c 0,180,181
 398 630 398 630 398 616 c 2,182,-1
 398 544 l 2,183,184
 398 522 398 522 395 508 c 0,185,186
 391 490 391 490 385 487 c 0,187,188
 384 486 384 486 382 486 c 0,189,190
 376 486 376 486 365 498 c 0,191,192
 362 500 362 500 347 534 c 0,193,194
 332 566 332 566 298 589 c 0,195,196
 263 612 263 612 229 616 c 0,197,198
 221 617 221 617 214 617 c 0,199,200
 184 617 184 617 159 604 c 0,201,202
 128 588 128 588 111 558 c 0,203,204
 100 538 100 538 100 517 c 0,205,206
 100 506 100 506 103 495 c 0,207,208
 110 468 110 468 133 447 c 0,209,210
 157 427 157 427 206 406 c 0,211,212
 255 386 255 386 287 370 c 0,213,214
 319 355 319 355 349 332 c 0,215,216
 380 310 380 310 394 282 c 0,217,218
 408 255 408 255 410 217 c 0,219,220
 411 208 411 208 411 199 c 0,221,222
 411 170 411 170 403 145 c 0,223,224
 394 114 394 114 375 90 c 256,225,226
 356 66 356 66 326 52 c 0,227,228
 297 38 297 38 257 36 c 2,229,-1
 244 36 l 2,230,231
 205 36 205 36 175 46 c 0,232,233
 139 60 139 60 117 77 c 0,234,235
 95 95 95 95 79 115 c 0,236,237
 63 134 63 134 57 146 c 256,238,239
 51 158 51 158 46 172 c 0,240,241
 42 182 42 182 42 190 c 0,242,243
 42 193 42 193 43 196 c 0,244,245
 44 206 44 206 51 208 c 2,246,-1
 54 208 l 2,247,248
 61 208 61 208 69 202 c 0,249,250
 73 198 73 198 85 178 c 0,251,252
 96 158 96 158 119 138 c 0,253,254
 142 120 142 120 165 106 c 0,255,256
 189 94 189 94 215 89 c 0,257,258
 232 86 232 86 244 86 c 0,259,260
 252 86 252 86 258 87 c 0,130,131
EndSplineSet
EndChar
StartChar: T
Encoding: 84 84 55
Width: 511
Flags: W
LayerCount: 2
Back
Fore
SplineSet
219 596 m 1,0,-1
 180 591 l 2,1,2
 164 588 164 588 138 584 c 0,3,4
 121 581 121 581 109 581 c 0,5,6
 103 581 103 581 98 582 c 0,7,8
 82 584 82 584 66 595 c 0,9,10
 49 606 49 606 41 618 c 0,11,12
 34 629 34 629 34 635 c 2,13,-1
 34 636 l 2,14,15
 34 642 34 642 55 642 c 2,16,-1
 67 642 l 1,17,-1
 113 640 l 1,18,-1
 123 640 l 2,19,20
 153 640 153 640 216 644 c 0,21,22
 291 648 291 648 322 650 c 0,23,24
 354 652 354 652 380 657 c 0,25,26
 402 662 402 662 413 662 c 2,27,-1
 416 662 l 2,28,29
 425 660 425 660 440 654 c 256,30,31
 455 648 455 648 468 637 c 0,32,33
 478 628 478 628 478 620 c 2,34,-1
 478 618 l 2,35,36
 476 610 476 610 454 606 c 0,37,38
 442 604 442 604 418 604 c 256,39,40
 394 604 394 604 358 601 c 0,41,42
 331 599 331 599 320 599 c 2,43,-1
 271 599 l 1,44,45
 284 584 284 584 292 573 c 0,46,47
 298 562 298 562 300 552 c 0,48,49
 300 542 300 542 293 512 c 0,50,51
 288 496 288 496 285 466 c 0,52,53
 281 438 281 438 280 409 c 2,54,-1
 280 315 l 2,55,56
 280 250 280 250 278 198 c 0,57,58
 277 163 277 163 277 141 c 2,59,-1
 277 94 l 2,60,61
 276 78 276 78 272 58 c 0,62,63
 268 37 268 37 263 32 c 0,64,65
 257 28 257 28 252 28 c 2,66,-1
 251 28 l 2,67,68
 246 28 246 28 238 41 c 0,69,70
 228 53 228 53 221 64 c 256,71,72
 214 75 214 75 208 87 c 256,73,74
 202 99 202 99 202 109 c 256,75,76
 202 119 202 119 210 145 c 0,77,78
 214 160 214 160 217 181 c 0,79,80
 221 202 221 202 224 251 c 0,81,82
 228 300 228 300 228 342 c 2,83,-1
 228 392 l 1,84,-1
 229 437 l 1,85,-1
 229 476 l 2,86,87
 228 520 228 520 226 534 c 2,88,-1
 219 596 l 1,0,-1
219 596 m 1,89,90
 196 593 196 593 180 591 c 0,91,92
 164 588 164 588 138 584 c 0,93,94
 121 581 121 581 109 581 c 0,95,96
 103 581 103 581 98 582 c 0,97,98
 82 584 82 584 66 595 c 0,99,100
 49 606 49 606 41 618 c 0,101,102
 34 629 34 629 34 635 c 2,103,-1
 34 636 l 2,104,105
 34 642 34 642 55 642 c 2,106,-1
 67 642 l 1,107,-1
 113 640 l 1,108,-1
 123 640 l 2,109,110
 153 640 153 640 216 644 c 0,111,112
 291 648 291 648 322 650 c 0,113,114
 354 652 354 652 380 657 c 0,115,116
 402 662 402 662 413 662 c 2,117,-1
 416 662 l 2,118,119
 425 660 425 660 440 654 c 256,120,121
 455 648 455 648 468 637 c 0,122,123
 478 628 478 628 478 620 c 2,124,-1
 478 618 l 2,125,126
 476 610 476 610 454 606 c 0,127,128
 442 604 442 604 418 604 c 256,129,130
 394 604 394 604 358 601 c 0,131,132
 331 599 331 599 320 599 c 2,133,-1
 271 599 l 1,134,135
 284 584 284 584 292 573 c 0,136,137
 298 562 298 562 300 552 c 0,138,139
 300 542 300 542 293 512 c 0,140,141
 288 496 288 496 285 466 c 0,142,143
 281 438 281 438 280 409 c 2,144,-1
 280 315 l 2,145,146
 280 250 280 250 278 198 c 0,147,148
 277 163 277 163 277 141 c 2,149,-1
 277 94 l 2,150,151
 276 78 276 78 272 58 c 0,152,153
 268 37 268 37 263 32 c 0,154,155
 257 28 257 28 252 28 c 2,156,-1
 251 28 l 2,157,158
 246 28 246 28 238 41 c 0,159,160
 228 53 228 53 221 64 c 256,161,162
 214 75 214 75 208 87 c 256,163,164
 202 99 202 99 202 109 c 256,165,166
 202 119 202 119 210 145 c 0,167,168
 214 160 214 160 217 181 c 0,169,170
 221 202 221 202 224 251 c 0,171,172
 228 300 228 300 228 342 c 2,173,-1
 228 392 l 1,174,-1
 229 437 l 1,175,-1
 229 476 l 2,176,177
 228 520 228 520 226 534 c 2,178,-1
 219 596 l 1,89,90
EndSplineSet
EndChar
StartChar: U
Encoding: 85 85 56
Width: 479
Flags: W
LayerCount: 2
Back
Fore
SplineSet
134 622 m 0,0,1
 133 620 133 620 132 615 c 0,2,3
 130 610 130 610 124 596 c 256,4,5
 118 582 118 582 114 558 c 0,6,7
 111 535 111 535 106 504 c 0,8,9
 104 472 104 472 104 412 c 0,10,11
 105 382 105 382 105 356 c 256,12,13
 105 330 105 330 104 308 c 2,14,-1
 104 248 l 2,15,16
 104 202 104 202 110 174 c 0,17,18
 116 147 116 147 132 127 c 0,19,20
 147 107 147 107 172 96 c 256,21,22
 197 85 197 85 234 84 c 0,23,24
 280 84 280 84 306 98 c 256,25,26
 332 112 332 112 348 140 c 0,27,28
 364 169 364 169 366 201 c 0,29,30
 368 234 368 234 368 260 c 2,31,-1
 368 349 l 2,32,33
 369 380 369 380 369 406 c 0,34,35
 369 431 369 431 368 451 c 2,36,-1
 368 495 l 1,37,-1
 370 578 l 2,38,39
 369 606 369 606 366 615 c 0,40,41
 361 624 361 624 352 642 c 0,42,43
 344 656 344 656 344 663 c 2,44,-1
 344 665 l 1,45,46
 349 670 349 670 360 672 c 0,47,48
 364 673 364 673 368 673 c 0,49,50
 377 673 377 673 386 669 c 0,51,52
 400 664 400 664 422 652 c 0,53,54
 444 642 444 642 446 634 c 0,55,56
 450 626 450 626 450 622 c 256,57,58
 450 618 450 618 448 612 c 256,59,60
 446 606 446 606 440 592 c 256,61,62
 434 578 434 578 430 566 c 256,63,64
 426 554 426 554 424 516 c 2,65,-1
 420 451 l 1,66,-1
 420 392 l 2,67,68
 420 344 420 344 418 288 c 0,69,70
 417 231 417 231 416 204 c 256,71,72
 415 177 415 177 410 154 c 0,73,74
 405 132 405 132 390 109 c 0,75,76
 378 86 378 86 359 70 c 256,77,78
 340 54 340 54 322 46 c 256,79,80
 304 38 304 38 280 34 c 0,81,82
 264 31 264 31 245 31 c 0,83,84
 234 31 234 31 222 32 c 0,85,86
 166 35 166 35 130 58 c 0,87,88
 93 82 93 82 76 116 c 0,89,90
 60 150 60 150 56 194 c 0,91,92
 52 227 52 227 52 277 c 2,93,-1
 52 382 l 2,94,95
 54 438 54 438 54 481 c 0,96,97
 53 510 53 510 53 532 c 2,98,-1
 53 552 l 2,99,100
 54 580 54 580 54 593 c 0,101,102
 52 612 52 612 46 624 c 2,103,-1
 34 644 l 2,104,105
 28 652 28 652 28 659 c 256,106,107
 28 666 28 666 32 670 c 256,108,109
 36 674 36 674 44 674 c 0,110,111
 58 674 58 674 74 669 c 256,112,113
 90 664 90 664 102 657 c 256,114,115
 114 650 114 650 122 642 c 0,116,117
 131 633 131 633 132 629 c 0,118,119
 134 625 134 625 134 622 c 0,0,1
134 622 m 0,120,121
 132 620 132 620 131 615 c 256,122,123
 130 610 130 610 124 596 c 256,124,125
 118 582 118 582 114 558 c 0,126,127
 110 535 110 535 106 504 c 0,128,129
 104 472 104 472 104 412 c 2,130,-1
 104 248 l 2,131,132
 104 202 104 202 110 174 c 0,133,134
 116 147 116 147 131 127 c 256,135,136
 146 107 146 107 171 96 c 256,137,138
 196 85 196 85 234 84 c 0,139,140
 280 84 280 84 306 98 c 256,141,142
 332 112 332 112 348 140 c 0,143,144
 364 169 364 169 366 201 c 0,145,146
 368 234 368 234 368 260 c 2,147,-1
 368 349 l 2,148,149
 369 380 369 380 369 406 c 0,150,151
 369 431 369 431 368 451 c 2,152,-1
 368 495 l 1,153,-1
 370 578 l 2,154,155
 370 606 370 606 366 615 c 256,156,157
 362 624 362 624 352 642 c 0,158,159
 344 656 344 656 344 663 c 2,160,-1
 344 665 l 1,161,162
 348 670 348 670 360 672 c 0,163,164
 364 673 364 673 368 673 c 0,165,166
 377 673 377 673 386 669 c 0,167,168
 400 664 400 664 422 652 c 0,169,170
 444 642 444 642 446 634 c 0,171,172
 450 626 450 626 450 622 c 256,173,174
 450 618 450 618 448 612 c 256,175,176
 446 606 446 606 440 592 c 256,177,178
 434 578 434 578 430 566 c 256,179,180
 426 554 426 554 424 516 c 2,181,-1
 420 451 l 1,182,-1
 420 392 l 2,183,184
 420 344 420 344 418 288 c 0,185,186
 418 231 418 231 416 204 c 256,187,188
 414 177 414 177 410 154 c 0,189,190
 404 132 404 132 390 109 c 0,191,192
 378 86 378 86 359 70 c 256,193,194
 340 54 340 54 322 46 c 256,195,196
 304 38 304 38 280 34 c 0,197,198
 264 31 264 31 245 31 c 0,199,200
 234 31 234 31 222 32 c 0,201,202
 166 35 166 35 130 58 c 0,203,204
 92 82 92 82 76 116 c 256,205,206
 60 150 60 150 56 194 c 0,207,208
 52 227 52 227 52 277 c 2,209,-1
 52 382 l 2,210,211
 54 438 54 438 54 481 c 0,212,213
 53 510 53 510 53 532 c 2,214,-1
 53 552 l 2,215,216
 54 580 54 580 54 593 c 0,217,218
 52 612 52 612 46 624 c 2,219,-1
 34 644 l 2,220,221
 28 652 28 652 28 659 c 256,222,223
 28 666 28 666 32 670 c 256,224,225
 36 674 36 674 44 674 c 0,226,227
 58 674 58 674 74 669 c 256,228,229
 90 664 90 664 102 657 c 256,230,231
 114 650 114 650 122 642 c 0,232,233
 130 633 130 633 132 629 c 256,234,235
 134 625 134 625 134 622 c 0,120,121
EndSplineSet
EndChar
StartChar: V
Encoding: 86 86 57
Width: 501
Flags: W
LayerCount: 2
Back
Fore
SplineSet
475 619 m 256,0,1
 475 614 475 614 463 592 c 2,2,-1
 446 566 l 2,3,4
 438 552 438 552 430 516 c 0,5,6
 422 481 422 481 409 431 c 2,7,-1
 376 309 l 1,8,-1
 352 219 l 2,9,10
 347 200 347 200 333 162 c 0,11,12
 321 123 321 123 311 96 c 2,13,-1
 294 53 l 2,14,15
 286 36 286 36 277 28 c 0,16,17
 267 20 267 20 257 20 c 256,18,19
 247 20 247 20 236 34 c 0,20,21
 229 44 229 44 221 66 c 2,22,-1
 199 128 l 2,23,24
 189 156 189 156 174 206 c 2,25,-1
 152 279 l 2,26,27
 145 302 145 302 132 350 c 256,28,29
 119 398 119 398 115 420 c 2,30,-1
 104 464 l 1,31,-1
 85 543 l 2,32,33
 75 582 75 582 70 598 c 0,34,35
 65 613 65 613 57 623 c 2,36,-1
 37 646 l 2,37,38
 31 655 31 655 31 660 c 0,39,40
 31 662 31 662 32 664 c 0,41,42
 35 670 35 670 43 672 c 0,43,44
 46 673 46 673 49 673 c 0,45,46
 58 673 58 673 70 669 c 0,47,48
 87 664 87 664 110 655 c 256,49,50
 133 646 133 646 140 638 c 256,51,52
 147 630 147 630 148 619 c 0,53,54
 148 616 148 616 144 600 c 0,55,56
 141 587 141 587 141 576 c 2,57,-1
 141 571 l 2,58,59
 141 558 141 558 149 516 c 256,60,61
 157 474 157 474 163 451 c 0,62,63
 168 428 168 428 184 370 c 2,64,-1
 211 270 l 2,65,66
 229 200 229 200 241 141 c 0,67,68
 251 85 251 85 258 85 c 2,69,-1
 259 85 l 2,70,71
 263 87 263 87 278 142 c 2,72,-1
 305 235 l 2,73,74
 315 268 315 268 331 344 c 0,75,76
 348 420 348 420 362 476 c 0,77,78
 375 530 375 530 377 542 c 256,79,80
 379 554 379 554 383 574 c 0,81,82
 385 594 385 594 386 602 c 0,83,84
 386 622 386 622 378 638 c 0,85,86
 370 652 370 652 370 660 c 2,87,-1
 370 662 l 2,88,89
 371 670 371 670 383 674 c 0,90,91
 387 675 387 675 391 675 c 0,92,93
 400 675 400 675 413 670 c 0,94,95
 429 662 429 662 441 655 c 0,96,97
 455 648 455 648 465 636 c 256,98,99
 475 624 475 624 475 619 c 256,0,1
475 619 m 256,100,101
 475 614 475 614 463 592 c 2,102,-1
 446 566 l 2,103,104
 438 552 438 552 430 516 c 0,105,106
 422 481 422 481 409 431 c 0,107,108
 395 380 395 380 376 309 c 0,109,110
 357 237 357 237 352 219 c 0,111,112
 347 200 347 200 333 162 c 0,113,114
 321 123 321 123 311 96 c 0,115,116
 301 70 301 70 294 53 c 0,117,118
 286 36 286 36 277 28 c 0,119,120
 267 20 267 20 257 20 c 256,121,122
 247 20 247 20 236 34 c 0,123,124
 229 44 229 44 221 66 c 2,125,-1
 199 128 l 2,126,127
 189 156 189 156 174 206 c 256,128,129
 159 256 159 256 152 279 c 256,130,131
 145 302 145 302 132 350 c 256,132,133
 119 398 119 398 115 420 c 2,134,-1
 104 464 l 1,135,-1
 85 543 l 2,136,137
 75 582 75 582 70 598 c 0,138,139
 65 613 65 613 57 623 c 2,140,-1
 37 646 l 2,141,142
 31 655 31 655 31 660 c 0,143,144
 31 662 31 662 32 664 c 0,145,146
 35 670 35 670 43 672 c 0,147,148
 46 673 46 673 49 673 c 0,149,150
 58 673 58 673 70 669 c 0,151,152
 87 664 87 664 110 655 c 256,153,154
 133 646 133 646 140 638 c 256,155,156
 147 630 147 630 148 619 c 0,157,158
 148 616 148 616 144 600 c 0,159,160
 141 587 141 587 141 576 c 2,161,-1
 141 571 l 2,162,163
 141 558 141 558 149 516 c 256,164,165
 157 474 157 474 163 451 c 0,166,167
 168 428 168 428 184 370 c 2,168,-1
 211 270 l 2,169,170
 229 200 229 200 241 141 c 0,171,172
 251 85 251 85 258 85 c 2,173,-1
 259 85 l 2,174,175
 263 87 263 87 278 142 c 2,176,-1
 305 235 l 2,177,178
 315 268 315 268 331 344 c 0,179,180
 348 420 348 420 362 476 c 0,181,182
 375 530 375 530 377 542 c 256,183,184
 379 554 379 554 383 574 c 0,185,186
 385 594 385 594 386 602 c 0,187,188
 386 622 386 622 378 638 c 0,189,190
 370 652 370 652 370 660 c 2,191,-1
 370 662 l 2,192,193
 371 670 371 670 383 674 c 0,194,195
 387 675 387 675 391 675 c 0,196,197
 400 675 400 675 413 670 c 0,198,199
 429 662 429 662 441 655 c 0,200,201
 455 648 455 648 465 636 c 256,202,203
 475 624 475 624 475 619 c 256,100,101
EndSplineSet
EndChar
StartChar: W
Encoding: 87 87 58
Width: 663
Flags: W
LayerCount: 2
Back
Fore
SplineSet
339 434 m 1,0,1
 331 391 331 391 321 342 c 0,2,3
 311 294 311 294 299 245 c 2,4,-1
 280 170 l 2,5,6
 273 142 273 142 262 107 c 0,7,8
 252 72 252 72 246 56 c 0,9,10
 241 40 241 40 232 32 c 0,11,12
 224 24 224 24 216 24 c 256,13,14
 208 24 208 24 197 44 c 0,15,16
 191 54 191 54 184 76 c 256,17,18
 177 98 177 98 168 130 c 2,19,-1
 149 203 l 2,20,21
 139 242 139 242 129 286 c 2,22,-1
 113 355 l 1,23,-1
 101 418 l 1,24,-1
 89 474 l 1,25,-1
 77 545 l 2,26,27
 71 576 71 576 65 596 c 0,28,29
 59 615 59 615 53 625 c 2,30,-1
 37 648 l 2,31,32
 32 656 32 656 32 662 c 0,33,34
 32 664 32 664 33 666 c 0,35,36
 35 672 35 672 43 674 c 0,37,38
 46 675 46 675 51 675 c 0,39,40
 59 675 59 675 71 672 c 2,41,-1
 103 662 l 2,42,43
 119 656 119 656 128 649 c 0,44,45
 137 641 137 641 137 630 c 0,46,47
 137 627 137 627 131 612 c 0,48,49
 127 600 127 600 127 586 c 2,50,-1
 127 580 l 2,51,52
 127 566 127 566 135 531 c 2,53,-1
 149 448 l 2,54,55
 151 434 151 434 163 368 c 2,56,-1
 186 254 l 2,57,58
 197 206 197 206 205 158 c 0,59,60
 212 114 212 114 217 114 c 2,61,-1
 218 114 l 2,62,63
 221 116 221 116 233 168 c 2,64,-1
 253 256 l 2,65,66
 259 282 259 282 271 343 c 0,67,68
 283 405 283 405 292 462 c 0,69,70
 301 518 301 518 305 541 c 0,71,72
 310 564 310 564 312 583 c 0,73,74
 314 603 314 603 320 617 c 0,75,76
 326 630 326 630 341 633 c 2,77,-1
 343 633 l 2,78,79
 356 633 356 633 369 604 c 0,80,81
 373 594 373 594 374 577 c 256,82,83
 375 560 375 560 380 534 c 256,84,85
 385 508 385 508 391 462 c 256,86,87
 397 416 397 416 405 376 c 0,88,89
 411 335 411 335 424 278 c 0,90,91
 436 222 436 222 444 161 c 0,92,93
 450 106 450 106 456 106 c 2,94,-1
 457 106 l 1,95,96
 459 110 459 110 469 150 c 2,97,-1
 481 199 l 1,98,-1
 489 249 l 1,99,-1
 508 340 l 2,100,101
 509 346 509 346 526 438 c 2,102,-1
 541 514 l 2,103,104
 546 546 546 546 549 568 c 0,105,106
 553 592 553 592 555 606 c 0,107,108
 555 624 555 624 550 640 c 0,109,110
 546 652 546 652 546 658 c 2,111,-1
 546 662 l 2,112,113
 547 668 547 668 560 672 c 0,114,115
 563 673 563 673 566 673 c 0,116,117
 579 673 579 673 598 662 c 0,118,119
 608 656 608 656 623 645 c 0,120,121
 637 634 637 634 637 616 c 0,122,123
 637 608 637 608 629 596 c 0,124,125
 622 584 622 584 616 572 c 0,126,127
 609 560 609 560 601 520 c 0,128,129
 593 481 593 481 582 433 c 0,130,131
 571 386 571 386 557 316 c 2,132,-1
 535 222 l 1,133,-1
 521 168 l 2,134,135
 513 137 513 137 502 104 c 0,136,137
 492 71 492 71 486 55 c 0,138,139
 481 38 481 38 472 30 c 256,140,141
 463 22 463 22 455 22 c 256,142,143
 447 22 447 22 438 36 c 0,144,145
 431 46 431 46 425 68 c 2,146,-1
 407 132 l 2,147,148
 399 160 399 160 386 210 c 0,149,150
 374 260 374 260 369 284 c 0,151,152
 363 308 363 308 351 371 c 2,153,-1
 339 434 l 1,0,1
339 434 m 1,154,155
 331 391 331 391 321 342 c 0,156,157
 311 294 311 294 299 245 c 0,158,159
 287 197 287 197 280 170 c 0,160,161
 273 142 273 142 262 107 c 0,162,163
 252 72 252 72 246 56 c 0,164,165
 241 40 241 40 232 32 c 0,166,167
 224 24 224 24 216 24 c 256,168,169
 208 24 208 24 197 44 c 0,170,171
 191 54 191 54 184 76 c 256,172,173
 177 98 177 98 168 130 c 0,174,175
 159 163 159 163 149 203 c 0,176,177
 139 242 139 242 129 286 c 256,178,179
 119 330 119 330 113 355 c 2,180,-1
 101 418 l 1,181,-1
 89 474 l 1,182,-1
 77 545 l 2,183,184
 71 576 71 576 65 596 c 0,185,186
 59 615 59 615 53 625 c 2,187,-1
 37 648 l 2,188,189
 32 656 32 656 32 662 c 0,190,191
 32 664 32 664 33 666 c 0,192,193
 35 672 35 672 43 674 c 0,194,195
 46 675 46 675 51 675 c 0,196,197
 59 675 59 675 71 672 c 2,198,-1
 103 662 l 2,199,200
 119 656 119 656 128 649 c 0,201,202
 137 641 137 641 137 630 c 0,203,204
 137 627 137 627 131 612 c 0,205,206
 127 600 127 600 127 586 c 2,207,-1
 127 580 l 2,208,209
 127 566 127 566 135 531 c 2,210,-1
 149 448 l 2,211,212
 151 434 151 434 163 368 c 0,213,214
 176 302 176 302 186 254 c 0,215,216
 197 206 197 206 205 158 c 0,217,218
 212 114 212 114 217 114 c 2,219,-1
 218 114 l 2,220,221
 221 116 221 116 233 168 c 2,222,-1
 253 256 l 2,223,224
 259 282 259 282 271 343 c 0,225,226
 283 405 283 405 292 462 c 0,227,228
 301 518 301 518 305 541 c 0,229,230
 310 564 310 564 312 583 c 0,231,232
 314 603 314 603 320 617 c 0,233,234
 326 630 326 630 341 633 c 2,235,-1
 343 633 l 2,236,237
 356 633 356 633 369 604 c 0,238,239
 373 594 373 594 374 577 c 256,240,241
 375 560 375 560 380 534 c 256,242,243
 385 508 385 508 391 462 c 256,244,245
 397 416 397 416 405 376 c 0,246,247
 411 335 411 335 424 278 c 0,248,249
 436 222 436 222 444 161 c 0,250,251
 450 106 450 106 456 106 c 2,252,-1
 457 106 l 1,253,254
 459 110 459 110 469 150 c 2,255,-1
 481 199 l 1,256,-1
 489 249 l 1,257,-1
 508 340 l 2,258,259
 509 346 509 346 526 438 c 2,260,-1
 541 514 l 2,261,262
 546 546 546 546 549 568 c 0,263,264
 553 592 553 592 555 606 c 0,265,266
 555 624 555 624 550 640 c 0,267,268
 546 652 546 652 546 658 c 2,269,-1
 546 662 l 2,270,271
 547 668 547 668 560 672 c 0,272,273
 563 673 563 673 566 673 c 0,274,275
 579 673 579 673 598 662 c 0,276,277
 608 656 608 656 623 645 c 0,278,279
 637 634 637 634 637 616 c 0,280,281
 637 608 637 608 629 596 c 0,282,283
 622 584 622 584 616 572 c 0,284,285
 609 560 609 560 601 520 c 0,286,287
 593 481 593 481 582 433 c 0,288,289
 571 386 571 386 557 316 c 0,290,291
 541 247 541 247 535 222 c 0,292,293
 529 198 529 198 521 168 c 0,294,295
 513 137 513 137 502 104 c 0,296,297
 492 71 492 71 486 55 c 0,298,299
 481 38 481 38 472 30 c 256,300,301
 463 22 463 22 455 22 c 256,302,303
 447 22 447 22 438 36 c 0,304,305
 431 46 431 46 425 68 c 2,306,-1
 407 132 l 2,307,308
 399 160 399 160 386 210 c 0,309,310
 374 260 374 260 369 284 c 0,311,312
 363 308 363 308 351 371 c 2,313,-1
 339 434 l 1,154,155
EndSplineSet
EndChar
StartChar: X
Encoding: 88 88 59
Width: 505
Flags: W
LayerCount: 2
Back
Fore
SplineSet
261 318 m 1,0,-1
 214 241 l 1,1,-1
 175 179 l 1,2,-1
 137 118 l 2,3,4
 123 94 123 94 116 86 c 256,5,6
 109 78 109 78 85 54 c 0,7,8
 62 30 62 30 50 30 c 2,9,-1
 49 30 l 2,10,11
 45 30 45 30 40 33 c 0,12,13
 36 35 36 35 36 50 c 0,14,15
 36 56 36 56 37 64 c 0,16,17
 41 101 41 101 43 109 c 256,18,19
 45 117 45 117 49 124 c 0,20,21
 54 132 54 132 72 146 c 0,22,23
 91 160 91 160 105 177 c 256,24,25
 119 194 119 194 142 228 c 2,26,-1
 187 297 l 1,27,-1
 233 368 l 1,28,-1
 195 436 l 2,29,30
 181 461 181 461 146 513 c 2,31,-1
 97 591 l 2,32,33
 81 616 81 616 61 632 c 0,34,35
 41 647 41 647 39 656 c 0,36,37
 37 660 37 660 37 664 c 0,38,39
 37 667 37 667 39 670 c 0,40,41
 42 673 42 673 51 673 c 0,42,43
 56 673 56 673 64 672 c 0,44,45
 103 666 103 666 115 663 c 0,46,47
 126 660 126 660 146 652 c 256,48,49
 166 644 166 644 169 635 c 0,50,51
 169 634 169 634 167 618 c 2,52,-1
 167 610 l 2,53,54
 167 597 167 597 171 585 c 0,55,56
 177 567 177 567 191 538 c 0,57,58
 206 508 206 508 229 470 c 2,59,-1
 263 410 l 1,60,61
 281 436 281 436 290 448 c 2,62,-1
 338 516 l 1,63,-1
 390 593 l 1,64,-1
 427 646 l 2,65,66
 433 654 433 654 443 665 c 0,67,68
 451 674 451 674 459 674 c 2,69,-1
 462 674 l 2,70,71
 470 672 470 672 472 644 c 0,72,73
 473 634 473 634 473 626 c 0,74,75
 473 608 473 608 470 595 c 0,76,77
 466 575 466 575 457 566 c 2,78,-1
 436 554 l 2,79,80
 423 547 423 547 403 520 c 2,81,-1
 365 470 l 1,82,-1
 325 418 l 1,83,-1
 289 368 l 1,84,-1
 330 296 l 1,85,-1
 372 225 l 1,86,-1
 407 163 l 1,87,-1
 433 118 l 2,88,89
 441 104 441 104 443 100 c 2,90,-1
 457 73 l 2,91,92
 465 55 465 55 465 45 c 0,93,94
 465 42 465 42 464 40 c 0,95,96
 462 36 462 36 459 34 c 0,97,98
 457 33 457 33 454 33 c 2,99,-1
 453 33 l 2,100,101
 446 33 446 33 432 42 c 2,102,-1
 393 60 l 2,103,104
 376 68 376 68 369 78 c 0,105,106
 363 87 363 87 359 107 c 256,107,108
 355 127 355 127 352 139 c 0,109,110
 349 152 349 152 331 186 c 2,111,-1
 294 258 l 1,112,-1
 277 288 l 1,113,-1
 261 318 l 1,0,-1
261 318 m 1,114,115
 229 266 229 266 214 241 c 256,116,117
 199 216 199 216 175 179 c 0,118,119
 152 142 152 142 137 118 c 0,120,121
 123 94 123 94 116 86 c 256,122,123
 109 78 109 78 85 54 c 0,124,125
 62 30 62 30 50 30 c 2,126,-1
 49 30 l 2,127,128
 45 30 45 30 40 33 c 0,129,130
 36 35 36 35 36 50 c 0,131,132
 36 56 36 56 37 64 c 0,133,134
 41 101 41 101 43 109 c 256,135,136
 45 117 45 117 49 124 c 0,137,138
 54 132 54 132 72 146 c 0,139,140
 91 160 91 160 105 177 c 256,141,142
 119 194 119 194 142 228 c 256,143,144
 165 262 165 262 187 297 c 2,145,-1
 233 368 l 1,146,147
 210 410 210 410 195 436 c 0,148,149
 181 461 181 461 146 513 c 0,150,151
 112 566 112 566 97 591 c 0,152,153
 81 616 81 616 61 632 c 0,154,155
 41 647 41 647 39 656 c 0,156,157
 37 660 37 660 37 664 c 0,158,159
 37 667 37 667 39 670 c 0,160,161
 42 673 42 673 51 673 c 0,162,163
 56 673 56 673 64 672 c 0,164,165
 103 666 103 666 115 663 c 0,166,167
 126 660 126 660 146 652 c 256,168,169
 166 644 166 644 169 635 c 0,170,171
 169 634 169 634 167 618 c 2,172,-1
 167 610 l 2,173,174
 167 597 167 597 171 585 c 0,175,176
 177 567 177 567 191 538 c 0,177,178
 206 508 206 508 229 470 c 2,179,-1
 263 410 l 1,180,181
 281 436 281 436 290 448 c 2,182,-1
 338 516 l 1,183,-1
 390 593 l 2,184,185
 421 637 421 637 427 646 c 0,186,187
 433 654 433 654 443 665 c 0,188,189
 451 674 451 674 459 674 c 2,190,-1
 462 674 l 2,191,192
 470 672 470 672 472 644 c 0,193,194
 473 634 473 634 473 626 c 0,195,196
 473 608 473 608 470 595 c 0,197,198
 466 575 466 575 457 566 c 2,199,-1
 436 554 l 2,200,201
 423 547 423 547 403 520 c 2,202,-1
 365 470 l 1,203,-1
 325 418 l 1,204,-1
 289 368 l 1,205,206
 316 320 316 320 330 296 c 2,207,-1
 372 225 l 2,208,209
 390 194 390 194 407 163 c 0,210,211
 425 132 425 132 433 118 c 256,212,213
 441 104 441 104 443 100 c 256,214,215
 445 96 445 96 457 73 c 0,216,217
 465 55 465 55 465 45 c 0,218,219
 465 42 465 42 464 40 c 0,220,221
 462 36 462 36 459 34 c 0,222,223
 457 33 457 33 454 33 c 2,224,-1
 453 33 l 2,225,226
 446 33 446 33 432 42 c 2,227,-1
 393 60 l 2,228,229
 376 68 376 68 369 78 c 0,230,231
 363 87 363 87 359 107 c 256,232,233
 355 127 355 127 352 139 c 0,234,235
 349 152 349 152 331 186 c 2,236,-1
 294 258 l 1,237,-1
 277 288 l 1,238,-1
 261 318 l 1,114,115
EndSplineSet
EndChar
StartChar: Y
Encoding: 89 89 60
Width: 472
Flags: W
LayerCount: 2
Back
Fore
SplineSet
203 311 m 1,0,-1
 184 354 l 1,1,-1
 155 417 l 2,2,3
 140 450 140 450 126 488 c 2,4,-1
 108 531 l 2,5,6
 104 542 104 542 92 570 c 256,7,8
 80 598 80 598 68 614 c 2,9,-1
 42 648 l 2,10,11
 35 660 35 660 35 666 c 0,12,13
 35 669 35 669 36 670 c 0,14,15
 39 673 39 673 51 673 c 2,16,-1
 58 673 l 2,17,18
 81 671 81 671 96 668 c 0,19,20
 110 664 110 664 126 655 c 256,21,22
 142 646 142 646 146 632 c 1,23,-1
 143 605 l 1,24,-1
 143 603 l 2,25,26
 143 591 143 591 155 559 c 2,27,-1
 170 510 l 1,28,-1
 196 440 l 2,29,30
 207 404 207 404 216 386 c 0,31,32
 224 366 224 366 233 366 c 2,33,-1
 234 366 l 2,34,35
 243 366 243 366 258 396 c 2,36,-1
 285 450 l 2,37,38
 303 486 303 486 312 506 c 2,39,-1
 348 590 l 2,40,41
 358 612 358 612 360 622 c 2,42,-1
 358 648 l 1,43,-1
 358 657 l 2,44,45
 358 673 358 673 364 676 c 0,46,47
 367 677 367 677 371 677 c 0,48,49
 378 677 378 677 388 673 c 0,50,51
 398 668 398 668 415 649 c 256,52,53
 432 630 432 630 439 619 c 0,54,55
 443 612 443 612 443 605 c 0,56,57
 443 601 443 601 442 598 c 0,58,59
 441 593 441 593 425 579 c 0,60,61
 410 566 410 566 398 548 c 2,62,-1
 364 491 l 2,63,64
 340 451 340 451 332 436 c 2,65,-1
 296 379 l 1,66,-1
 260 313 l 1,67,68
 258 288 258 288 257 274 c 2,69,-1
 257 223 l 2,70,71
 258 187 258 187 258 162 c 2,72,-1
 258 117 l 2,73,74
 256 99 256 99 255 75 c 0,75,76
 254 52 254 52 250 34 c 0,77,78
 247 16 247 16 239 12 c 1,79,-1
 237 12 l 2,80,81
 229 12 229 12 212 30 c 0,82,83
 199 44 199 44 188 68 c 0,84,85
 180 88 180 88 180 102 c 2,86,-1
 180 108 l 2,87,88
 180 112 180 112 189 132 c 256,89,90
 198 152 198 152 202 182 c 0,91,92
 206 207 206 207 206 228 c 2,93,-1
 206 236 l 1,94,-1
 203 311 l 1,0,-1
203 311 m 1,95,96
 190 340 190 340 184 354 c 2,97,-1
 155 417 l 2,98,99
 140 450 140 450 126 488 c 2,100,-1
 108 531 l 2,101,102
 104 542 104 542 92 570 c 256,103,104
 80 598 80 598 68 614 c 2,105,-1
 42 648 l 2,106,107
 35 660 35 660 35 666 c 0,108,109
 35 669 35 669 36 670 c 0,110,111
 39 673 39 673 51 673 c 2,112,-1
 58 673 l 2,113,114
 81 671 81 671 96 668 c 0,115,116
 110 664 110 664 126 655 c 256,117,118
 142 646 142 646 146 632 c 1,119,-1
 143 605 l 1,120,-1
 143 603 l 2,121,122
 143 591 143 591 155 559 c 2,123,-1
 170 510 l 1,124,-1
 196 440 l 2,125,126
 207 404 207 404 216 386 c 0,127,128
 224 366 224 366 233 366 c 2,129,-1
 234 366 l 2,130,131
 243 366 243 366 258 396 c 0,132,133
 268 416 268 416 285 450 c 0,134,135
 303 486 303 486 312 506 c 2,136,-1
 348 590 l 2,137,138
 358 612 358 612 360 622 c 2,139,-1
 358 648 l 1,140,-1
 358 657 l 2,141,142
 358 673 358 673 364 676 c 0,143,144
 367 677 367 677 371 677 c 0,145,146
 378 677 378 677 388 673 c 0,147,148
 398 668 398 668 415 649 c 256,149,150
 432 630 432 630 439 619 c 0,151,152
 443 612 443 612 443 605 c 0,153,154
 443 601 443 601 442 598 c 0,155,156
 441 593 441 593 425 579 c 0,157,158
 410 566 410 566 398 548 c 0,159,160
 388 532 388 532 364 491 c 0,161,162
 340 451 340 451 332 436 c 2,163,-1
 296 379 l 1,164,-1
 260 313 l 1,165,166
 258 288 258 288 257 274 c 2,167,-1
 257 223 l 2,168,169
 258 187 258 187 258 162 c 2,170,-1
 258 117 l 2,171,172
 256 99 256 99 255 75 c 0,173,174
 254 52 254 52 250 34 c 0,175,176
 247 16 247 16 239 12 c 1,177,-1
 237 12 l 2,178,179
 229 12 229 12 212 30 c 0,180,181
 199 44 199 44 188 68 c 0,182,183
 180 88 180 88 180 102 c 2,184,-1
 180 108 l 2,185,186
 180 112 180 112 189 132 c 256,187,188
 198 152 198 152 202 182 c 0,189,190
 206 207 206 207 206 228 c 2,191,-1
 206 236 l 1,192,-1
 203 311 l 1,95,96
EndSplineSet
EndChar
StartChar: Z
Encoding: 90 90 61
Width: 532
Flags: W
LayerCount: 2
Back
Fore
SplineSet
360 600 m 1,0,-1
 346 600 l 1,1,-1
 314 598 l 1,2,-1
 271 595 l 1,3,-1
 223 590 l 2,4,5
 192 588 192 588 177 584 c 0,6,7
 162 582 162 582 140 572 c 0,8,9
 122 564 122 564 112 564 c 2,10,-1
 109 564 l 2,11,12
 98 564 98 564 82 574 c 0,13,14
 66 583 66 583 51 600 c 0,15,16
 39 613 39 613 39 621 c 0,17,18
 39 623 39 623 40 624 c 0,19,20
 42 628 42 628 66 629 c 0,21,22
 90 629 90 629 121 631 c 256,23,24
 152 633 152 633 202 638 c 256,25,26
 252 643 252 643 254 644 c 2,27,-1
 296 646 l 1,28,-1
 341 650 l 2,29,30
 364 652 364 652 380 656 c 0,31,32
 394 660 394 660 399 660 c 0,33,34
 412 660 412 660 425 648 c 0,35,36
 439 636 439 636 442 621 c 0,37,38
 444 615 444 615 444 610 c 0,39,40
 444 602 444 602 440 595 c 0,41,42
 438 592 438 592 421 576 c 0,43,44
 404 559 404 559 392 539 c 2,45,-1
 360 484 l 1,46,-1
 317 404 l 1,47,-1
 254 291 l 2,48,49
 220 228 220 228 206 204 c 2,50,-1
 170 144 l 1,51,-1
 143 100 l 1,52,-1
 164 100 l 2,53,54
 170 100 170 100 201 102 c 256,55,56
 232 104 232 104 266 104 c 2,57,-1
 302 104 l 2,58,59
 324 104 324 104 347 107 c 256,60,61
 370 110 370 110 394 116 c 0,62,63
 418 124 418 124 424 124 c 0,64,65
 436 124 436 124 448 120 c 0,66,67
 460 114 460 114 474 104 c 256,68,69
 488 94 488 94 496 82 c 0,70,71
 501 74 501 74 501 68 c 0,72,73
 501 65 501 65 500 63 c 0,74,75
 498 56 498 56 473 56 c 2,76,-1
 436 56 l 1,77,-1
 382 59 l 2,78,79
 366 59 366 59 310 56 c 2,80,-1
 244 54 l 1,81,-1
 189 50 l 2,82,83
 157 47 157 47 138 39 c 0,84,85
 120 32 120 32 115 32 c 2,86,-1
 114 32 l 2,87,88
 103 32 103 32 88 47 c 0,89,90
 74 62 74 62 68 81 c 0,91,92
 66 91 66 91 66 98 c 256,93,94
 66 105 66 105 68 110 c 0,95,96
 70 112 70 112 86 124 c 0,97,98
 104 135 104 135 120 162 c 2,99,-1
 158 227 l 1,100,-1
 208 315 l 1,101,-1
 268 426 l 2,102,103
 314 508 314 508 316 514 c 2,104,-1
 360 600 l 1,0,-1
360 600 m 1,105,-1
 346 600 l 1,106,-1
 314 598 l 1,107,-1
 271 595 l 1,108,-1
 223 590 l 2,109,110
 192 588 192 588 177 584 c 0,111,112
 162 582 162 582 140 572 c 0,113,114
 122 564 122 564 112 564 c 2,115,-1
 109 564 l 2,116,117
 98 564 98 564 82 574 c 0,118,119
 66 583 66 583 51 600 c 0,120,121
 39 613 39 613 39 621 c 0,122,123
 39 623 39 623 40 624 c 0,124,125
 42 628 42 628 66 629 c 0,126,127
 90 629 90 629 121 631 c 256,128,129
 152 633 152 633 202 638 c 256,130,131
 252 643 252 643 254 644 c 2,132,-1
 296 646 l 1,133,-1
 341 650 l 2,134,135
 364 652 364 652 380 656 c 0,136,137
 394 660 394 660 399 660 c 0,138,139
 412 660 412 660 425 648 c 0,140,141
 439 636 439 636 442 621 c 0,142,143
 444 615 444 615 444 610 c 0,144,145
 444 602 444 602 440 595 c 0,146,147
 438 592 438 592 421 576 c 0,148,149
 404 559 404 559 392 539 c 256,150,151
 380 519 380 519 360 484 c 2,152,-1
 317 404 l 1,153,-1
 254 291 l 2,154,155
 220 228 220 228 206 204 c 0,156,157
 192 181 192 181 170 144 c 2,158,-1
 143 100 l 1,159,-1
 164 100 l 2,160,161
 170 100 170 100 201 102 c 256,162,163
 232 104 232 104 266 104 c 2,164,-1
 302 104 l 2,165,166
 324 104 324 104 347 107 c 256,167,168
 370 110 370 110 394 116 c 0,169,170
 418 124 418 124 424 124 c 0,171,172
 436 124 436 124 448 120 c 0,173,174
 460 114 460 114 474 104 c 256,175,176
 488 94 488 94 496 82 c 0,177,178
 501 74 501 74 501 68 c 0,179,180
 501 65 501 65 500 63 c 0,181,182
 498 56 498 56 473 56 c 2,183,-1
 436 56 l 1,184,-1
 382 59 l 2,185,186
 366 59 366 59 310 56 c 2,187,-1
 244 54 l 1,188,-1
 189 50 l 2,189,190
 157 47 157 47 138 39 c 0,191,192
 120 32 120 32 115 32 c 2,193,-1
 114 32 l 2,194,195
 103 32 103 32 88 47 c 0,196,197
 74 62 74 62 68 81 c 0,198,199
 66 91 66 91 66 98 c 256,200,201
 66 105 66 105 68 110 c 0,202,203
 70 112 70 112 86 124 c 0,204,205
 104 135 104 135 120 162 c 2,206,-1
 158 227 l 2,207,208
 178 261 178 261 208 315 c 2,209,-1
 268 426 l 2,210,211
 314 508 314 508 316 514 c 2,212,-1
 360 600 l 1,105,-1
EndSplineSet
EndChar
StartChar: bracketleft
Encoding: 91 91 62
Width: 279
Flags: W
LayerCount: 2
Back
Fore
SplineSet
41 -157 m 1,0,-1
 41 766 l 1,1,-1
 238 766 l 1,2,-1
 238 720 l 1,3,-1
 114 720 l 1,4,-1
 114 -112 l 1,5,-1
 238 -112 l 1,6,-1
 238 -157 l 1,7,-1
 41 -157 l 1,0,-1
EndSplineSet
EndChar
StartChar: backslash
Encoding: 92 92 63
Width: 645
Flags: W
LayerCount: 2
Back
Fore
SplineSet
552 -89 m 2,0,1
 559 -104 559 -104 559 -112 c 2,2,-1
 559 -115 l 2,3,4
 559 -121 559 -121 555 -124 c 0,5,6
 553 -126 553 -126 549 -126 c 0,7,8
 546 -126 546 -126 542 -124 c 0,9,10
 534 -120 534 -120 528 -108 c 2,11,-1
 96 686 l 2,12,13
 90 696 90 696 88 702 c 2,14,-1
 88 704 l 2,15,16
 88 709 88 709 91 712 c 0,17,18
 94 716 94 716 102 716 c 0,19,20
 110 714 110 714 114 708 c 2,21,-1
 552 -89 l 2,0,1
EndSplineSet
EndChar
StartChar: bracketright
Encoding: 93 93 64
Width: 280
Flags: W
LayerCount: 2
Back
Fore
SplineSet
40 -156 m 1,0,-1
 40 -106 l 1,1,-1
 162 -106 l 1,2,-1
 162 720 l 1,3,-1
 40 720 l 1,4,-1
 40 764 l 1,5,-1
 240 764 l 1,6,-1
 240 -156 l 1,7,-1
 40 -156 l 1,0,-1
EndSplineSet
EndChar
StartChar: asciicircum
Encoding: 94 94 65
Width: 330
Flags: W
LayerCount: 2
Back
Fore
SplineSet
25 532 m 1,0,-1
 131 701 l 1,1,-1
 162 752 l 1,2,-1
 305 532 l 1,3,-1
 292 532 l 1,4,-1
 165 638 l 1,5,-1
 43 536 l 1,6,-1
 25 532 l 1,0,-1
25 532 m 1,7,8
 104 658 104 658 131 701 c 2,9,-1
 162 752 l 1,10,-1
 305 532 l 1,11,-1
 292 532 l 1,12,-1
 165 638 l 1,13,-1
 43 536 l 1,14,-1
 25 532 l 1,7,8
EndSplineSet
EndChar
StartChar: underscore
Encoding: 95 95 66
Width: 512
Flags: W
LayerCount: 2
Back
Fore
SplineSet
5 -90 m 1,0,-1
 5 -47 l 1,1,-1
 507 -47 l 1,2,-1
 507 -90 l 1,3,-1
 5 -90 l 1,0,-1
EndSplineSet
EndChar
StartChar: grave
Encoding: 96 96 67
Width: 512
Flags: W
LayerCount: 2
Back
Fore
SplineSet
242 392 m 2,0,-1
 241 418 l 1,1,-1
 238 476 l 1,2,-1
 234 564 l 2,3,4
 232 604 232 604 228 651 c 256,5,6
 224 698 224 698 224 706 c 2,7,-1
 224 726 l 2,8,9
 224 745 224 745 232 755 c 256,10,11
 240 765 240 765 256 766 c 2,12,-1
 259 766 l 2,13,14
 273 766 273 766 280 756 c 0,15,16
 288 745 288 745 288 723 c 2,17,-1
 288 718 l 2,18,19
 287 702 287 702 284 665 c 0,20,21
 280 628 280 628 278 596 c 2,22,-1
 272 508 l 2,23,24
 271 500 271 500 267 442 c 2,25,-1
 264 397 l 2,26,27
 262 385 262 385 260 379 c 0,28,29
 258 374 258 374 254 373 c 0,30,31
 248 373 248 373 246 378 c 0,32,33
 242 384 242 384 242 392 c 2,0,-1
EndSplineSet
EndChar
StartChar: a
Encoding: 97 97 68
Width: 417
Flags: W
LayerCount: 2
Back
Fore
SplineSet
302 180 m 2,0,1
 305 150 305 150 305 131 c 2,2,-1
 305 126 l 2,3,4
 305 111 305 111 311 102 c 0,5,6
 317 94 317 94 328 94 c 2,7,-1
 330 94 l 2,8,9
 348 94 348 94 356 119 c 2,10,-1
 366 170 l 1,11,12
 374 184 374 184 385 184 c 2,13,-1
 386 184 l 2,14,15
 396 184 396 184 396 152 c 256,16,17
 396 120 396 120 392 100 c 0,18,19
 385 68 385 68 372 54 c 0,20,21
 358 42 358 42 335 39 c 0,22,23
 329 38 329 38 323 38 c 0,24,25
 307 38 307 38 292 44 c 0,26,27
 272 53 272 53 272 59 c 2,28,-1
 262 82 l 1,29,30
 231 57 231 57 211 48 c 0,31,32
 191 38 191 38 153 36 c 2,33,-1
 147 36 l 2,34,35
 113 36 113 36 82 56 c 0,36,37
 49 78 49 78 40 114 c 0,38,39
 35 134 35 134 35 155 c 0,40,41
 35 171 35 171 38 188 c 0,42,43
 46 226 46 226 64 248 c 0,44,45
 83 270 83 270 116 282 c 0,46,47
 150 294 150 294 195 298 c 2,48,-1
 242 303 l 1,49,50
 244 324 244 324 245 344 c 2,51,-1
 245 351 l 2,52,53
 245 367 245 367 241 383 c 0,54,55
 234 406 234 406 219 418 c 0,56,57
 204 431 204 431 181 434 c 2,58,-1
 171 434 l 2,59,60
 153 434 153 434 140 428 c 0,61,62
 125 418 125 418 116 401 c 2,63,-1
 100 372 l 1,64,65
 87 357 87 357 80 357 c 2,66,-1
 78 357 l 2,67,68
 69 360 69 360 66 379 c 0,69,70
 65 385 65 385 65 392 c 0,71,72
 65 404 65 404 68 416 c 0,73,74
 72 432 72 432 82 447 c 256,75,76
 92 462 92 462 122 472 c 0,77,78
 147 480 147 480 176 480 c 2,79,-1
 188 480 l 2,80,81
 215 478 215 478 237 470 c 0,82,83
 260 461 260 461 274 442 c 0,84,85
 290 422 290 422 296 392 c 256,86,87
 302 362 302 362 302 336 c 2,88,-1
 302 180 l 2,0,1
248 134 m 1,89,90
 246 176 246 176 246 183 c 2,91,-1
 244 263 l 1,92,93
 202 256 202 256 172 250 c 256,94,95
 142 244 142 244 120 230 c 0,96,97
 98 215 98 215 88 182 c 0,98,99
 84 168 84 168 84 156 c 0,100,101
 84 139 84 139 92 124 c 0,102,103
 106 99 106 99 130 89 c 0,104,105
 144 83 144 83 161 83 c 0,106,107
 173 83 173 83 186 86 c 0,108,109
 218 93 218 93 230 111 c 2,110,-1
 248 134 l 1,89,90
EndSplineSet
EndChar
StartChar: b
Encoding: 98 98 69
Width: 397
Flags: W
LayerCount: 2
Back
Fore
SplineSet
109 430 m 1,0,1
 134 452 134 452 150 461 c 0,2,3
 165 470 165 470 186 474 c 0,4,5
 199 477 199 477 213 477 c 0,6,7
 222 477 222 477 231 476 c 0,8,9
 247 474 247 474 270 464 c 0,10,11
 292 454 292 454 314 429 c 0,12,13
 336 403 336 403 347 362 c 0,14,15
 358 322 358 322 360 290 c 0,16,17
 363 258 363 258 363 230 c 0,18,19
 362 185 362 185 355 150 c 0,20,21
 347 116 347 116 329 91 c 0,22,23
 312 66 312 66 288 50 c 256,24,25
 264 34 264 34 225 32 c 2,26,-1
 214 32 l 2,27,28
 196 32 196 32 178 37 c 0,29,30
 155 44 155 44 146 53 c 2,31,-1
 107 88 l 1,32,33
 104 64 104 64 100 39 c 0,34,35
 97 16 97 16 88 16 c 2,36,-1
 87 16 l 2,37,38
 85 16 85 16 75 21 c 0,39,40
 66 25 66 25 58 44 c 0,41,42
 49 64 49 64 43 82 c 0,43,44
 37 99 37 99 37 111 c 2,45,-1
 37 114 l 2,46,47
 37 117 37 117 48 149 c 256,48,49
 59 181 59 181 59 240 c 2,50,-1
 61 370 l 2,51,52
 61 390 61 390 62 425 c 2,53,-1
 62 476 l 2,54,55
 61 514 61 514 60 545 c 0,56,57
 58 576 58 576 55 596 c 0,58,59
 53 614 53 614 49 627 c 2,60,-1
 41 647 l 2,61,62
 37 658 37 658 37 666 c 0,63,64
 37 668 37 668 38 672 c 256,65,66
 39 676 39 676 53 678 c 0,67,68
 61 678 61 678 87 670 c 0,69,70
 113 663 113 663 122 651 c 0,71,72
 131 640 131 640 133 634 c 0,73,74
 134 631 134 631 134 628 c 256,75,76
 134 625 134 625 133 621 c 0,77,78
 131 616 131 616 127 602 c 0,79,80
 123 586 123 586 119 563 c 256,81,82
 115 540 115 540 115 532 c 2,83,-1
 109 430 l 1,0,1
107 222 m 2,84,85
 107 186 107 186 109 170 c 0,86,87
 111 155 111 155 123 134 c 0,88,89
 135 112 135 112 149 100 c 256,90,91
 163 88 163 88 190 81 c 0,92,93
 207 77 207 77 221 77 c 0,94,95
 228 77 228 77 235 78 c 0,96,97
 257 83 257 83 275 104 c 0,98,99
 294 126 294 126 303 163 c 0,100,101
 309 193 309 193 309 228 c 2,102,-1
 309 246 l 2,103,104
 308 272 308 272 303 302 c 0,105,106
 299 332 299 332 286 367 c 256,107,108
 273 402 273 402 251 416 c 0,109,110
 228 430 228 430 201 430 c 2,111,-1
 198 430 l 2,112,113
 173 430 173 430 151 412 c 0,114,115
 130 396 130 396 121 373 c 0,116,117
 113 349 113 349 109 321 c 0,118,119
 107 301 107 301 107 275 c 2,120,-1
 107 222 l 2,84,85
EndSplineSet
EndChar
StartChar: c
Encoding: 99 99 70
Width: 365
Flags: W
LayerCount: 2
Back
Fore
SplineSet
173 482 m 0,0,1
 179 483 179 483 185 483 c 0,2,3
 201 483 201 483 217 479 c 0,4,5
 240 474 240 474 258 459 c 0,6,7
 277 444 277 444 287 426 c 0,8,9
 297 407 297 407 301 392 c 0,10,11
 303 383 303 383 303 373 c 0,12,13
 303 365 303 365 302 356 c 0,14,15
 299 336 299 336 292 335 c 2,16,-1
 291 335 l 2,17,18
 284 335 284 335 274 354 c 2,19,-1
 259 384 l 2,20,21
 251 400 251 400 234 416 c 0,22,23
 217 434 217 434 188 434 c 256,24,25
 159 434 159 434 137 417 c 0,26,27
 119 402 119 402 107 372 c 0,28,29
 95 343 95 343 92 316 c 256,30,31
 89 289 89 289 89 254 c 0,32,33
 89 208 89 208 97 175 c 256,34,35
 105 142 105 142 123 121 c 0,36,37
 140 100 140 100 165 90 c 0,38,39
 181 84 181 84 196 84 c 0,40,41
 206 84 206 84 215 86 c 0,42,43
 237 90 237 90 259 108 c 256,44,45
 281 126 281 126 289 147 c 2,46,-1
 305 190 l 2,47,48
 312 201 312 201 319 201 c 2,49,-1
 320 201 l 2,50,51
 327 200 327 200 330 183 c 0,52,53
 332 175 332 175 332 167 c 0,54,55
 332 157 332 157 329 146 c 0,56,57
 322 124 322 124 313 108 c 256,58,59
 304 92 304 92 287 75 c 0,60,61
 269 59 269 59 243 46 c 0,62,63
 222 36 222 36 192 36 c 0,64,65
 185 36 185 36 177 37 c 0,66,67
 133 40 133 40 107 60 c 256,68,69
 81 80 81 80 64 113 c 256,70,71
 47 146 47 146 40 188 c 256,72,73
 33 230 33 230 33 274 c 256,74,75
 33 318 33 318 41 350 c 0,76,77
 47 378 47 378 63 406 c 0,78,79
 79 435 79 435 97 450 c 0,80,81
 115 466 115 466 133 473 c 256,82,83
 151 480 151 480 173 482 c 0,0,1
EndSplineSet
EndChar
StartChar: d
Encoding: 100 100 71
Width: 387
Flags: W
LayerCount: 2
Back
Fore
SplineSet
288 260 m 2,0,1
 288 290 288 290 285 319 c 256,2,3
 282 348 282 348 273 372 c 256,4,5
 264 396 264 396 240 414 c 256,6,7
 216 432 216 432 188 432 c 256,8,9
 160 432 160 432 139 418 c 256,10,11
 118 404 118 404 106 374 c 256,12,13
 94 344 94 344 90 306 c 0,14,15
 86 269 86 269 86 236 c 2,16,-1
 86 223 l 2,17,18
 86 196 86 196 92 172 c 0,19,20
 100 143 100 143 114 125 c 0,21,22
 128 108 128 108 150 96 c 0,23,24
 164 89 164 89 183 89 c 0,25,26
 190 89 190 89 198 90 c 0,27,28
 224 92 224 92 242 107 c 0,29,30
 261 122 261 122 272 141 c 0,31,32
 282 160 282 160 286 178 c 0,33,34
 288 196 288 196 288 226 c 2,35,-1
 288 260 l 2,0,1
286 421 m 1,36,37
 286 500 286 500 284 533 c 0,38,39
 280 566 280 566 278 594 c 0,40,41
 274 621 274 621 266 640 c 0,42,43
 260 654 260 654 260 662 c 2,44,-1
 260 665 l 1,45,46
 264 672 264 672 272 675 c 0,47,48
 273 676 273 676 275 676 c 0,49,50
 282 676 282 676 296 668 c 0,51,52
 312 658 312 658 330 644 c 0,53,54
 348 631 348 631 350 621 c 2,55,-1
 350 617 l 2,56,57
 350 608 350 608 344 592 c 0,58,59
 338 574 338 574 336 559 c 0,60,61
 335 550 335 550 335 535 c 2,62,-1
 335 518 l 2,63,64
 336 490 336 490 336 421 c 2,65,-1
 336 242 l 2,66,67
 336 208 336 208 340 177 c 0,68,69
 342 146 342 146 348 122 c 256,70,71
 354 98 354 98 354 90 c 0,72,73
 354 80 354 80 348 67 c 256,74,75
 342 54 342 54 332 39 c 256,76,77
 322 24 322 24 316 23 c 2,78,-1
 315 23 l 2,79,80
 307 23 307 23 296 40 c 0,81,82
 288 52 288 52 286 64 c 2,83,-1
 282 85 l 1,84,85
 262 65 262 65 248 56 c 0,86,87
 234 48 234 48 214 42 c 0,88,89
 200 38 200 38 183 38 c 0,90,91
 177 38 177 38 170 39 c 0,92,93
 130 42 130 42 106 57 c 256,94,95
 82 72 82 72 64 96 c 256,96,97
 46 120 46 120 40 154 c 0,98,99
 32 188 32 188 32 232 c 0,100,101
 32 254 32 254 34 287 c 256,102,103
 36 320 36 320 47 360 c 256,104,105
 58 400 58 400 80 428 c 256,106,107
 102 456 102 456 124 465 c 0,108,109
 144 474 144 474 162 478 c 0,110,111
 172 480 172 480 183 480 c 0,112,113
 193 480 193 480 204 478 c 0,114,115
 244 472 244 472 256 458 c 2,116,-1
 286 421 l 1,36,37
EndSplineSet
EndChar
StartChar: e
Encoding: 101 101 72
Width: 380
Flags: W
LayerCount: 2
Back
Fore
SplineSet
91 252 m 1,0,1
 91 227 91 227 93 204 c 0,2,3
 95 182 95 182 105 158 c 0,4,5
 115 133 115 133 129 116 c 0,6,7
 144 100 144 100 169 94 c 0,8,9
 179 92 179 92 189 92 c 0,10,11
 202 92 202 92 217 96 c 0,12,13
 242 103 242 103 258 114 c 0,14,15
 275 125 275 125 285 141 c 0,16,17
 297 157 297 157 301 179 c 0,18,19
 305 200 305 200 310 210 c 0,20,21
 314 218 314 218 320 218 c 2,22,-1
 322 218 l 2,23,24
 329 217 329 217 333 206 c 0,25,26
 336 199 336 199 336 189 c 0,27,28
 336 184 336 184 335 179 c 0,29,30
 332 152 332 152 324 129 c 0,31,32
 316 105 316 105 298 86 c 0,33,34
 281 66 281 66 252 52 c 0,35,36
 230 41 230 41 198 41 c 0,37,38
 188 41 188 41 178 42 c 0,39,40
 135 44 135 44 105 64 c 256,41,42
 75 84 75 84 60 116 c 256,43,44
 45 148 45 148 40 191 c 0,45,46
 34 234 34 234 33 270 c 0,47,48
 33 305 33 305 42 348 c 0,49,50
 53 394 53 394 75 425 c 256,51,52
 97 456 97 456 130 471 c 0,53,54
 159 484 159 484 192 484 c 2,55,-1
 201 484 l 2,56,57
 239 482 239 482 268 464 c 0,58,59
 297 447 297 447 315 416 c 0,60,61
 333 386 333 386 339 350 c 0,62,63
 346 318 346 318 346 289 c 2,64,-1
 346 282 l 2,65,66
 345 264 345 264 340 258 c 256,67,68
 335 252 335 252 303 252 c 2,69,-1
 91 252 l 1,0,1
92 294 m 1,70,-1
 293 294 l 1,71,72
 291 316 291 316 289 334 c 0,73,74
 286 354 286 354 277 378 c 0,75,76
 267 402 267 402 252 416 c 0,77,78
 237 428 237 428 211 434 c 0,79,80
 201 436 201 436 191 436 c 0,81,82
 175 436 175 436 158 430 c 0,83,84
 131 420 131 420 119 400 c 256,85,86
 107 380 107 380 101 358 c 0,87,88
 95 335 95 335 95 322 c 2,89,-1
 92 294 l 1,70,-1
EndSplineSet
EndChar
StartChar: f
Encoding: 102 102 73
Width: 378
Flags: W
LayerCount: 2
Back
Fore
SplineSet
155 418 m 1,0,1
 123 410 123 410 105 404 c 0,2,3
 91 398 91 398 83 398 c 2,4,-1
 80 398 l 2,5,6
 71 399 71 399 55 412 c 0,7,8
 40 426 40 426 34 436 c 0,9,10
 29 445 29 445 29 449 c 2,11,-1
 29 451 l 2,12,13
 31 456 31 456 49 458 c 2,14,-1
 121 463 l 1,15,-1
 157 466 l 1,16,-1
 157 532 l 2,17,18
 157 562 157 562 162 588 c 256,19,20
 167 614 167 614 177 629 c 0,21,22
 187 643 187 643 198 650 c 0,23,24
 210 656 210 656 231 662 c 0,25,26
 239 664 239 664 249 664 c 0,27,28
 265 664 265 664 283 659 c 0,29,30
 306 652 306 652 322 638 c 0,31,32
 337 625 337 625 341 608 c 0,33,34
 342 602 342 602 342 598 c 0,35,36
 342 590 342 590 338 586 c 0,37,38
 336 585 336 585 334 585 c 0,39,40
 327 585 327 585 312 596 c 0,41,42
 289 612 289 612 279 617 c 0,43,44
 273 620 273 620 265 620 c 0,45,46
 259 620 259 620 251 618 c 0,47,48
 231 612 231 612 222 597 c 256,49,50
 213 582 213 582 211 565 c 0,51,52
 208 548 208 548 208 514 c 2,53,-1
 208 468 l 1,54,55
 233 470 233 470 245 472 c 256,56,57
 257 474 257 474 273 480 c 0,58,59
 289 484 289 484 295 484 c 0,60,61
 306 484 306 484 320 476 c 0,62,63
 333 468 333 468 342 456 c 0,64,65
 351 445 351 445 351 436 c 0,66,67
 349 426 349 426 318 426 c 2,68,-1
 307 426 l 2,69,70
 279 427 279 427 263 427 c 2,71,-1
 251 427 l 1,72,-1
 208 422 l 1,73,74
 209 342 209 342 209 281 c 2,75,-1
 209 182 l 1,76,-1
 207 90 l 2,77,78
 206 65 206 65 205 55 c 0,79,80
 203 45 203 45 200 36 c 0,81,82
 197 26 197 26 193 23 c 0,83,84
 192 22 192 22 189 22 c 0,85,86
 185 22 185 22 179 25 c 0,87,88
 167 30 167 30 156 51 c 256,89,90
 145 72 145 72 141 82 c 256,91,92
 137 92 137 92 137 101 c 256,93,94
 137 110 137 110 144 136 c 0,95,96
 148 151 148 151 151 177 c 0,97,98
 155 202 155 202 156 240 c 2,99,-1
 156 298 l 1,100,-1
 155 418 l 1,0,1
EndSplineSet
EndChar
StartChar: g
Encoding: 103 103 74
Width: 461
Flags: W
LayerCount: 2
Back
Fore
SplineSet
111 64 m 1,0,1
 84 88 84 88 71 108 c 0,2,3
 59 126 59 126 59 151 c 2,4,-1
 59 158 l 2,5,6
 61 190 61 190 79 206 c 2,7,-1
 101 230 l 1,8,9
 91 258 91 258 86 286 c 0,10,11
 84 295 84 295 84 306 c 0,12,13
 84 329 84 329 91 358 c 0,14,15
 100 396 100 396 119 422 c 256,16,17
 138 448 138 448 161 460 c 0,18,19
 185 472 185 472 217 472 c 2,20,-1
 224 472 l 2,21,22
 256 472 256 472 269 464 c 2,23,-1
 302 446 l 1,24,25
 306 477 306 477 314 500 c 0,26,27
 323 522 323 522 337 530 c 0,28,29
 351 537 351 537 367 537 c 0,30,31
 383 536 383 536 399 531 c 0,32,33
 413 526 413 526 424 512 c 0,34,35
 435 500 435 500 435 465 c 256,36,37
 435 430 435 430 427 429 c 2,38,-1
 426 429 l 2,39,40
 417 429 417 429 409 444 c 2,41,-1
 395 475 l 1,42,43
 385 483 385 483 375 483 c 0,44,45
 366 483 366 483 358 478 c 0,46,47
 346 470 346 470 346 443 c 2,48,-1
 346 410 l 1,49,50
 355 392 355 392 363 369 c 0,51,52
 370 349 370 349 370 318 c 2,53,-1
 370 310 l 2,54,55
 369 278 369 278 359 245 c 256,56,57
 349 212 349 212 337 198 c 256,58,59
 325 184 325 184 303 165 c 0,60,61
 281 147 281 147 231 147 c 2,62,-1
 226 147 l 2,63,64
 185 148 185 148 169 161 c 2,65,-1
 127 190 l 1,66,67
 116 180 116 180 109 169 c 0,68,69
 106 164 106 164 106 158 c 0,70,71
 106 149 106 149 111 137 c 0,72,73
 119 116 119 116 133 106 c 2,74,-1
 149 90 l 1,75,-1
 228 90 l 2,76,77
 259 89 259 89 287 84 c 256,78,79
 315 79 315 79 337 68 c 0,80,81
 359 58 359 58 376 42 c 0,82,83
 393 27 393 27 404 4 c 0,84,85
 415 -20 415 -20 419 -46 c 0,86,87
 420 -55 420 -55 420 -63 c 0,88,89
 420 -81 420 -81 416 -98 c 0,90,91
 407 -137 407 -137 389 -154 c 0,92,93
 370 -170 370 -170 349 -180 c 0,94,95
 327 -190 327 -190 296 -197 c 256,96,97
 265 -204 265 -204 229 -204 c 2,98,-1
 211 -204 l 2,99,100
 181 -204 181 -204 156 -199 c 0,101,102
 124 -192 124 -192 107 -180 c 0,103,104
 89 -168 89 -168 70 -149 c 256,105,106
 51 -130 51 -130 43 -101 c 0,107,108
 38 -84 38 -84 38 -66 c 0,109,110
 38 -51 38 -51 41 -36 c 0,111,112
 46 -4 46 -4 58 16 c 0,113,114
 71 34 71 34 75 38 c 2,115,-1
 111 64 l 1,0,1
189 43 m 0,116,117
 159 40 159 40 143 33 c 0,118,119
 128 26 128 26 111 7 c 0,120,121
 93 -12 93 -12 91 -42 c 0,122,123
 90 -49 90 -49 90 -56 c 0,124,125
 90 -76 90 -76 97 -93 c 0,126,127
 107 -120 107 -120 130 -136 c 256,128,129
 153 -152 153 -152 193 -155 c 0,130,131
 204 -156 204 -156 215 -156 c 0,132,133
 239 -156 239 -156 266 -152 c 0,134,135
 306 -146 306 -146 331 -130 c 0,136,137
 356 -113 356 -113 362 -78 c 0,138,139
 364 -69 364 -69 364 -60 c 0,140,141
 364 -34 364 -34 349 -10 c 0,142,143
 330 22 330 22 293 36 c 0,144,145
 268 45 268 45 230 45 c 0,146,147
 211 45 211 45 189 43 c 0,116,117
137 257 m 0,148,149
 144 238 144 238 160 221 c 0,150,151
 177 204 177 204 202 196 c 0,152,153
 217 191 217 191 232 191 c 0,154,155
 244 191 244 191 256 194 c 0,156,157
 281 201 281 201 299 221 c 0,158,159
 317 240 317 240 321 284 c 0,160,161
 322 294 322 294 322 303 c 0,162,163
 322 336 322 336 311 363 c 0,164,165
 299 390 299 390 281 405 c 256,166,167
 263 420 263 420 234 425 c 0,168,169
 226 426 226 426 219 426 c 0,170,171
 199 426 199 426 181 416 c 0,172,173
 160 404 160 404 144 373 c 0,174,175
 130 344 130 344 130 312 c 2,176,-1
 130 308 l 2,177,178
 131 274 131 274 137 257 c 0,148,149
EndSplineSet
EndChar
StartChar: h
Encoding: 104 104 75
Width: 376
Flags: W
LayerCount: 2
Back
Fore
SplineSet
106 182 m 2,0,1
 104 166 104 166 104 155 c 2,2,-1
 104 98 l 2,3,4
 104 80 104 80 102 65 c 256,5,6
 100 50 100 50 96 43 c 0,7,8
 94 35 94 35 91 32 c 0,9,10
 89 30 89 30 86 30 c 2,11,-1
 84 30 l 2,12,13
 82 30 82 30 78 31 c 0,14,15
 74 33 74 33 66 44 c 0,16,17
 56 56 56 56 53 61 c 256,18,19
 50 66 50 66 44 83 c 256,20,21
 38 100 38 100 38 106 c 2,22,-1
 38 109 l 2,23,24
 38 118 38 118 46 142 c 0,25,26
 50 158 50 158 54 197 c 256,27,28
 58 236 58 236 58 274 c 2,29,-1
 58 540 l 1,30,-1
 60 566 l 1,31,32
 58 600 58 600 54 619 c 0,33,34
 48 639 48 639 40 651 c 0,35,36
 34 662 34 662 34 667 c 0,37,38
 36 670 36 670 38 672 c 0,39,40
 42 675 42 675 50 675 c 0,41,42
 62 674 62 674 78 666 c 2,43,-1
 108 645 l 2,44,45
 124 634 124 634 128 624 c 0,46,47
 133 617 133 617 133 609 c 0,48,49
 133 607 133 607 132 604 c 0,50,51
 132 602 132 602 126 588 c 0,52,53
 123 574 123 574 118 544 c 0,54,55
 114 514 114 514 112 497 c 0,56,57
 111 480 111 480 110 417 c 2,58,-1
 108 356 l 1,59,60
 122 390 122 390 132 407 c 0,61,62
 140 425 140 425 154 442 c 0,63,64
 168 458 168 458 182 466 c 0,65,66
 195 474 195 474 216 478 c 0,67,68
 229 481 229 481 241 481 c 0,69,70
 262 481 262 481 280 473 c 0,71,72
 308 461 308 461 322 436 c 0,73,74
 336 410 336 410 338 377 c 256,75,76
 340 344 340 344 340 300 c 2,77,-1
 342 216 l 1,78,-1
 342 155 l 2,79,80
 340 124 340 124 338 97 c 0,81,82
 337 71 337 71 334 52 c 0,83,84
 330 34 330 34 322 32 c 2,85,-1
 320 32 l 2,86,87
 312 32 312 32 300 45 c 0,88,89
 298 48 298 48 287 65 c 256,90,91
 276 82 276 82 272 90 c 0,92,93
 271 94 271 94 271 98 c 256,94,95
 271 102 271 102 272 106 c 0,96,97
 272 108 272 108 282 134 c 256,98,99
 292 160 292 160 292 175 c 0,100,101
 294 190 294 190 294 203 c 2,102,-1
 294 273 l 1,103,-1
 288 348 l 2,104,105
 287 384 287 384 278 402 c 0,106,107
 271 421 271 421 250 430 c 0,108,109
 241 435 241 435 230 435 c 0,110,111
 220 435 220 435 208 430 c 0,112,113
 188 422 188 422 168 395 c 256,114,115
 148 368 148 368 134 340 c 0,116,117
 123 312 123 312 116 284 c 0,118,119
 108 258 108 258 108 242 c 2,120,-1
 106 182 l 2,0,1
106 182 m 2,121,122
 104 166 104 166 104 155 c 2,123,-1
 104 98 l 2,124,125
 104 80 104 80 102 65 c 256,126,127
 100 50 100 50 96 43 c 0,128,129
 94 35 94 35 91 32 c 0,130,131
 89 30 89 30 86 30 c 2,132,-1
 84 30 l 2,133,134
 82 30 82 30 78 31 c 0,135,136
 74 33 74 33 66 44 c 0,137,138
 56 56 56 56 53 61 c 256,139,140
 50 66 50 66 44 83 c 256,141,142
 38 100 38 100 38 106 c 2,143,-1
 38 109 l 2,144,145
 38 118 38 118 46 142 c 0,146,147
 50 158 50 158 54 197 c 256,148,149
 58 236 58 236 58 274 c 2,150,-1
 58 540 l 1,151,-1
 60 566 l 1,152,153
 58 600 58 600 54 619 c 0,154,155
 48 639 48 639 40 651 c 0,156,157
 34 662 34 662 34 667 c 0,158,159
 36 670 36 670 38 672 c 0,160,161
 42 675 42 675 50 675 c 0,162,163
 62 674 62 674 78 666 c 0,164,165
 92 656 92 656 108 645 c 256,166,167
 124 634 124 634 129 624 c 0,168,169
 133 617 133 617 133 610 c 0,170,171
 133 607 133 607 132 604 c 0,172,173
 132 602 132 602 126 588 c 0,174,175
 122 574 122 574 118 544 c 256,176,177
 114 514 114 514 112 497 c 256,178,179
 110 480 110 480 110 417 c 2,180,-1
 108 356 l 1,181,182
 122 390 122 390 132 407 c 0,183,184
 140 425 140 425 154 442 c 0,185,186
 168 458 168 458 181 466 c 256,187,188
 194 474 194 474 216 478 c 0,189,190
 229 481 229 481 241 481 c 0,191,192
 262 481 262 481 280 473 c 0,193,194
 308 461 308 461 322 436 c 0,195,196
 336 410 336 410 338 377 c 256,197,198
 340 344 340 344 340 300 c 2,199,-1
 342 216 l 1,200,-1
 342 155 l 2,201,202
 340 124 340 124 338 97 c 0,203,204
 338 71 338 71 334 52 c 0,205,206
 330 34 330 34 322 32 c 2,207,-1
 320 32 l 2,208,209
 312 32 312 32 300 45 c 0,210,211
 298 48 298 48 287 65 c 256,212,213
 276 82 276 82 272 90 c 0,214,215
 271 94 271 94 271 98 c 256,216,217
 271 102 271 102 272 106 c 0,218,219
 272 108 272 108 282 134 c 256,220,221
 292 160 292 160 292 175 c 0,222,223
 294 190 294 190 294 203 c 2,224,-1
 294 273 l 1,225,-1
 288 348 l 2,226,227
 286 384 286 384 278 402 c 0,228,229
 270 421 270 421 250 430 c 0,230,231
 240 435 240 435 230 435 c 0,232,233
 219 435 219 435 208 430 c 0,234,235
 188 422 188 422 168 395 c 256,236,237
 148 368 148 368 134 340 c 0,238,239
 122 312 122 312 116 284 c 0,240,241
 108 258 108 258 108 242 c 2,242,-1
 106 182 l 2,121,122
EndSplineSet
EndChar
StartChar: i
Encoding: 105 105 76
Width: 171
Flags: W
LayerCount: 2
Back
Fore
SplineSet
40 94 m 2,0,1
 40 98 40 98 43 118 c 2,2,-1
 54 161 l 2,3,4
 56 177 56 177 58 211 c 2,5,-1
 62 279 l 2,6,7
 64 312 64 312 64 334 c 0,8,9
 63 340 63 340 61 372 c 0,10,11
 60 404 60 404 57 420 c 256,12,13
 54 436 54 436 48 450 c 2,14,-1
 36 474 l 1,15,-1
 37 492 l 1,16,-1
 58 491 l 1,17,-1
 93 478 l 1,18,-1
 122 458 l 1,19,-1
 135 440 l 1,20,-1
 135 439 l 2,21,22
 135 432 135 432 126 408 c 0,23,24
 121 394 121 394 119 377 c 0,25,26
 116 360 116 360 116 342 c 2,27,-1
 116 136 l 2,28,29
 116 125 116 125 114 93 c 0,30,31
 112 62 112 62 105 45 c 256,32,33
 98 28 98 28 90 27 c 2,34,-1
 89 27 l 2,35,36
 81 27 81 27 68 47 c 0,37,38
 62 56 62 56 52 75 c 2,39,-1
 40 94 l 2,0,1
92 660 m 1,40,-1
 113 654 l 1,41,-1
 128 639 l 1,42,-1
 134 618 l 1,43,-1
 128 596 l 1,44,-1
 113 581 l 1,45,-1
 92 576 l 1,46,-1
 72 581 l 1,47,-1
 52 618 l 1,48,-1
 72 654 l 1,49,-1
 92 660 l 1,40,-1
40 94 m 2,50,51
 40 98 40 98 43 118 c 2,52,-1
 54 161 l 2,53,54
 56 177 56 177 58 211 c 0,55,56
 60 246 60 246 62 279 c 256,57,58
 64 312 64 312 64 334 c 0,59,60
 63 340 63 340 61 372 c 0,61,62
 60 404 60 404 57 420 c 256,63,64
 54 436 54 436 48 450 c 2,65,-1
 36 474 l 1,66,-1
 37 492 l 1,67,-1
 58 491 l 1,68,-1
 93 478 l 1,69,-1
 122 458 l 1,70,-1
 135 440 l 1,71,-1
 135 439 l 2,72,73
 135 432 135 432 126 408 c 0,74,75
 121 394 121 394 119 377 c 0,76,77
 116 360 116 360 116 342 c 2,78,-1
 116 136 l 2,79,80
 116 125 116 125 114 93 c 0,81,82
 112 62 112 62 105 45 c 256,83,84
 98 28 98 28 90 27 c 2,85,-1
 89 27 l 2,86,87
 81 27 81 27 68 47 c 0,88,89
 62 56 62 56 52 75 c 2,90,-1
 40 94 l 2,50,51
EndSplineSet
EndChar
StartChar: j
Encoding: 106 106 77
Width: 175
Flags: W
LayerCount: 2
Back
Fore
SplineSet
194 290 m 1,0,-1
 193 6 l 1,1,-1
 193 -54 l 2,2,3
 192 -106 192 -106 186 -130 c 256,4,5
 180 -154 180 -154 168 -168 c 0,6,7
 156 -183 156 -183 131 -195 c 0,8,9
 109 -205 109 -205 84 -205 c 2,10,-1
 80 -205 l 2,11,12
 43 -204 43 -204 20 -184 c 256,13,14
 -3 -164 -3 -164 -13 -143 c 0,15,16
 -24 -122 -24 -122 -28 -104 c 0,17,18
 -29 -95 -29 -95 -29 -89 c 0,19,20
 -29 -82 -29 -82 -28 -79 c 0,21,22
 -25 -75 -25 -75 -19 -75 c 0,23,24
 -16 -75 -16 -75 -11 -76 c 0,25,26
 -3 -80 -3 -80 3 -100 c 0,27,28
 10 -120 10 -120 24 -136 c 0,29,30
 37 -152 37 -152 59 -156 c 0,31,32
 65 -158 65 -158 72 -158 c 0,33,34
 82 -158 82 -158 92 -154 c 0,35,36
 109 -149 109 -149 120 -136 c 0,37,38
 131 -124 131 -124 135 -99 c 0,39,40
 138 -79 138 -79 138 -49 c 2,41,-1
 138 -34 l 2,42,43
 137 6 137 6 137 72 c 0,44,45
 138 138 138 138 138 177 c 2,46,-1
 138 234 l 1,47,-1
 139 295 l 1,48,-1
 137 371 l 2,49,50
 136 403 136 403 133 416 c 0,51,52
 129 430 129 430 123 442 c 2,53,-1
 108 474 l 1,54,-1
 111 488 l 1,55,-1
 135 488 l 1,56,-1
 161 480 l 1,57,-1
 197 464 l 1,58,59
 211 452 211 452 211 444 c 256,60,61
 211 436 211 436 208 426 c 0,62,63
 199 406 199 406 197 399 c 256,64,65
 195 392 195 392 195 380 c 0,66,67
 194 368 194 368 194 338 c 2,68,-1
 194 290 l 1,0,-1
165 658 m 1,69,-1
 185 652 l 1,70,-1
 201 636 l 1,71,-1
 205 616 l 1,72,-1
 201 594 l 1,73,-1
 185 578 l 1,74,-1
 165 573 l 1,75,-1
 144 578 l 1,76,-1
 129 594 l 1,77,-1
 123 616 l 1,78,-1
 129 636 l 1,79,-1
 144 652 l 1,80,-1
 165 658 l 1,69,-1
EndSplineSet
EndChar
StartChar: k
Encoding: 107 107 78
Width: 480
Flags: W
LayerCount: 2
Back
Fore
SplineSet
180 294 m 1,0,1
 146 271 146 271 139 264 c 2,2,-1
 116 244 l 1,3,4
 116 181 116 181 115 147 c 256,5,6
 114 113 114 113 113 90 c 0,7,8
 111 66 111 66 104 44 c 0,9,10
 98 22 98 22 88 21 c 2,11,-1
 87 21 l 2,12,13
 78 21 78 21 68 35 c 0,14,15
 59 45 59 45 52 66 c 0,16,17
 44 86 44 86 43 97 c 0,18,19
 42 104 42 104 42 113 c 2,20,-1
 42 122 l 1,21,-1
 54 178 l 2,22,23
 56 196 56 196 57 234 c 256,24,25
 58 272 58 272 60 324 c 256,26,27
 62 376 62 376 63 422 c 0,28,29
 63 468 63 468 61 519 c 0,30,31
 60 550 60 550 57 572 c 0,32,33
 55 593 55 593 52 601 c 0,34,35
 49 610 49 610 39 632 c 0,36,37
 33 646 33 646 33 654 c 0,38,39
 33 658 33 658 35 660 c 0,40,41
 41 666 41 666 48 666 c 0,42,43
 54 666 54 666 71 660 c 0,44,45
 87 653 87 653 93 650 c 2,46,-1
 113 634 l 2,47,48
 128 623 128 623 130 617 c 0,49,50
 132 612 132 612 132 604 c 2,51,-1
 132 598 l 2,52,53
 131 590 131 590 126 569 c 0,54,55
 120 547 120 547 118 529 c 256,56,57
 116 511 116 511 116 482 c 2,58,-1
 116 289 l 1,59,60
 150 325 150 325 169 347 c 0,61,62
 188 368 188 368 207 392 c 0,63,64
 226 415 226 415 236 430 c 256,65,66
 246 445 246 445 248 456 c 2,67,-1
 249 476 l 2,68,69
 250 484 250 484 253 490 c 0,70,71
 257 495 257 495 262 496 c 0,72,73
 268 496 268 496 276 492 c 0,74,75
 284 485 284 485 296 469 c 256,76,77
 308 453 308 453 314 440 c 0,78,79
 320 428 320 428 322 419 c 0,80,81
 322 410 322 410 318 404 c 0,82,83
 316 401 316 401 310 398 c 2,84,-1
 283 388 l 2,85,86
 272 382 272 382 256 367 c 256,87,88
 240 352 240 352 225 336 c 2,89,-1
 204 314 l 1,90,-1
 246 254 l 2,91,92
 266 225 266 225 276 212 c 0,93,94
 286 198 286 198 316 162 c 256,95,96
 346 126 346 126 362 112 c 0,97,98
 377 99 377 99 398 90 c 2,99,-1
 442 72 l 2,100,101
 456 63 456 63 456 58 c 0,102,103
 455 54 455 54 443 46 c 0,104,105
 432 39 432 39 395 36 c 0,106,107
 370 35 370 35 359 35 c 2,108,-1
 350 35 l 2,109,110
 323 36 323 36 314 46 c 0,111,112
 304 54 304 54 295 77 c 256,113,114
 286 100 286 100 270 129 c 2,115,-1
 235 193 l 1,116,-1
 204 249 l 1,117,-1
 180 294 l 1,0,1
180 294 m 1,118,119
 146 271 146 271 139 264 c 2,120,-1
 116 244 l 1,121,122
 116 181 116 181 115 147 c 256,123,124
 114 113 114 113 113 90 c 0,125,126
 111 66 111 66 104 44 c 0,127,128
 98 22 98 22 88 21 c 2,129,-1
 87 21 l 2,130,131
 78 21 78 21 68 35 c 0,132,133
 59 45 59 45 52 66 c 0,134,135
 44 86 44 86 43 97 c 0,136,137
 42 104 42 104 42 113 c 2,138,-1
 42 122 l 1,139,-1
 54 178 l 2,140,141
 56 196 56 196 57 234 c 256,142,143
 58 272 58 272 60 324 c 256,144,145
 62 376 62 376 63 422 c 0,146,147
 63 468 63 468 61 519 c 0,148,149
 60 550 60 550 57 572 c 0,150,151
 55 593 55 593 52 601 c 0,152,153
 49 610 49 610 39 632 c 0,154,155
 33 646 33 646 33 654 c 0,156,157
 33 658 33 658 35 660 c 0,158,159
 41 666 41 666 48 666 c 0,160,161
 54 666 54 666 71 660 c 0,162,163
 87 653 87 653 93 650 c 0,164,165
 98 646 98 646 113 634 c 0,166,167
 128 623 128 623 130 617 c 0,168,169
 132 612 132 612 132 604 c 2,170,-1
 132 598 l 2,171,172
 131 590 131 590 126 569 c 0,173,174
 120 547 120 547 118 529 c 256,175,176
 116 511 116 511 116 482 c 2,177,-1
 116 289 l 1,178,179
 150 325 150 325 169 347 c 0,180,181
 188 368 188 368 207 392 c 0,182,183
 226 415 226 415 236 430 c 256,184,185
 246 445 246 445 248 456 c 2,186,-1
 249 476 l 2,187,188
 250 484 250 484 253 490 c 0,189,190
 257 495 257 495 262 496 c 0,191,192
 268 496 268 496 276 492 c 0,193,194
 284 485 284 485 296 469 c 256,195,196
 308 453 308 453 314 440 c 0,197,198
 320 428 320 428 322 419 c 0,199,200
 322 410 322 410 318 404 c 0,201,202
 316 401 316 401 310 398 c 2,203,-1
 283 388 l 2,204,205
 272 382 272 382 256 367 c 256,206,207
 240 352 240 352 225 336 c 2,208,-1
 204 314 l 1,209,210
 226 282 226 282 246 254 c 0,211,212
 266 225 266 225 276 212 c 0,213,214
 286 198 286 198 316 162 c 256,215,216
 346 126 346 126 362 112 c 0,217,218
 377 99 377 99 398 90 c 2,219,-1
 442 72 l 2,220,221
 456 63 456 63 456 58 c 0,222,223
 455 54 455 54 443 46 c 0,224,225
 432 39 432 39 395 36 c 0,226,227
 370 35 370 35 359 35 c 2,228,-1
 350 35 l 2,229,230
 323 36 323 36 314 46 c 0,231,232
 304 54 304 54 295 77 c 256,233,234
 286 100 286 100 270 129 c 2,235,-1
 235 193 l 1,236,-1
 204 249 l 1,237,-1
 180 294 l 1,118,119
EndSplineSet
EndChar
StartChar: l
Encoding: 108 108 79
Width: 173
Flags: W
LayerCount: 2
Back
Fore
SplineSet
44 126 m 2,0,-1
 56 163 l 2,1,2
 60 178 60 178 62 202 c 0,3,4
 64 225 64 225 66 257 c 2,5,-1
 66 378 l 1,6,-1
 64 482 l 1,7,-1
 62 554 l 1,8,-1
 60 594 l 1,9,-1
 52 622 l 1,10,-1
 42 640 l 1,11,-1
 38 666 l 1,12,-1
 54 670 l 1,13,-1
 72 664 l 1,14,-1
 96 655 l 1,15,-1
 118 643 l 1,16,-1
 132 631 l 1,17,-1
 134 616 l 1,18,-1
 126 596 l 1,19,-1
 120 562 l 1,20,-1
 118 525 l 1,21,-1
 118 388 l 2,22,23
 120 262 120 262 120 206 c 0,24,25
 118 163 118 163 118 133 c 0,26,27
 116 104 116 104 116 83 c 0,28,29
 114 62 114 62 108 44 c 256,30,31
 102 26 102 26 94 24 c 2,32,-1
 93 24 l 2,33,34
 85 24 85 24 70 46 c 0,35,36
 62 60 62 60 54 76 c 256,37,38
 46 92 46 92 44 104 c 0,39,40
 43 110 43 110 43 115 c 0,41,42
 43 121 43 121 44 126 c 2,0,-1
44 126 m 2,43,-1
 56 163 l 2,44,45
 60 178 60 178 62 202 c 0,46,47
 64 225 64 225 66 257 c 2,48,-1
 66 378 l 1,49,-1
 64 482 l 1,50,-1
 62 554 l 1,51,-1
 60 594 l 1,52,-1
 52 622 l 1,53,-1
 42 640 l 1,54,-1
 38 666 l 1,55,-1
 54 670 l 1,56,-1
 72 664 l 1,57,-1
 96 655 l 1,58,-1
 118 643 l 1,59,-1
 132 631 l 1,60,-1
 134 616 l 1,61,-1
 126 596 l 1,62,-1
 120 562 l 1,63,-1
 118 525 l 1,64,-1
 118 388 l 2,65,66
 120 262 120 262 120 206 c 0,67,68
 118 163 118 163 118 133 c 0,69,70
 116 104 116 104 115 83 c 256,71,72
 114 62 114 62 108 44 c 256,73,74
 102 26 102 26 94 24 c 2,75,-1
 93 24 l 2,76,77
 85 24 85 24 70 46 c 0,78,79
 62 60 62 60 54 76 c 256,80,81
 46 92 46 92 44 104 c 0,82,83
 43 110 43 110 43 115 c 0,84,85
 43 121 43 121 44 126 c 2,43,-1
EndSplineSet
EndChar
StartChar: m
Encoding: 109 109 80
Width: 579
Flags: W
LayerCount: 2
Back
Fore
SplineSet
306 396 m 1,0,1
 319 423 319 423 331 442 c 256,2,3
 343 461 343 461 362 473 c 0,4,5
 381 484 381 484 402 488 c 1,6,-1
 412 488 l 2,7,8
 433 488 433 488 452 482 c 0,9,10
 477 473 477 473 489 463 c 0,11,12
 502 452 502 452 516 432 c 0,13,14
 529 412 529 412 534 391 c 0,15,16
 539 369 539 369 540 322 c 0,17,18
 541 276 541 276 542 242 c 0,19,20
 543 225 543 225 543 205 c 256,21,22
 543 185 543 185 542 162 c 0,23,24
 541 109 541 109 538 86 c 0,25,26
 535 62 535 62 529 44 c 0,27,28
 523 24 523 24 517 23 c 2,29,-1
 516 23 l 2,30,31
 510 23 510 23 497 42 c 0,32,33
 481 64 481 64 475 79 c 0,34,35
 471 90 471 90 471 100 c 2,36,-1
 471 106 l 1,37,-1
 480 128 l 2,38,39
 489 149 489 149 490 179 c 0,40,41
 491 208 491 208 493 241 c 0,42,43
 494 263 494 263 494 285 c 2,44,-1
 494 308 l 2,45,46
 493 350 493 350 483 378 c 0,47,48
 475 406 475 406 454 425 c 0,49,50
 435 442 435 442 412 442 c 2,51,-1
 407 442 l 2,52,53
 387 439 387 439 371 422 c 0,54,55
 354 405 354 405 340 365 c 0,56,57
 325 324 325 324 325 305 c 2,58,-1
 325 274 l 1,59,-1
 324 159 l 2,60,61
 325 131 325 131 325 114 c 256,62,63
 325 97 325 97 324 92 c 0,64,65
 322 68 322 68 315 46 c 0,66,67
 309 24 309 24 301 22 c 2,68,-1
 300 22 l 2,69,70
 292 22 292 22 278 43 c 0,71,72
 271 52 271 52 264 72 c 256,73,74
 257 92 257 92 256 100 c 0,75,76
 256 106 256 106 266 135 c 0,77,78
 272 154 272 154 274 197 c 0,79,80
 277 240 277 240 277 254 c 2,81,-1
 276 277 l 1,82,-1
 276 316 l 2,83,84
 275 340 275 340 270 371 c 256,85,86
 265 402 265 402 249 424 c 256,87,88
 233 446 233 446 204 446 c 256,89,90
 175 446 175 446 153 429 c 0,91,92
 135 414 135 414 125 390 c 0,93,94
 114 366 114 366 113 337 c 0,95,96
 112 330 112 330 112 320 c 2,97,-1
 112 309 l 2,98,99
 113 292 113 292 113 238 c 2,100,-1
 113 125 l 2,101,102
 111 96 111 96 110 80 c 256,103,104
 109 64 109 64 102 44 c 256,105,106
 95 24 95 24 89 23 c 2,107,-1
 88 23 l 2,108,109
 82 23 82 23 71 41 c 0,110,111
 60 56 60 56 56 64 c 0,112,113
 52 73 52 73 48 84 c 0,114,115
 44 96 44 96 44 102 c 2,116,-1
 44 103 l 2,117,118
 44 111 44 111 57 147 c 0,119,120
 63 164 63 164 63 198 c 0,121,122
 63 231 63 231 65 276 c 0,123,124
 66 307 66 307 66 331 c 2,125,-1
 66 354 l 2,126,127
 63 391 63 391 57 415 c 0,128,129
 51 440 51 440 43 452 c 0,130,131
 36 466 36 466 36 475 c 0,132,133
 37 484 37 484 45 486 c 2,134,-1
 48 486 l 2,135,136
 55 486 55 486 65 480 c 0,137,138
 91 460 91 460 98 454 c 2,139,-1
 112 438 l 1,140,141
 128 456 128 456 147 470 c 0,142,143
 165 484 165 484 195 486 c 2,144,-1
 202 486 l 2,145,146
 229 486 229 486 256 473 c 0,147,148
 287 458 287 458 294 432 c 2,149,-1
 306 396 l 1,0,1
EndSplineSet
EndChar
StartChar: n
Encoding: 110 110 81
Width: 365
Flags: W
LayerCount: 2
Back
Fore
SplineSet
104 437 m 0,0,1
 124 456 124 456 148 470 c 0,2,3
 170 484 170 484 204 485 c 2,4,-1
 208 485 l 2,5,6
 234 485 234 485 258 472 c 0,7,8
 285 459 285 459 302 436 c 0,9,10
 319 412 319 412 324 383 c 0,11,12
 328 354 328 354 328 315 c 2,13,-1
 328 128 l 2,14,15
 328 97 328 97 326 83 c 0,16,17
 324 68 324 68 318 47 c 256,18,19
 312 26 312 26 306 26 c 2,20,-1
 305 26 l 2,21,22
 299 26 299 26 292 34 c 0,23,24
 278 47 278 47 272 61 c 0,25,26
 265 76 265 76 264 86 c 0,27,28
 263 91 263 91 263 96 c 256,29,30
 263 101 263 101 264 106 c 2,31,-1
 272 150 l 2,32,33
 276 163 276 163 278 200 c 2,34,-1
 280 238 l 1,35,-1
 282 300 l 2,36,37
 282 354 282 354 276 377 c 256,38,39
 270 400 270 400 252 422 c 0,40,41
 232 442 232 442 200 442 c 0,42,43
 181 442 181 442 162 430 c 0,44,45
 143 419 143 419 130 398 c 0,46,47
 117 376 117 376 116 345 c 0,48,49
 114 337 114 337 114 316 c 0,50,51
 116 294 116 294 116 272 c 2,52,-1
 116 176 l 2,53,54
 116 157 116 157 114 129 c 0,55,56
 114 102 114 102 112 85 c 0,57,58
 111 68 111 68 104 49 c 0,59,60
 98 30 98 30 92 29 c 2,61,-1
 91 29 l 2,62,63
 85 29 85 29 74 47 c 0,64,65
 64 61 64 61 59 71 c 256,66,67
 54 81 54 81 51 91 c 256,68,69
 48 101 48 101 48 112 c 2,70,-1
 60 155 l 2,71,72
 62 164 62 164 64 190 c 2,73,-1
 64 288 l 2,74,75
 62 367 62 367 60 391 c 0,76,77
 58 414 58 414 47 435 c 256,78,79
 36 456 36 456 36 468 c 256,80,81
 36 480 36 480 42 482 c 0,82,83
 44 483 44 483 46 483 c 0,84,85
 52 483 52 483 60 478 c 0,86,87
 77 468 77 468 90 452 c 0,88,89
 104 436 104 436 104 437 c 0,0,1
104 437 m 0,90,91
 124 456 124 456 148 470 c 0,92,93
 170 484 170 484 204 485 c 2,94,-1
 208 485 l 2,95,96
 234 485 234 485 258 472 c 0,97,98
 284 459 284 459 302 436 c 0,99,100
 318 412 318 412 323 383 c 256,101,102
 328 354 328 354 328 315 c 2,103,-1
 328 128 l 2,104,105
 328 97 328 97 326 83 c 0,106,107
 324 68 324 68 318 47 c 256,108,109
 312 26 312 26 306 26 c 2,110,-1
 305 26 l 2,111,112
 299 26 299 26 292 34 c 0,113,114
 278 47 278 47 272 61 c 0,115,116
 266 76 266 76 264 86 c 0,117,118
 263 91 263 91 263 96 c 256,119,120
 263 101 263 101 264 106 c 2,121,-1
 272 150 l 2,122,123
 276 163 276 163 278 200 c 2,124,-1
 280 238 l 1,125,-1
 282 300 l 2,126,127
 282 354 282 354 276 377 c 256,128,129
 270 400 270 400 252 422 c 0,130,131
 232 442 232 442 200 442 c 0,132,133
 180 442 180 442 162 430 c 0,134,135
 142 419 142 419 130 398 c 0,136,137
 118 376 118 376 116 345 c 0,138,139
 114 337 114 337 114 316 c 0,140,141
 116 294 116 294 116 272 c 2,142,-1
 116 176 l 2,143,144
 116 157 116 157 114 129 c 0,145,146
 114 102 114 102 112 85 c 0,147,148
 112 68 112 68 104 49 c 0,149,150
 98 30 98 30 92 29 c 2,151,-1
 91 29 l 2,152,153
 85 29 85 29 74 47 c 0,154,155
 64 61 64 61 59 71 c 256,156,157
 54 81 54 81 51 91 c 256,158,159
 48 101 48 101 48 112 c 2,160,-1
 60 155 l 2,161,162
 62 164 62 164 63 190 c 256,163,164
 64 216 64 216 64 228 c 2,165,-1
 64 288 l 2,166,167
 62 367 62 367 60 391 c 0,168,169
 58 414 58 414 47 435 c 256,170,171
 36 456 36 456 36 468 c 256,172,173
 36 480 36 480 42 482 c 0,174,175
 44 483 44 483 46 483 c 0,176,177
 52 483 52 483 60 478 c 0,178,179
 76 468 76 468 90 452 c 256,180,181
 104 436 104 436 104 437 c 0,90,91
EndSplineSet
EndChar
StartChar: o
Encoding: 111 111 82
Width: 387
Flags: W
LayerCount: 2
Back
Fore
SplineSet
192 488 m 256,0,1
 228 488 228 488 267 461 c 256,2,3
 306 434 306 434 328 379 c 256,4,5
 350 324 350 324 351 266 c 0,6,7
 351 208 351 208 330 152 c 0,8,9
 308 98 308 98 271 68 c 256,10,11
 234 38 234 38 193 38 c 256,12,13
 152 38 152 38 114 68 c 0,14,15
 78 98 78 98 56 152 c 0,16,17
 36 206 36 206 36 267 c 0,18,19
 36 326 36 326 57 380 c 256,20,21
 78 434 78 434 117 461 c 256,22,23
 156 488 156 488 192 488 c 256,0,1
190 442 m 256,24,25
 166 442 166 442 140 421 c 256,26,27
 114 400 114 400 98 356 c 0,28,29
 84 312 84 312 83 268 c 0,30,31
 83 223 83 223 98 176 c 0,32,33
 112 132 112 132 137 108 c 256,34,35
 162 84 162 84 189 83 c 0,36,37
 216 83 216 83 243 108 c 0,38,39
 268 132 268 132 283 177 c 256,40,41
 298 222 298 222 298 269 c 0,42,43
 297 313 297 313 282 356 c 0,44,45
 268 400 268 400 241 421 c 256,46,47
 214 442 214 442 190 442 c 256,24,25
EndSplineSet
EndChar
StartChar: p
Encoding: 112 112 83
Width: 383
Flags: W
LayerCount: 2
Back
Fore
SplineSet
104 90 m 1,0,1
 103 42 103 42 103 9 c 0,2,3
 103 -25 103 -25 104 -44 c 0,4,5
 104 -82 104 -82 106 -102 c 0,6,7
 106 -122 106 -122 104 -150 c 0,8,9
 100 -173 100 -173 94 -188 c 0,10,11
 86 -202 86 -202 80 -204 c 2,12,-1
 79 -204 l 2,13,14
 73 -204 73 -204 62 -187 c 0,15,16
 50 -171 50 -171 44 -152 c 0,17,18
 36 -134 36 -134 36 -125 c 256,19,20
 36 -116 36 -116 40 -98 c 0,21,22
 46 -78 46 -78 48 -60 c 0,23,24
 52 -42 52 -42 52 -2 c 2,25,-1
 52 374 l 2,26,27
 52 387 52 387 48 417 c 0,28,29
 44 446 44 446 40 459 c 256,30,31
 36 472 36 472 36 478 c 256,32,33
 36 484 36 484 39 488 c 0,34,35
 41 491 41 491 47 491 c 0,36,37
 50 491 50 491 54 490 c 0,38,39
 68 486 68 486 84 470 c 2,40,-1
 104 451 l 1,41,42
 134 466 134 466 152 474 c 0,43,44
 172 481 172 481 198 482 c 2,45,-1
 209 482 l 2,46,47
 227 482 227 482 244 477 c 0,48,49
 264 470 264 470 285 453 c 256,50,51
 306 436 306 436 320 406 c 0,52,53
 334 375 334 375 342 330 c 0,54,55
 348 285 348 285 348 242 c 0,56,57
 346 196 346 196 334 152 c 256,58,59
 322 108 322 108 300 82 c 256,60,61
 278 56 278 56 251 46 c 0,62,63
 229 38 229 38 208 38 c 2,64,-1
 200 38 l 2,65,66
 160 40 160 40 146 54 c 2,67,-1
 104 90 l 1,0,1
104 384 m 1,68,-1
 104 156 l 1,69,70
 118 130 118 130 134 114 c 0,71,72
 148 98 148 98 176 89 c 0,73,74
 188 85 188 85 201 85 c 256,75,76
 214 85 214 85 228 90 c 0,77,78
 258 101 258 101 272 132 c 0,79,80
 286 164 286 164 290 207 c 256,81,82
 294 250 294 250 294 274 c 0,83,84
 294 299 294 299 288 332 c 0,85,86
 284 364 284 364 270 389 c 256,87,88
 256 414 256 414 234 425 c 0,89,90
 214 436 214 436 192 436 c 2,91,-1
 188 436 l 2,92,93
 162 436 162 436 141 423 c 256,94,95
 120 410 120 410 112 398 c 2,96,-1
 104 384 l 1,68,-1
EndSplineSet
EndChar
StartChar: q
Encoding: 113 113 84
Width: 389
Flags: W
LayerCount: 2
Back
Fore
SplineSet
279 92 m 1,0,1
 254 64 254 64 234 52 c 0,2,3
 215 40 215 40 188 39 c 2,4,-1
 179 39 l 2,5,6
 157 39 157 39 135 47 c 0,7,8
 107 58 107 58 84 84 c 0,9,10
 60 110 60 110 48 152 c 0,11,12
 37 195 37 195 36 237 c 0,13,14
 35 251 35 251 35 264 c 0,15,16
 35 289 35 289 38 310 c 0,17,18
 40 330 40 330 46 358 c 0,19,20
 52 385 52 385 64 410 c 0,21,22
 77 436 77 436 99 453 c 256,23,24
 121 470 121 470 142 476 c 0,25,26
 159 481 159 481 179 481 c 2,27,-1
 190 481 l 2,28,29
 222 478 222 478 236 470 c 2,30,-1
 279 445 l 1,31,32
 280 454 280 454 280 462 c 256,33,34
 280 470 280 470 279 478 c 0,35,36
 279 494 279 494 285 498 c 0,37,38
 288 500 288 500 292 500 c 0,39,40
 299 500 299 500 308 496 c 0,41,42
 318 490 318 490 326 482 c 0,43,44
 334 472 334 472 346 454 c 0,45,46
 357 436 357 436 357 428 c 0,47,48
 356 424 356 424 347 406 c 256,49,50
 338 388 338 388 334 357 c 0,51,52
 332 327 332 327 331 299 c 2,53,-1
 331 250 l 1,54,-1
 330 -4 l 1,55,-1
 330 -81 l 2,56,57
 331 -102 331 -102 331 -116 c 256,58,59
 331 -130 331 -130 330 -138 c 0,60,61
 330 -164 330 -164 322 -184 c 0,62,63
 315 -203 315 -203 307 -204 c 0,64,65
 299 -204 299 -204 288 -192 c 0,66,67
 276 -180 276 -180 269 -164 c 0,68,69
 262 -149 262 -149 260 -142 c 2,70,-1
 260 -139 l 2,71,72
 260 -131 260 -131 266 -110 c 0,73,74
 269 -96 269 -96 272 -65 c 0,75,76
 276 -34 276 -34 276 -18 c 2,77,-1
 279 92 l 1,0,1
279 390 m 1,78,79
 272 397 272 397 265 405 c 256,80,81
 258 413 258 413 239 423 c 0,82,83
 220 432 220 432 194 433 c 0,84,85
 170 433 170 433 148 422 c 0,86,87
 125 410 125 410 112 387 c 0,88,89
 98 364 98 364 93 333 c 256,90,91
 88 302 88 302 88 276 c 0,92,93
 88 249 88 249 91 216 c 0,94,95
 95 168 95 168 110 138 c 0,96,97
 124 109 124 109 154 96 c 0,98,99
 170 88 170 88 186 88 c 0,100,101
 201 88 201 88 216 94 c 0,102,103
 248 104 248 104 257 122 c 2,104,-1
 279 156 l 1,105,-1
 279 390 l 1,78,79
EndSplineSet
EndChar
StartChar: r
Encoding: 114 114 85
Width: 326
Flags: W
LayerCount: 2
Back
Fore
SplineSet
106 446 m 1,0,1
 126 460 126 460 144 469 c 256,2,3
 162 478 162 478 188 480 c 0,4,5
 212 480 212 480 240 468 c 0,6,7
 268 455 268 455 281 435 c 0,8,9
 293 414 293 414 294 390 c 0,10,11
 294 365 294 365 289 342 c 0,12,13
 284 322 284 322 274 314 c 0,14,15
 266 306 266 306 260 306 c 0,16,17
 259 306 259 306 257 307 c 0,18,19
 250 310 250 310 250 328 c 2,20,-1
 255 369 l 1,21,-1
 255 372 l 2,22,23
 255 395 255 395 239 414 c 0,24,25
 222 433 222 433 194 433 c 0,26,27
 178 432 178 432 157 422 c 256,28,29
 136 412 136 412 131 401 c 2,30,-1
 114 375 l 1,31,-1
 114 120 l 2,32,33
 113 98 113 98 111 81 c 0,34,35
 109 65 109 65 103 47 c 0,36,37
 96 29 96 29 90 28 c 2,38,-1
 89 28 l 2,39,40
 83 28 83 28 72 42 c 0,41,42
 66 50 66 50 58 65 c 256,43,44
 50 80 50 80 48 86 c 2,45,-1
 48 91 l 2,46,47
 48 97 48 97 49 104 c 2,48,-1
 58 145 l 2,49,50
 62 162 62 162 63 192 c 2,51,-1
 64 239 l 2,52,53
 66 306 66 306 67 327 c 0,54,55
 67 347 67 347 64 380 c 0,56,57
 61 417 61 417 54 442 c 2,58,-1
 39 485 l 2,59,60
 38 491 38 491 38 495 c 0,61,62
 38 500 38 500 40 503 c 0,63,64
 43 507 43 507 48 507 c 0,65,66
 50 507 50 507 52 506 c 0,67,68
 58 505 58 505 72 492 c 0,69,70
 86 478 86 478 92 469 c 2,71,-1
 106 446 l 1,0,1
EndSplineSet
EndChar
StartChar: s
Encoding: 115 115 86
Width: 331
Flags: W
LayerCount: 2
Back
Fore
SplineSet
234 454 m 1,0,1
 238 465 238 465 247 477 c 0,2,3
 256 488 256 488 265 488 c 0,4,5
 274 487 274 487 277 451 c 0,6,7
 278 438 278 438 278 424 c 256,8,9
 278 410 278 410 277 396 c 2,10,-1
 277 339 l 2,11,12
 277 326 277 326 272 322 c 0,13,14
 268 320 268 320 264 320 c 0,15,16
 261 320 261 320 257 322 c 0,17,18
 250 324 250 324 245 343 c 256,19,20
 240 362 240 362 233 381 c 0,21,22
 225 400 225 400 213 414 c 0,23,24
 202 428 202 428 176 437 c 0,25,26
 166 441 166 441 156 441 c 0,27,28
 141 441 141 441 126 432 c 0,29,30
 102 418 102 418 94 389 c 0,31,32
 90 375 90 375 90 363 c 256,33,34
 90 351 90 351 94 341 c 0,35,36
 101 322 101 322 120 312 c 0,37,38
 139 301 139 301 175 291 c 0,39,40
 212 281 212 281 235 270 c 0,41,42
 258 258 258 258 276 237 c 0,43,44
 295 216 295 216 298 176 c 0,45,46
 299 167 299 167 299 158 c 0,47,48
 299 129 299 129 289 107 c 0,49,50
 278 84 278 84 260 68 c 0,51,52
 241 52 241 52 218 45 c 0,53,54
 198 40 198 40 176 40 c 2,55,-1
 168 40 l 2,56,57
 133 42 133 42 108 53 c 0,58,59
 84 64 84 64 70 80 c 0,60,61
 56 94 56 94 50 112 c 0,62,63
 43 129 43 129 38 150 c 0,64,65
 35 163 35 163 35 172 c 0,66,67
 35 177 35 177 36 180 c 0,68,69
 38 190 38 190 44 192 c 0,70,71
 45 193 45 193 47 193 c 0,72,73
 52 193 52 193 60 185 c 0,74,75
 64 180 64 180 70 166 c 0,76,77
 75 151 75 151 87 132 c 0,78,79
 99 114 99 114 117 101 c 0,80,81
 136 88 136 88 170 88 c 2,82,-1
 174 88 l 2,83,84
 196 88 196 88 214 97 c 0,85,86
 234 106 234 106 243 127 c 0,87,88
 248 140 248 140 248 155 c 0,89,90
 248 165 248 165 246 176 c 0,91,92
 239 200 239 200 225 215 c 0,93,94
 210 230 210 230 188 240 c 2,95,-1
 118 263 l 2,96,97
 82 274 82 274 67 290 c 0,98,99
 51 306 51 306 44 336 c 0,100,101
 41 347 41 347 41 359 c 0,102,103
 41 380 41 380 50 405 c 0,104,105
 56 424 56 424 69 442 c 256,106,107
 82 460 82 460 103 471 c 256,108,109
 124 482 124 482 151 483 c 0,110,111
 182 483 182 483 207 467 c 0,112,113
 228 454 228 454 233 454 c 2,114,-1
 234 454 l 1,0,1
EndSplineSet
EndChar
StartChar: t
Encoding: 116 116 87
Width: 354
Flags: W
LayerCount: 2
Back
Fore
SplineSet
190 424 m 1,0,1
 188 404 188 404 188 394 c 2,2,-1
 188 340 l 1,3,-1
 185 248 l 1,4,-1
 185 182 l 2,5,6
 184 170 184 170 184 159 c 0,7,8
 184 136 184 136 189 123 c 0,9,10
 195 104 195 104 212 98 c 0,11,12
 220 95 220 95 227 95 c 0,13,14
 237 95 237 95 246 100 c 0,15,16
 258 107 258 107 266 127 c 0,17,18
 275 146 275 146 278 166 c 0,19,20
 282 184 282 184 284 217 c 0,21,22
 288 249 288 249 294 250 c 2,23,-1
 295 250 l 2,24,25
 301 250 301 250 308 236 c 0,26,27
 315 224 315 224 315 200 c 2,28,-1
 315 144 l 2,29,30
 314 119 314 119 308 98 c 0,31,32
 302 76 302 76 287 60 c 256,33,34
 272 44 272 44 238 42 c 0,35,36
 232 41 232 41 227 41 c 0,37,38
 218 41 218 41 208 43 c 0,39,40
 191 46 191 46 173 58 c 0,41,42
 154 70 154 70 146 86 c 256,43,44
 138 102 138 102 136 130 c 0,45,46
 132 159 132 159 132 190 c 0,47,48
 132 220 132 220 134 270 c 0,49,50
 136 306 136 306 136 320 c 2,51,-1
 136 417 l 1,52,53
 114 410 114 410 97 406 c 0,54,55
 87 404 87 404 79 404 c 0,56,57
 73 404 73 404 67 405 c 0,58,59
 56 408 56 408 42 419 c 0,60,61
 30 430 30 430 30 437 c 256,62,63
 30 444 30 444 31 447 c 0,64,65
 34 451 34 451 48 451 c 2,66,-1
 62 451 l 2,67,68
 78 451 78 451 91 454 c 2,69,-1
 134 463 l 1,70,-1
 133 512 l 2,71,72
 132 552 132 552 128 566 c 2,73,-1
 118 586 l 2,74,75
 113 597 113 597 113 603 c 0,76,77
 113 606 113 606 114 608 c 0,78,79
 118 612 118 612 126 612 c 0,80,81
 130 612 130 612 134 611 c 256,82,83
 138 610 138 610 168 597 c 0,84,85
 198 585 198 585 201 576 c 0,86,87
 204 568 204 568 204 559 c 0,88,89
 202 550 202 550 199 538 c 0,90,91
 195 525 195 525 194 520 c 2,92,-1
 194 503 l 1,93,-1
 192 470 l 1,94,95
 229 476 229 476 245 482 c 0,96,97
 260 489 260 489 265 490 c 0,98,99
 275 490 275 490 289 484 c 2,100,-1
 314 468 l 2,101,102
 323 459 323 459 323 452 c 2,103,-1
 323 451 l 2,104,105
 322 444 322 444 306 439 c 0,106,107
 292 434 292 434 264 434 c 256,108,109
 236 434 236 434 228 432 c 2,110,-1
 190 424 l 1,0,1
190 424 m 1,111,112
 188 404 188 404 188 394 c 2,113,-1
 188 340 l 1,114,-1
 185 248 l 1,115,-1
 185 182 l 2,116,117
 184 170 184 170 184 159 c 0,118,119
 184 136 184 136 189 123 c 0,120,121
 195 104 195 104 212 98 c 0,122,123
 220 95 220 95 227 95 c 0,124,125
 237 95 237 95 246 100 c 0,126,127
 258 107 258 107 266 127 c 0,128,129
 275 146 275 146 278 166 c 0,130,131
 282 184 282 184 284 217 c 0,132,133
 288 249 288 249 294 250 c 2,134,-1
 295 250 l 2,135,136
 301 250 301 250 308 236 c 0,137,138
 315 224 315 224 315 200 c 2,139,-1
 315 144 l 2,140,141
 314 119 314 119 308 98 c 0,142,143
 302 76 302 76 287 60 c 256,144,145
 272 44 272 44 238 42 c 0,146,147
 232 41 232 41 227 41 c 0,148,149
 218 41 218 41 208 43 c 0,150,151
 191 46 191 46 173 58 c 0,152,153
 154 70 154 70 146 86 c 256,154,155
 138 102 138 102 136 130 c 0,156,157
 132 159 132 159 132 190 c 0,158,159
 132 220 132 220 134 270 c 0,160,161
 136 306 136 306 136 320 c 2,162,-1
 136 417 l 1,163,164
 114 410 114 410 97 406 c 0,165,166
 87 404 87 404 79 404 c 0,167,168
 73 404 73 404 67 405 c 0,169,170
 56 408 56 408 42 419 c 0,171,172
 30 430 30 430 30 437 c 256,173,174
 30 444 30 444 31 447 c 0,175,176
 34 451 34 451 48 451 c 2,177,-1
 62 451 l 2,178,179
 78 451 78 451 91 454 c 2,180,-1
 134 463 l 1,181,-1
 133 512 l 2,182,183
 132 552 132 552 128 566 c 2,184,-1
 118 586 l 2,185,186
 113 597 113 597 113 603 c 0,187,188
 113 606 113 606 114 608 c 0,189,190
 118 612 118 612 126 612 c 0,191,192
 130 612 130 612 134 611 c 256,193,194
 138 610 138 610 168 597 c 0,195,196
 198 585 198 585 201 576 c 0,197,198
 204 568 204 568 204 559 c 0,199,200
 202 550 202 550 199 538 c 0,201,202
 195 525 195 525 194 520 c 2,203,-1
 194 503 l 1,204,-1
 192 470 l 1,205,206
 229 476 229 476 245 482 c 0,207,208
 260 489 260 489 265 490 c 0,209,210
 275 490 275 490 289 484 c 0,211,212
 302 476 302 476 314 468 c 0,213,214
 323 459 323 459 323 452 c 2,215,-1
 323 451 l 2,216,217
 322 444 322 444 306 439 c 0,218,219
 292 434 292 434 264 434 c 256,220,221
 236 434 236 434 228 432 c 2,222,-1
 190 424 l 1,111,112
EndSplineSet
EndChar
StartChar: u
Encoding: 117 117 88
Width: 385
Flags: W
LayerCount: 2
Back
Fore
SplineSet
286 72 m 2,0,1
 267 58 267 58 254 52 c 0,2,3
 240 46 240 46 216 41 c 0,4,5
 200 38 200 38 186 38 c 0,6,7
 177 38 177 38 168 39 c 0,8,9
 136 42 136 42 114 56 c 0,10,11
 93 70 93 70 82 88 c 0,12,13
 70 106 70 106 65 134 c 0,14,15
 60 161 60 161 60 200 c 2,16,-1
 60 268 l 1,17,-1
 58 346 l 1,18,-1
 58 393 l 2,19,20
 58 418 58 418 56 430 c 0,21,22
 54 444 54 444 50 454 c 2,23,-1
 40 470 l 2,24,25
 35 481 35 481 35 486 c 0,26,27
 35 489 35 489 36 490 c 0,28,29
 40 496 40 496 48 496 c 2,30,-1
 51 496 l 2,31,32
 57 496 57 496 66 492 c 0,33,34
 78 486 78 486 92 481 c 0,35,36
 105 476 105 476 111 469 c 0,37,38
 116 462 116 462 117 454 c 0,39,40
 117 447 117 447 114 434 c 0,41,42
 110 420 110 420 109 404 c 256,43,44
 108 388 108 388 107 370 c 2,45,-1
 107 266 l 2,46,47
 107 235 107 235 106 212 c 0,48,49
 106 176 106 176 108 160 c 0,50,51
 112 132 112 132 126 112 c 0,52,53
 141 92 141 92 171 85 c 0,54,55
 182 82 182 82 193 82 c 0,56,57
 208 82 208 82 223 87 c 0,58,59
 250 96 250 96 265 112 c 256,60,61
 280 128 280 128 285 148 c 256,62,63
 290 168 290 168 293 220 c 0,64,65
 295 272 295 272 295 287 c 2,66,-1
 294 322 l 1,67,-1
 294 384 l 2,68,69
 294 388 294 388 292 412 c 256,70,71
 290 436 290 436 287 442 c 0,72,73
 285 448 285 448 276 466 c 0,74,75
 271 478 271 478 271 484 c 0,76,77
 271 487 271 487 272 488 c 0,78,79
 277 492 277 492 284 493 c 0,80,81
 291 493 291 493 305 487 c 0,82,83
 320 481 320 481 325 478 c 2,84,-1
 342 467 l 2,85,86
 354 460 354 460 356 454 c 0,87,88
 358 449 358 449 358 440 c 0,89,90
 356 434 356 434 352 418 c 256,91,92
 348 402 348 402 346 388 c 256,93,94
 344 374 344 374 343 364 c 0,95,96
 343 352 343 352 344 322 c 2,97,-1
 344 177 l 2,98,99
 344 161 344 161 343 131 c 0,100,101
 343 102 343 102 341 86 c 256,102,103
 339 70 339 70 333 50 c 0,104,105
 327 32 327 32 321 30 c 0,106,107
 315 27 315 27 310 27 c 0,108,109
 296 27 296 27 294 48 c 0,110,111
 292 73 292 73 287 73 c 2,112,-1
 286 72 l 2,0,1
286 72 m 2,113,114
 267 58 267 58 254 52 c 0,115,116
 240 46 240 46 216 41 c 0,117,118
 200 38 200 38 186 38 c 0,119,120
 177 38 177 38 168 39 c 0,121,122
 136 42 136 42 114 56 c 0,123,124
 93 70 93 70 82 88 c 0,125,126
 70 106 70 106 65 134 c 0,127,128
 60 161 60 161 60 200 c 2,129,-1
 60 268 l 1,130,-1
 58 346 l 1,131,-1
 58 393 l 2,132,133
 58 418 58 418 56 430 c 0,134,135
 54 444 54 444 50 454 c 2,136,-1
 40 470 l 2,137,138
 35 481 35 481 35 486 c 0,139,140
 35 489 35 489 36 490 c 0,141,142
 40 496 40 496 48 496 c 2,143,-1
 51 496 l 2,144,145
 57 496 57 496 66 492 c 0,146,147
 78 486 78 486 92 481 c 0,148,149
 105 476 105 476 111 469 c 0,150,151
 116 462 116 462 117 454 c 0,152,153
 117 447 117 447 114 434 c 0,154,155
 110 420 110 420 109 404 c 256,156,157
 108 388 108 388 107 370 c 2,158,-1
 107 266 l 2,159,160
 107 235 107 235 106 212 c 0,161,162
 106 176 106 176 108 160 c 0,163,164
 112 132 112 132 126 112 c 0,165,166
 141 92 141 92 171 85 c 0,167,168
 182 82 182 82 193 82 c 0,169,170
 208 82 208 82 223 87 c 0,171,172
 250 96 250 96 265 112 c 256,173,174
 280 128 280 128 285 148 c 256,175,176
 290 168 290 168 293 220 c 0,177,178
 295 272 295 272 295 287 c 2,179,-1
 294 322 l 1,180,-1
 294 384 l 2,181,182
 294 388 294 388 292 412 c 256,183,184
 290 436 290 436 287 442 c 0,185,186
 285 448 285 448 276 466 c 0,187,188
 271 478 271 478 271 484 c 0,189,190
 271 487 271 487 272 488 c 0,191,192
 277 492 277 492 284 493 c 0,193,194
 291 493 291 493 305 487 c 0,195,196
 320 481 320 481 325 478 c 0,197,198
 331 474 331 474 342 467 c 0,199,200
 354 460 354 460 356 454 c 0,201,202
 358 449 358 449 358 440 c 0,203,204
 356 434 356 434 352 418 c 256,205,206
 348 402 348 402 346 388 c 256,207,208
 344 374 344 374 343 364 c 0,209,210
 343 352 343 352 344 322 c 2,211,-1
 344 177 l 2,212,213
 344 161 344 161 343 131 c 0,214,215
 343 102 343 102 341 86 c 256,216,217
 339 70 339 70 333 50 c 0,218,219
 327 32 327 32 321 30 c 0,220,221
 315 27 315 27 310 27 c 0,222,223
 296 27 296 27 294 48 c 0,224,225
 292 73 292 73 287 73 c 2,226,-1
 286 72 l 2,113,114
EndSplineSet
EndChar
StartChar: v
Encoding: 118 118 89
Width: 442
Flags: W
LayerCount: 2
Back
Fore
SplineSet
401 427 m 0,0,1
 401 422 401 422 397 412 c 2,2,-1
 375 383 l 2,3,4
 370 376 370 376 367 365 c 256,5,6
 364 354 364 354 346 298 c 256,7,8
 328 242 328 242 328 241 c 2,9,-1
 308 187 l 2,10,11
 288 132 288 132 284 120 c 0,12,13
 278 108 278 108 268 86 c 0,14,15
 258 65 258 65 252 53 c 0,16,17
 246 42 246 42 238 36 c 0,18,19
 230 32 230 32 223 32 c 0,20,21
 213 32 213 32 204 40 c 0,22,23
 195 49 195 49 186 70 c 0,24,25
 178 90 178 90 168 112 c 0,26,27
 160 133 160 133 150 157 c 0,28,29
 141 181 141 181 131 210 c 0,30,31
 120 238 120 238 114 258 c 0,32,33
 108 277 108 277 100 302 c 0,34,35
 92 326 92 326 84 355 c 0,36,37
 75 383 75 383 71 398 c 0,38,39
 66 412 66 412 62 423 c 0,40,41
 57 434 57 434 48 446 c 2,42,-1
 32 466 l 2,43,44
 26 472 26 472 26 479 c 256,45,46
 26 486 26 486 33 489 c 0,47,48
 36 491 36 491 41 491 c 0,49,50
 48 491 48 491 58 488 c 2,51,-1
 86 481 l 2,52,53
 96 478 96 478 109 473 c 256,54,55
 122 468 122 468 130 459 c 256,56,57
 138 450 138 450 138 445 c 256,58,59
 138 440 138 440 135 427 c 0,60,61
 133 419 133 419 133 410 c 0,62,63
 133 404 133 404 134 398 c 0,64,65
 136 383 136 383 139 370 c 0,66,67
 142 356 142 356 153 320 c 0,68,69
 164 285 164 285 172 256 c 2,70,-1
 186 198 l 1,71,-1
 206 128 l 2,72,73
 218 76 218 76 223 76 c 0,74,75
 226 77 226 77 237 114 c 2,76,-1
 256 177 l 2,77,78
 262 194 262 194 273 239 c 256,79,80
 284 284 284 284 294 319 c 0,81,82
 303 355 303 355 307 371 c 0,83,84
 310 388 310 388 314 409 c 0,85,86
 317 430 317 430 317 438 c 2,87,-1
 312 474 l 2,88,89
 312 490 312 490 320 494 c 0,90,91
 323 496 323 496 326 496 c 0,92,93
 334 496 334 496 348 488 c 0,94,95
 361 481 361 481 372 473 c 0,96,97
 382 464 382 464 391 451 c 256,98,99
 400 438 400 438 401 427 c 0,0,1
EndSplineSet
EndChar
StartChar: w
Encoding: 119 119 90
Width: 575
Flags: W
LayerCount: 2
Back
Fore
SplineSet
280 252 m 0,0,1
 271 222 271 222 254 172 c 0,2,3
 238 122 238 122 226 94 c 0,4,5
 215 67 215 67 207 52 c 0,6,7
 199 38 199 38 191 32 c 0,8,9
 184 27 184 27 179 27 c 2,10,-1
 177 27 l 2,11,12
 170 28 170 28 164 38 c 256,13,14
 158 48 158 48 153 60 c 256,15,16
 148 72 148 72 138 107 c 2,17,-1
 122 161 l 2,18,19
 117 180 117 180 109 215 c 2,20,-1
 94 274 l 2,21,22
 88 299 88 299 86 306 c 256,23,24
 84 313 84 313 78 345 c 2,25,-1
 68 398 l 2,26,27
 64 420 64 420 59 434 c 0,28,29
 55 447 55 447 51 454 c 2,30,-1
 38 470 l 2,31,32
 35 475 35 475 35 479 c 0,33,34
 35 481 35 481 36 483 c 0,35,36
 38 489 38 489 45 493 c 0,37,38
 47 494 47 494 51 494 c 0,39,40
 59 494 59 494 73 490 c 0,41,42
 100 480 100 480 110 475 c 0,43,44
 120 471 120 471 129 462 c 256,45,46
 138 453 138 453 138 443 c 2,47,-1
 129 414 l 2,48,49
 128 410 128 410 128 404 c 0,50,51
 128 397 128 397 130 386 c 2,52,-1
 140 319 l 2,53,54
 142 299 142 299 148 262 c 2,55,-1
 158 200 l 2,56,57
 162 176 162 176 171 132 c 0,58,59
 179 92 179 92 184 92 c 2,60,-1
 185 92 l 2,61,62
 188 93 188 93 194 116 c 2,63,-1
 215 178 l 2,64,65
 220 195 220 195 233 251 c 0,66,67
 246 306 246 306 250 321 c 2,68,-1
 259 364 l 2,69,70
 266 394 266 394 269 413 c 256,71,72
 272 432 272 432 279 441 c 256,73,74
 286 450 286 450 301 453 c 2,75,-1
 304 453 l 2,76,77
 318 453 318 453 330 432 c 0,78,79
 333 425 333 425 337 408 c 2,80,-1
 346 370 l 2,81,82
 346 368 346 368 350 336 c 0,83,84
 355 306 355 306 363 266 c 0,85,86
 370 228 370 228 381 190 c 0,87,88
 391 152 391 152 397 118 c 0,89,90
 401 87 401 87 405 87 c 0,91,92
 406 87 406 87 406 88 c 0,93,94
 408 90 408 90 412 110 c 2,95,-1
 422 159 l 2,96,97
 424 173 424 173 435 219 c 2,98,-1
 452 300 l 1,99,-1
 463 364 l 2,100,101
 468 395 468 395 470 416 c 0,102,103
 471 423 471 423 471 429 c 0,104,105
 471 445 471 445 467 457 c 256,106,107
 463 469 463 469 463 477 c 0,108,109
 463 480 463 480 464 482 c 0,110,111
 465 489 465 489 470 491 c 0,112,113
 473 492 473 492 476 492 c 0,114,115
 480 492 480 492 486 490 c 2,116,-1
 515 476 l 2,117,118
 527 468 527 468 536 455 c 0,119,120
 544 444 544 444 544 434 c 2,121,-1
 544 430 l 2,122,123
 544 426 544 426 533 409 c 256,124,125
 522 392 522 392 516 361 c 2,126,-1
 502 297 l 1,127,-1
 490 242 l 1,128,-1
 470 170 l 1,129,-1
 456 118 l 2,130,131
 452 100 452 100 442 77 c 0,132,133
 432 53 432 53 423 38 c 0,134,135
 414 24 414 24 406 24 c 256,136,137
 398 24 398 24 389 34 c 256,138,139
 380 44 380 44 372 70 c 2,140,-1
 345 144 l 2,141,142
 338 162 338 162 327 206 c 0,143,144
 316 249 316 249 306 281 c 0,145,146
 298 309 298 309 298 313 c 1,147,148
 288 282 288 282 280 252 c 0,0,1
280 252 m 0,149,150
 271 222 271 222 254 172 c 0,151,152
 238 122 238 122 226 94 c 0,153,154
 215 67 215 67 207 52 c 0,155,156
 199 38 199 38 191 32 c 0,157,158
 184 27 184 27 179 27 c 2,159,-1
 177 27 l 2,160,161
 170 28 170 28 164 38 c 256,162,163
 158 48 158 48 153 60 c 256,164,165
 148 72 148 72 138 107 c 0,166,167
 128 141 128 141 122 161 c 0,168,169
 117 180 117 180 109 215 c 0,170,171
 100 250 100 250 94 274 c 0,172,173
 88 299 88 299 86 306 c 256,174,175
 84 313 84 313 78 345 c 0,176,177
 72 376 72 376 68 398 c 256,178,179
 64 420 64 420 59 434 c 0,180,181
 55 447 55 447 51 454 c 2,182,-1
 38 470 l 2,183,184
 35 475 35 475 35 479 c 0,185,186
 35 481 35 481 36 483 c 0,187,188
 38 489 38 489 45 493 c 0,189,190
 47 494 47 494 51 494 c 0,191,192
 59 494 59 494 73 490 c 0,193,194
 100 480 100 480 110 475 c 0,195,196
 120 471 120 471 129 462 c 256,197,198
 138 453 138 453 138 443 c 2,199,-1
 129 414 l 2,200,201
 128 410 128 410 128 404 c 0,202,203
 128 397 128 397 130 386 c 2,204,-1
 140 319 l 2,205,206
 142 299 142 299 148 262 c 0,207,208
 154 224 154 224 158 200 c 256,209,210
 162 176 162 176 171 132 c 0,211,212
 179 92 179 92 184 92 c 2,213,-1
 185 92 l 2,214,215
 188 93 188 93 194 116 c 2,216,-1
 215 178 l 2,217,218
 220 195 220 195 233 251 c 0,219,220
 246 306 246 306 250 321 c 0,221,222
 253 335 253 335 259 364 c 0,223,224
 266 394 266 394 269 413 c 256,225,226
 272 432 272 432 279 441 c 256,227,228
 286 450 286 450 301 453 c 2,229,-1
 304 453 l 2,230,231
 318 453 318 453 330 432 c 0,232,233
 333 425 333 425 337 408 c 2,234,-1
 346 370 l 2,235,236
 346 368 346 368 350 336 c 0,237,238
 355 306 355 306 363 266 c 0,239,240
 370 228 370 228 381 190 c 0,241,242
 391 152 391 152 397 118 c 0,243,244
 401 87 401 87 405 87 c 0,245,246
 406 87 406 87 406 88 c 0,247,248
 408 90 408 90 412 110 c 2,249,-1
 422 159 l 2,250,251
 424 173 424 173 435 219 c 0,252,253
 445 266 445 266 452 300 c 0,254,255
 458 334 458 334 463 364 c 0,256,257
 468 395 468 395 470 416 c 0,258,259
 471 423 471 423 471 429 c 0,260,261
 471 445 471 445 467 457 c 256,262,263
 463 469 463 469 463 477 c 0,264,265
 463 480 463 480 464 482 c 0,266,267
 465 489 465 489 470 491 c 0,268,269
 473 492 473 492 476 492 c 0,270,271
 480 492 480 492 486 490 c 0,272,273
 502 482 502 482 515 476 c 0,274,275
 527 468 527 468 536 455 c 0,276,277
 544 444 544 444 544 434 c 2,278,-1
 544 430 l 2,279,280
 544 426 544 426 533 409 c 256,281,282
 522 392 522 392 516 361 c 2,283,-1
 502 297 l 1,284,-1
 490 242 l 1,285,-1
 470 170 l 1,286,-1
 456 118 l 2,287,288
 452 100 452 100 442 77 c 0,289,290
 432 53 432 53 423 38 c 0,291,292
 414 24 414 24 406 24 c 256,293,294
 398 24 398 24 389 34 c 256,295,296
 380 44 380 44 372 70 c 2,297,-1
 345 144 l 2,298,299
 338 162 338 162 327 206 c 0,300,301
 316 249 316 249 306 281 c 0,302,303
 298 309 298 309 298 313 c 1,304,305
 288 282 288 282 280 252 c 0,149,150
EndSplineSet
EndChar
StartChar: x
Encoding: 120 120 91
Width: 471
Flags: W
LayerCount: 2
Back
Fore
SplineSet
238 242 m 1,0,-1
 214 212 l 1,1,-1
 196 188 l 1,2,-1
 160 138 l 1,3,-1
 116 86 l 2,4,5
 92 54 92 54 71 40 c 0,6,7
 57 31 57 31 49 31 c 0,8,9
 45 31 45 31 43 33 c 0,10,11
 38 38 38 38 38 52 c 2,12,-1
 38 60 l 2,13,14
 38 79 38 79 44 94 c 0,15,16
 48 110 48 110 56 115 c 2,17,-1
 74 122 l 2,18,19
 83 125 83 125 96 136 c 0,20,21
 108 148 108 148 136 184 c 0,22,23
 165 222 165 222 170 226 c 2,24,-1
 212 276 l 1,25,-1
 198 292 l 2,26,27
 194 300 194 300 188 306 c 2,28,-1
 146 358 l 1,29,-1
 128 381 l 2,30,31
 105 407 105 407 90 420 c 0,32,33
 76 434 76 434 57 446 c 256,34,35
 38 458 38 458 36 465 c 0,36,37
 35 469 35 469 35 472 c 256,38,39
 35 475 35 475 36 477 c 0,40,41
 38 482 38 482 52 483 c 2,42,-1
 59 483 l 2,43,44
 70 483 70 483 82 481 c 2,45,-1
 118 474 l 2,46,47
 140 472 140 472 146 467 c 256,48,49
 152 462 152 462 154 456 c 2,50,-1
 158 427 l 2,51,52
 159 416 159 416 172 400 c 2,53,-1
 198 366 l 1,54,-1
 222 332 l 1,55,-1
 238 308 l 1,56,-1
 278 354 l 1,57,-1
 332 422 l 2,58,59
 360 454 360 454 372 470 c 0,60,61
 382 486 382 486 390 494 c 256,62,63
 398 502 398 502 404 502 c 0,64,65
 410 500 410 500 414 482 c 0,66,67
 418 463 418 463 420 450 c 0,68,69
 421 443 421 443 421 437 c 256,70,71
 421 431 421 431 420 426 c 0,72,73
 418 414 418 414 410 408 c 2,74,-1
 386 400 l 2,75,76
 376 396 376 396 360 381 c 2,77,-1
 332 352 l 1,78,-1
 306 322 l 1,79,-1
 276 289 l 1,80,-1
 264 276 l 1,81,-1
 308 226 l 1,82,-1
 354 164 l 1,83,-1
 386 125 l 1,84,-1
 414 92 l 2,85,86
 430 74 430 74 436 58 c 0,87,88
 441 46 441 46 441 40 c 0,89,90
 441 38 441 38 440 37 c 0,91,92
 438 34 438 34 431 34 c 256,93,94
 424 34 424 34 412 37 c 0,95,96
 387 43 387 43 370 50 c 0,97,98
 355 58 355 58 348 67 c 0,99,100
 340 77 340 77 336 92 c 0,101,102
 332 106 332 106 328 112 c 0,103,104
 326 119 326 119 304 153 c 0,105,106
 282 186 282 186 272 198 c 2,107,-1
 256 222 l 1,108,-1
 238 242 l 1,0,-1
238 242 m 1,109,110
 224 224 224 224 214 212 c 0,111,112
 204 199 204 199 196 188 c 2,113,-1
 160 138 l 1,114,-1
 116 86 l 2,115,116
 92 54 92 54 71 40 c 0,117,118
 57 31 57 31 49 31 c 0,119,120
 45 31 45 31 43 33 c 0,121,122
 38 38 38 38 38 52 c 2,123,-1
 38 60 l 2,124,125
 38 79 38 79 44 94 c 0,126,127
 48 110 48 110 56 115 c 2,128,-1
 74 122 l 2,129,130
 84 125 84 125 96 136 c 0,131,132
 108 148 108 148 136 184 c 0,133,134
 166 222 166 222 170 226 c 2,135,-1
 212 276 l 1,136,137
 204 284 204 284 198 292 c 0,138,139
 194 300 194 300 188 306 c 0,140,141
 184 311 184 311 146 358 c 2,142,-1
 128 381 l 2,143,144
 106 407 106 407 90 420 c 0,145,146
 76 434 76 434 57 446 c 256,147,148
 38 458 38 458 36 465 c 0,149,150
 35 469 35 469 35 472 c 256,151,152
 35 475 35 475 36 477 c 0,153,154
 38 482 38 482 52 483 c 2,155,-1
 59 483 l 2,156,157
 70 483 70 483 82 481 c 2,158,-1
 118 474 l 2,159,160
 140 472 140 472 146 467 c 256,161,162
 152 462 152 462 154 456 c 2,163,-1
 158 427 l 2,164,165
 160 416 160 416 172 400 c 2,166,-1
 198 366 l 1,167,-1
 222 332 l 1,168,-1
 238 308 l 1,169,170
 264 338 264 338 278 354 c 2,171,-1
 332 422 l 2,172,173
 360 454 360 454 372 470 c 0,174,175
 382 486 382 486 390 494 c 256,176,177
 398 502 398 502 404 502 c 0,178,179
 410 500 410 500 414 482 c 0,180,181
 418 463 418 463 420 450 c 0,182,183
 421 443 421 443 421 437 c 256,184,185
 421 431 421 431 420 426 c 0,186,187
 418 414 418 414 410 408 c 2,188,-1
 386 400 l 2,189,190
 376 396 376 396 361 381 c 256,191,192
 346 366 346 366 332 352 c 2,193,-1
 306 322 l 1,194,-1
 276 289 l 1,195,-1
 264 276 l 1,196,197
 294 243 294 243 308 226 c 2,198,-1
 354 164 l 2,199,200
 372 142 372 142 386 125 c 0,201,202
 400 109 400 109 414 92 c 0,203,204
 430 74 430 74 436 58 c 0,205,206
 441 46 441 46 441 40 c 0,207,208
 441 38 441 38 440 37 c 0,209,210
 438 34 438 34 431 34 c 256,211,212
 424 34 424 34 412 37 c 0,213,214
 386 43 386 43 370 50 c 0,215,216
 354 58 354 58 348 67 c 0,217,218
 340 77 340 77 336 92 c 0,219,220
 332 106 332 106 328 112 c 0,221,222
 326 119 326 119 304 153 c 0,223,224
 282 186 282 186 272 198 c 0,225,226
 264 209 264 209 256 222 c 2,227,-1
 238 242 l 1,109,110
EndSplineSet
EndChar
